<svg width="300" height="176" viewBox="0 0 300 176" fill="none" xmlns="http://www.w3.org/2000/svg">
    <path d="M300 -6.54254L-4.40491 -8.35535L-5.94049 174.187L298.464 176L300 -6.54254Z" fill="#74ACDF"/>
    <path d="M299.236 53.399H-5.17639V114.249H299.236V53.399Z" fill="white"/>
    <path d="M145.827 84.3006L156.655 106.934C156.655 106.934 156.841 107.366 157.142 107.247C157.442 107.128 157.255 106.695 157.255 106.695L148.231 83.3452M147.973 92.1512C147.841 95.5933 150.047 97.4864 149.759 100.56C149.471 103.634 151.23 105.372 151.639 106.567C152.047 107.763 151.197 108.478 151.563 108.648C151.93 108.818 152.731 107.873 152.47 106.174C152.209 104.475 150.864 103.97 151.18 100.216C151.496 96.4614 149.58 95.587 150.046 92.1624" fill="#F6B40E"/>
    <path d="M145.827 84.3006L156.655 106.934C156.655 106.934 156.841 107.366 157.142 107.247C157.442 107.128 157.255 106.695 157.255 106.695L148.231 83.3452M147.973 92.1512C147.841 95.5933 150.047 97.4864 149.759 100.56C149.471 103.634 151.23 105.372 151.639 106.567C152.047 107.763 151.197 108.478 151.563 108.648C151.93 108.818 152.731 107.873 152.47 106.174C152.209 104.475 150.864 103.97 151.18 100.216C151.496 96.4614 149.58 95.587 150.046 92.1624" stroke="#85340A" stroke-width="1.1116"/>
    <path d="M145.728 83.8227L146.704 108.708C146.704 108.708 146.704 109.176 147.029 109.177C147.354 109.177 147.354 108.709 147.354 108.709L148.33 83.8227M144.579 91.8634C143.084 94.9951 144.368 97.5543 142.875 100.288C141.383 103.022 142.316 105.274 142.216 106.528C142.116 107.783 141.046 108.131 141.317 108.423C141.587 108.714 142.705 108.136 143.141 106.47C143.577 104.804 142.536 103.844 144.326 100.492C146.115 97.1392 144.693 95.6277 146.49 92.6351" fill="#F6B40E"/>
    <path d="M145.728 83.8227L146.704 108.708C146.704 108.708 146.704 109.176 147.029 109.177C147.354 109.177 147.354 108.709 147.354 108.709L148.33 83.8227M144.579 91.8634C143.084 94.9951 144.368 97.5543 142.875 100.288C141.383 103.022 142.316 105.274 142.216 106.528C142.116 107.783 141.046 108.131 141.317 108.423C141.587 108.714 142.705 108.136 143.141 106.47C143.577 104.804 142.536 103.844 144.326 100.492C146.115 97.1392 144.693 95.6277 146.49 92.6351" stroke="#85340A" stroke-width="1.1116"/>
    <path d="M145.827 83.3447L136.803 106.694C136.803 106.694 136.616 107.127 136.916 107.246C137.217 107.366 137.404 106.933 137.404 106.933L148.231 84.3001M141.558 90.3514C138.928 92.6959 139.093 95.5316 136.624 97.5093C134.155 99.4876 134.118 101.91 133.526 103.032C132.934 104.155 131.806 104.084 131.94 104.452C132.073 104.821 133.336 104.697 134.404 103.318C135.472 101.939 134.893 100.67 137.883 98.23C140.873 95.7896 140.163 93.8712 143.016 91.7661" fill="#F6B40E"/>
    <path d="M145.827 83.3447L136.803 106.694C136.803 106.694 136.616 107.127 136.916 107.246C137.217 107.366 137.404 106.933 137.404 106.933L148.231 84.3001M141.558 90.3514C138.928 92.6959 139.093 95.5316 136.624 97.5093C134.155 99.4876 134.118 101.91 133.526 103.032C132.934 104.155 131.806 104.084 131.94 104.452C132.073 104.821 133.336 104.697 134.404 103.318C135.472 101.939 134.893 100.67 137.883 98.23C140.873 95.7896 140.163 93.8712 143.016 91.7661" stroke="#85340A" stroke-width="1.1116"/>
    <path d="M146.109 82.9394L128.459 101.198C128.459 101.198 128.114 101.529 128.344 101.75C128.574 101.971 128.919 101.64 128.919 101.64L147.949 84.7048M139.371 87.8454C136.006 89.0457 135.027 91.7262 131.957 92.6467C128.887 93.5678 127.887 95.7926 126.892 96.6117C125.897 97.4312 124.884 96.9515 124.86 97.3411C124.837 97.7311 126.053 98.0803 127.589 97.1983C129.126 96.3163 129.097 94.9313 132.833 93.7748C136.569 92.618 136.677 90.5847 140.153 89.6877" fill="#F6B40E"/>
    <path d="M146.109 82.9394L128.459 101.198C128.459 101.198 128.114 101.529 128.344 101.75C128.574 101.971 128.919 101.64 128.919 101.64L147.949 84.7048M139.371 87.8454C136.006 89.0457 135.027 91.7262 131.957 92.6467C128.887 93.5678 127.887 95.7926 126.892 96.6117C125.897 97.4312 124.884 96.9515 124.86 97.3411C124.837 97.7311 126.053 98.0803 127.589 97.1983C129.126 96.3163 129.097 94.9313 132.833 93.7748C136.569 92.618 136.677 90.5847 140.153 89.6877" stroke="#85340A" stroke-width="1.1116"/>
    <path d="M148.67 92.7343C148.842 96.0398 150.796 97.5035 150.412 100.516C151.254 98.1337 149.224 96.287 149.339 92.7686M146.429 84.095L153.844 99.6397L147.63 83.6168" fill="#85340A"/>
    <path d="M144.991 92.6581C143.832 95.7753 145.052 97.8448 143.496 100.487C145.225 98.5954 144.085 96.1437 145.595 92.9355M146.366 83.8535L147.016 100.938L147.667 83.8529" fill="#85340A"/>
    <path d="M141.622 91.2367C139.307 93.6911 139.61 96.0513 137.119 97.9212C139.47 96.8081 139.395 94.1246 142.069 91.715M146.404 83.6073L140.191 99.6298L147.606 84.0844" fill="#85340A"/>
    <path d="M139.076 88.6865C135.959 90.1044 135.297 92.396 132.25 93.2088C134.866 93.0438 135.867 90.537 139.299 89.2929M146.537 83.3937L134.407 95.9154L147.457 84.2759" fill="#85340A"/>
    <path d="M146.531 82.6686L122.942 93.057C122.942 93.057 122.491 93.2358 122.616 93.5244C122.74 93.8129 123.191 93.6334 123.191 93.6334L147.527 84.9752M138.349 84.727C134.762 84.6005 132.789 86.7177 129.585 86.4408C126.381 86.1645 124.57 87.8528 123.324 88.2442C122.078 88.6361 121.333 87.8207 121.156 88.172C120.978 88.5237 121.963 89.2928 123.734 89.0421C125.505 88.7914 126.031 87.5012 129.944 87.8045C133.857 88.1075 134.768 86.2689 138.337 86.7165" fill="#F6B40E"/>
    <path d="M146.531 82.6686L122.942 93.057C122.942 93.057 122.491 93.2358 122.616 93.5244C122.74 93.8129 123.191 93.6334 123.191 93.6334L147.527 84.9752M138.349 84.727C134.762 84.6005 132.789 86.7177 129.585 86.4408C126.381 86.1645 124.57 87.8528 123.324 88.2442C122.078 88.6361 121.333 87.8207 121.156 88.172C120.978 88.5237 121.963 89.2928 123.734 89.0421C125.505 88.7914 126.031 87.5012 129.944 87.8045C133.857 88.1075 134.768 86.2689 138.337 86.7165" stroke="#85340A" stroke-width="1.1116"/>
    <path d="M147.029 82.5734L121.093 83.5098C121.093 83.5098 120.605 83.5093 120.604 83.8216C120.604 84.1337 121.092 84.1335 121.092 84.1335L147.029 85.07M138.649 81.4707C135.385 80.0367 132.718 81.2682 129.868 79.8362C127.019 78.4045 124.672 79.2992 123.365 79.2035C122.057 79.108 121.694 78.0812 121.39 78.3406C121.086 78.6004 121.689 79.6724 123.425 80.0911C125.162 80.5098 126.162 79.511 129.656 81.2279C133.15 82.9445 134.726 81.5805 137.845 83.3046" fill="#F6B40E"/>
    <path d="M147.029 82.5734L121.093 83.5098C121.093 83.5098 120.605 83.5093 120.604 83.8216C120.604 84.1337 121.092 84.1335 121.092 84.1335L147.029 85.07M138.649 81.4707C135.385 80.0367 132.718 81.2682 129.868 79.8362C127.019 78.4045 124.672 79.2992 123.365 79.2035C122.057 79.108 121.694 78.0812 121.39 78.3406C121.086 78.6004 121.689 79.6724 123.425 80.0911C125.162 80.5098 126.162 79.511 129.656 81.2279C133.15 82.9445 134.726 81.5805 137.845 83.3046" stroke="#85340A" stroke-width="1.1116"/>
    <path d="M147.528 82.6683L123.192 74.0101C123.192 74.0101 122.741 73.8306 122.616 74.1189C122.492 74.4073 122.943 74.5863 122.943 74.5863L146.532 84.9749M140.225 78.5726C137.781 76.0492 134.826 76.2077 132.765 73.8385C130.703 71.4694 128.178 71.4343 127.008 70.8659C125.839 70.2977 125.913 69.2157 125.529 69.3438C125.144 69.4721 125.273 70.6838 126.71 71.7082C128.148 72.7326 129.47 72.1771 132.014 75.0463C134.557 77.9152 136.556 77.2334 138.75 79.9715" fill="#F6B40E"/>
    <path d="M147.528 82.6683L123.192 74.0101C123.192 74.0101 122.741 73.8306 122.616 74.1189C122.492 74.4073 122.943 74.5863 122.943 74.5863L146.532 84.9749M140.225 78.5726C137.781 76.0492 134.826 76.2077 132.765 73.8385C130.703 71.4694 128.178 71.4343 127.008 70.8659C125.839 70.2977 125.913 69.2157 125.529 69.3438C125.144 69.4721 125.273 70.6838 126.71 71.7082C128.148 72.7326 129.47 72.1771 132.014 75.0463C134.557 77.9152 136.556 77.2334 138.75 79.9715" stroke="#85340A" stroke-width="1.1116"/>
    <path d="M147.95 82.939L128.92 66.0044C128.92 66.0044 128.575 65.6731 128.345 65.8936C128.115 66.1142 128.46 66.4452 128.46 66.4452L146.11 84.7044M142.837 76.4737C141.586 73.2452 138.792 72.3065 137.833 69.3608C136.873 66.4149 134.554 65.4554 133.7 64.5009C132.846 63.5464 133.346 62.574 132.94 62.5512C132.533 62.5286 132.17 63.6955 133.089 65.1696C134.008 66.6438 135.452 66.6162 136.657 70.2008C137.863 73.7853 139.982 73.8895 140.917 77.2247" fill="#F6B40E"/>
    <path d="M147.95 82.939L128.92 66.0044C128.92 66.0044 128.575 65.6731 128.345 65.8936C128.115 66.1142 128.46 66.4452 128.46 66.4452L146.11 84.7044M142.837 76.4737C141.586 73.2452 138.792 72.3065 137.833 69.3608C136.873 66.4149 134.554 65.4554 133.7 64.5009C132.846 63.5464 133.346 62.574 132.94 62.5512C132.533 62.5286 132.17 63.6955 133.089 65.1696C134.008 66.6438 135.452 66.6162 136.657 70.2008C137.863 73.7853 139.982 73.8895 140.917 77.2247" stroke="#85340A" stroke-width="1.1116"/>
    <path d="M137.741 85.3959C134.296 85.5614 132.771 87.4356 129.631 87.0675C132.114 87.8756 134.038 85.9272 137.706 86.038M146.745 83.2455L130.544 90.3601L147.244 84.3984" fill="#85340A"/>
    <path d="M137.821 81.8656C134.572 80.7536 132.415 81.9249 129.661 80.4322C131.633 82.0903 134.188 80.997 137.532 82.4457M146.997 83.185L129.192 83.8094L146.998 84.4332" fill="#85340A"/>
    <path d="M139.302 78.6333C136.744 76.413 134.284 76.7032 132.335 74.3129C133.496 76.5687 136.292 76.4968 138.804 79.063M147.254 83.2216L130.555 77.2606L146.757 84.375" fill="#85340A"/>
    <path d="M141.96 76.1909C140.482 73.2004 138.094 72.5653 137.247 69.6413C137.419 72.1514 140.031 73.1119 141.328 76.4049M147.476 83.3496L134.426 71.7109L146.557 84.2327" fill="#85340A"/>
    <path d="M148.232 83.344L137.405 60.7111C137.405 60.7111 137.219 60.2785 136.918 60.3976C136.617 60.5169 136.804 60.9495 136.804 60.9495L145.828 84.2995M146.087 75.4934C146.219 72.0514 144.012 70.1583 144.301 67.0846C144.589 64.0105 142.829 62.2726 142.421 61.0773C142.013 59.8818 142.862 59.167 142.496 58.9969C142.13 58.8267 141.328 59.7712 141.59 61.4707C141.851 63.1701 143.195 63.6747 142.879 67.429C142.564 71.1833 144.48 72.0577 144.013 75.4823" fill="#F6B40E"/>
    <path d="M148.232 83.344L137.405 60.7111C137.405 60.7111 137.219 60.2785 136.918 60.3976C136.617 60.5169 136.804 60.9495 136.804 60.9495L145.828 84.2995M146.087 75.4934C146.219 72.0514 144.012 70.1583 144.301 67.0846C144.589 64.0105 142.829 62.2726 142.421 61.0773C142.013 59.8818 142.862 59.167 142.496 58.9969C142.13 58.8267 141.328 59.7712 141.59 61.4707C141.851 63.1701 143.195 63.6747 142.879 67.429C142.564 71.1833 144.48 72.0577 144.013 75.4823" stroke="#85340A" stroke-width="1.1116"/>
    <path d="M148.331 83.8219L147.355 58.9364C147.355 58.9364 147.356 58.4683 147.031 58.4679C146.705 58.4677 146.705 58.936 146.705 58.936L145.729 83.822M149.481 75.7812C150.975 72.6496 149.692 70.0904 151.184 67.3566C152.676 64.6222 151.744 62.3706 151.844 61.1165C151.943 59.862 153.013 59.5137 152.743 59.2221C152.472 58.9303 151.355 59.5085 150.919 61.1745C150.482 62.8406 151.523 63.8004 149.734 67.1529C147.945 70.5055 149.366 72.0169 147.569 75.0095" fill="#F6B40E"/>
    <path d="M148.331 83.8219L147.355 58.9364C147.355 58.9364 147.356 58.4683 147.031 58.4679C146.705 58.4677 146.705 58.936 146.705 58.936L145.729 83.822M149.481 75.7812C150.975 72.6496 149.692 70.0904 151.184 67.3566C152.676 64.6222 151.744 62.3706 151.844 61.1165C151.943 59.862 153.013 59.5137 152.743 59.2221C152.472 58.9303 151.355 59.5085 150.919 61.1745C150.482 62.8406 151.523 63.8004 149.734 67.1529C147.945 70.5055 149.366 72.0169 147.569 75.0095" stroke="#85340A" stroke-width="1.1116"/>
    <path d="M148.233 84.2999L157.256 60.9503C157.256 60.9503 157.444 60.518 157.143 60.3982C156.843 60.2786 156.656 60.7113 156.656 60.7113L145.829 83.3445M152.501 77.2932C155.131 74.9488 154.966 72.1131 157.435 70.1354C159.905 68.1571 159.941 65.7344 160.534 64.6124C161.126 63.49 162.253 63.5611 162.12 63.1925C161.986 62.8234 160.723 62.9474 159.656 64.3264C158.588 65.7054 159.167 66.9744 156.177 69.4147C153.186 71.8551 153.897 73.7735 151.043 75.8785" fill="#F6B40E"/>
    <path d="M148.233 84.2999L157.256 60.9503C157.256 60.9503 157.444 60.518 157.143 60.3982C156.843 60.2786 156.656 60.7113 156.656 60.7113L145.829 83.3445M152.501 77.2932C155.131 74.9488 154.966 72.1131 157.435 70.1354C159.905 68.1571 159.941 65.7344 160.534 64.6124C161.126 63.49 162.253 63.5611 162.12 63.1925C161.986 62.8234 160.723 62.9474 159.656 64.3264C158.588 65.7054 159.167 66.9744 156.177 69.4147C153.186 71.8551 153.897 73.7735 151.043 75.8785" stroke="#85340A" stroke-width="1.1116"/>
    <path d="M147.95 84.7052L165.6 66.4464C165.6 66.4464 165.946 66.1156 165.716 65.8946C165.486 65.6738 165.141 66.0051 165.141 66.0051L146.11 82.9398M154.689 79.7993C158.054 78.5989 159.032 75.9184 162.102 74.9979C165.172 74.0768 166.172 71.852 167.167 71.0329C168.162 70.2134 169.176 70.6932 169.199 70.3036C169.223 69.9135 168.007 69.5644 166.47 70.4463C164.934 71.3284 164.963 72.7133 161.227 73.8699C157.491 75.0266 157.382 77.0599 153.906 77.9569" fill="#F6B40E"/>
    <path d="M147.95 84.7052L165.6 66.4464C165.6 66.4464 165.946 66.1156 165.716 65.8946C165.486 65.6738 165.141 66.0051 165.141 66.0051L146.11 82.9398M154.689 79.7993C158.054 78.5989 159.032 75.9184 162.102 74.9979C165.172 74.0768 166.172 71.852 167.167 71.0329C168.162 70.2134 169.176 70.6932 169.199 70.3036C169.223 69.9135 168.007 69.5644 166.47 70.4463C164.934 71.3284 164.963 72.7133 161.227 73.8699C157.491 75.0266 157.382 77.0599 153.906 77.9569" stroke="#85340A" stroke-width="1.1116"/>
    <path d="M145.39 74.9104C145.217 71.6049 143.264 70.1412 143.647 67.1288C142.805 69.511 144.836 71.3577 144.721 74.8761M147.631 83.5496L140.216 68.005L146.429 84.0279" fill="#85340A"/>
    <path d="M149.069 74.9866C150.228 71.8694 149.007 69.7998 150.563 67.1576C148.835 69.0492 149.974 71.5009 148.464 74.7092M147.694 83.7911L147.043 66.7071L146.393 83.7918" fill="#85340A"/>
    <path d="M152.438 76.4079C154.752 73.9536 154.45 71.5933 156.941 69.7235C154.59 70.8366 154.665 73.5201 151.99 75.9296M147.656 84.0374L153.869 68.0149L146.454 83.5603" fill="#85340A"/>
    <path d="M154.984 78.9581C158.1 77.5403 158.762 75.2486 161.81 74.4358C159.194 74.6009 158.193 77.1077 154.761 78.3518M147.523 84.2509L159.653 71.7292L146.602 83.3688" fill="#85340A"/>
    <path d="M147.528 84.976L171.117 74.5876C171.117 74.5876 171.568 74.4089 171.444 74.1203C171.32 73.8318 170.869 74.0112 170.869 74.0112L146.532 82.6694M155.711 82.9177C159.298 83.0442 161.271 80.927 164.475 81.2038C167.678 81.4802 169.49 79.7919 170.736 79.4004C171.982 79.0085 172.727 79.8239 172.904 79.4727C173.081 79.121 172.097 78.3519 170.326 78.6026C168.554 78.8533 168.028 80.1434 164.116 79.8402C160.203 79.5371 159.291 81.3757 155.722 80.9281" fill="#F6B40E"/>
    <path d="M147.528 84.976L171.117 74.5876C171.117 74.5876 171.568 74.4089 171.444 74.1203C171.32 73.8318 170.869 74.0112 170.869 74.0112L146.532 82.6694M155.711 82.9177C159.298 83.0442 161.271 80.927 164.475 81.2038C167.678 81.4802 169.49 79.7919 170.736 79.4004C171.982 79.0085 172.727 79.8239 172.904 79.4727C173.081 79.121 172.097 78.3519 170.326 78.6026C168.554 78.8533 168.028 80.1434 164.116 79.8402C160.203 79.5371 159.291 81.3757 155.722 80.9281" stroke="#85340A" stroke-width="1.1116"/>
    <path d="M147.03 85.0713L172.967 84.1349C172.967 84.1349 173.455 84.1353 173.455 83.8231C173.456 83.5109 172.967 83.5111 172.967 83.5111L147.03 82.5746M155.411 86.1739C158.675 87.608 161.342 86.3764 164.191 87.8084C167.041 89.2402 169.388 88.3454 170.695 88.4412C172.002 88.5366 172.365 89.5635 172.669 89.3041C172.973 89.0443 172.371 87.9723 170.634 87.5535C168.898 87.1348 167.898 88.1337 164.403 86.4168C160.909 84.7001 159.334 86.0642 156.215 84.3401" fill="#F6B40E"/>
    <path d="M147.03 85.0713L172.967 84.1349C172.967 84.1349 173.455 84.1353 173.455 83.8231C173.456 83.5109 172.967 83.5111 172.967 83.5111L147.03 82.5746M155.411 86.1739C158.675 87.608 161.342 86.3764 164.191 87.8084C167.041 89.2402 169.388 88.3454 170.695 88.4412C172.002 88.5366 172.365 89.5635 172.669 89.3041C172.973 89.0443 172.371 87.9723 170.634 87.5535C168.898 87.1348 167.898 88.1337 164.403 86.4168C160.909 84.7001 159.334 86.0642 156.215 84.3401" stroke="#85340A" stroke-width="1.1116"/>
    <path d="M146.532 84.9763L170.868 93.6345C170.868 93.6345 171.319 93.814 171.443 93.5257C171.568 93.2374 171.117 93.0583 171.117 93.0583L147.528 82.6697M153.835 89.0721C156.278 91.5954 159.234 91.437 161.295 93.8062C163.357 96.1753 165.882 96.2103 167.051 96.7787C168.221 97.347 168.147 98.429 168.531 98.3009C168.916 98.1726 168.787 96.9609 167.349 95.9364C165.912 94.912 164.589 95.4675 162.046 92.5984C159.503 89.7294 157.503 90.4112 155.309 87.6732" fill="#F6B40E"/>
    <path d="M146.532 84.9763L170.868 93.6345C170.868 93.6345 171.319 93.814 171.443 93.5257C171.568 93.2374 171.117 93.0583 171.117 93.0583L147.528 82.6697M153.835 89.0721C156.278 91.5954 159.234 91.437 161.295 93.8062C163.357 96.1753 165.882 96.2103 167.051 96.7787C168.221 97.347 168.147 98.429 168.531 98.3009C168.916 98.1726 168.787 96.9609 167.349 95.9364C165.912 94.912 164.589 95.4675 162.046 92.5984C159.503 89.7294 157.503 90.4112 155.309 87.6732" stroke="#85340A" stroke-width="1.1116"/>
    <path d="M146.11 84.7057L165.14 101.64C165.14 101.64 165.485 101.972 165.715 101.751C165.945 101.53 165.6 101.199 165.6 101.199L147.95 82.9402M151.223 91.171C152.474 94.3994 155.268 95.3382 156.227 98.2839C157.187 101.23 159.506 102.189 160.36 103.144C161.214 104.098 160.714 105.071 161.12 105.093C161.526 105.116 161.89 103.949 160.971 102.475C160.052 101.001 158.608 101.028 157.403 97.4438C156.197 93.8594 154.078 93.7552 153.143 90.42" fill="#F6B40E"/>
    <path d="M146.11 84.7057L165.14 101.64C165.14 101.64 165.485 101.972 165.715 101.751C165.945 101.53 165.6 101.199 165.6 101.199L147.95 82.9402M151.223 91.171C152.474 94.3994 155.268 95.3382 156.227 98.2839C157.187 101.23 159.506 102.189 160.36 103.144C161.214 104.098 160.714 105.071 161.12 105.093C161.526 105.116 161.89 103.949 160.971 102.475C160.052 101.001 158.608 101.028 157.403 97.4438C156.197 93.8594 154.078 93.7552 153.143 90.42" stroke="#85340A" stroke-width="1.1116"/>
    <path d="M156.318 82.2488C159.763 82.0833 161.289 80.2091 164.429 80.5771C161.946 79.769 160.021 81.7174 156.354 81.6067M147.314 84.3992L163.515 77.2846L146.816 83.2462" fill="#85340A"/>
    <path d="M156.239 85.779C159.488 86.8911 161.645 85.7197 164.399 87.2125C162.427 85.5543 159.872 86.6477 156.528 85.1989M147.062 84.4596L164.868 83.8353L147.062 83.2114" fill="#85340A"/>
    <path d="M154.757 89.0114C157.315 91.2317 159.775 90.9415 161.724 93.3318C160.564 91.0759 157.767 91.1478 155.256 88.5816M146.806 84.4231L163.505 90.384L147.303 83.2696" fill="#85340A"/>
    <path d="M152.1 91.4538C153.577 94.4443 155.966 95.0794 156.813 98.0033C156.641 95.4932 154.028 94.5327 152.732 91.2397M146.583 84.2951L159.634 95.9338L147.503 83.412" fill="#85340A"/>
    <path d="M147.03 93.9639C152.867 93.9639 157.6 89.4234 157.6 83.8223C157.6 78.2213 152.867 73.6807 147.03 73.6807C141.192 73.6807 136.46 78.2213 136.46 83.8223C136.46 89.4234 141.192 93.9639 147.03 93.9639Z" fill="#F6B40E" stroke="#85340A" stroke-width="1.5"/>
    <path d="M150.633 81.6537C149.912 81.6537 149.22 81.9538 148.814 82.5778C149.627 83.2798 151.423 83.3561 152.643 82.498C152.114 81.952 151.355 81.6537 150.633 81.6537L150.633 81.6537ZM150.621 81.8134C151.324 81.8012 151.981 82.1108 152.072 82.4181C151.259 83.2762 149.96 83.2017 149.147 82.5778C149.503 82.0318 150.075 81.8229 150.621 81.8134V81.8134Z" fill="#843511"/>
    <path d="M150.77 81.1717C149.714 81.1717 149.469 81.406 148.982 81.796C148.493 82.186 148.25 82.1078 148.168 82.186C148.088 82.2642 148.168 82.4979 148.331 82.4197C148.493 82.3415 148.819 82.186 149.306 81.7959C149.795 81.4054 150.282 81.4058 150.77 81.4058C152.233 81.4058 153.046 82.5758 153.209 82.4977C153.371 82.4195 152.396 81.1715 150.77 81.1715L150.77 81.1717Z" fill="#85340A"/>
    <path d="M153.696 81.6391C151.826 80.0791 149.469 79.8447 148.168 81.0153C147.849 81.4244 147.645 81.8619 147.561 82.3185C147.398 83.2068 147.687 84.1665 148.412 85.1501C148.33 85.1498 148.167 85.2277 148.086 85.3059C147.441 84.1215 147.212 82.905 147.424 81.7479C147.48 81.4456 147.566 81.1481 147.679 80.8586C149.468 79.4548 151.907 79.2986 153.695 81.6391L153.696 81.6391Z" fill="#85340A"/>
    <path d="M150.607 83.1187C151.012 83.1187 151.339 82.8044 151.339 82.4167C151.339 82.0289 151.012 81.7146 150.607 81.7146C150.203 81.7146 149.876 82.0289 149.876 82.4167C149.876 82.8044 150.203 83.1187 150.607 83.1187Z" fill="#85340A"/>
    <path d="M152.722 82.8877C151.34 83.902 149.958 83.8239 149.145 83.3557C148.332 82.8877 148.332 82.7319 148.494 82.7319C148.656 82.7319 148.819 82.8877 149.469 83.1996C150.12 83.5121 151.095 83.5121 152.721 82.8878L152.722 82.8877Z" fill="#85340A"/>
    <path d="M145.413 85.2242C145.065 85.2851 144.818 85.581 144.818 85.9202C144.818 86.3077 145.152 86.6161 145.555 86.6161C145.794 86.6161 146.013 86.5078 146.15 86.3195C146.431 86.5225 146.821 86.5441 147.03 86.5477C147.062 86.5484 147.103 86.5477 147.125 86.5477C147.333 86.544 147.724 86.5225 148.005 86.3195C148.142 86.5078 148.361 86.6161 148.599 86.6161C149.003 86.6161 149.337 86.3077 149.337 85.9202C149.337 85.581 149.09 85.2851 148.742 85.2242C148.937 85.2903 149.063 85.4712 149.063 85.6692C149.063 85.9275 148.846 86.137 148.576 86.137C148.317 86.137 148.103 85.9398 148.088 85.692C148.009 85.844 147.695 86.2963 147.077 86.3195C146.46 86.2963 146.146 85.844 146.067 85.692C146.052 85.9398 145.838 86.137 145.579 86.137C145.309 86.137 145.092 85.9275 145.092 85.6692C145.092 85.4713 145.218 85.2903 145.413 85.2242H145.413Z" fill="#85340A"/>
    <path d="M146.208 87.3016C145.394 87.3016 145.073 88.0088 144.341 88.4768C144.748 88.3212 145.068 88.0134 145.637 87.701C146.206 87.389 146.692 87.7694 147.016 87.7694H147.028C147.353 87.7694 147.838 87.3892 148.408 87.701C148.977 88.0135 149.309 88.3212 149.716 88.4768C148.984 88.0088 148.65 87.3016 147.837 87.3016C147.675 87.3016 147.353 87.3858 147.028 87.5412H147.016C146.692 87.3855 146.37 87.3016 146.208 87.3016Z" fill="#85340A"/>
    <path d="M145.934 88.2254C145.613 88.2391 145.188 88.3009 144.578 88.4764C146.042 88.1645 146.365 88.6361 147.016 88.6361H147.028C147.679 88.6361 148.002 88.1644 149.466 88.4764C147.839 88.0084 147.516 88.3167 147.028 88.3167H147.016C146.711 88.3167 146.469 88.2026 145.934 88.2254H145.934Z" fill="#85340A"/>
    <path d="M144.652 88.4663C144.557 88.4674 144.454 88.4682 144.342 88.4777C146.05 88.6339 145.229 89.573 147.018 89.573H147.03C148.818 89.573 148.009 88.6338 149.717 88.4777C147.928 88.322 148.494 89.3334 147.03 89.3334H147.018C145.645 89.3334 146.068 88.4494 144.652 88.4663H144.652Z" fill="#85340A"/>
    <path d="M148.495 91C148.495 90.2248 147.839 89.5957 147.031 89.5957C146.223 89.5957 145.568 90.2248 145.568 91C145.729 90.3498 146.335 89.8904 147.031 89.8904C147.729 89.8904 148.334 90.3499 148.495 91Z" fill="#85340A"/>
    <path d="M140.458 81.6391C142.328 80.0791 144.686 79.8447 145.987 81.0153C146.306 81.4244 146.51 81.8619 146.593 82.3185C146.757 83.2068 146.468 84.1665 145.742 85.1501C145.824 85.1498 145.987 85.2277 146.068 85.3059C146.714 84.1215 146.942 82.905 146.73 81.7479C146.675 81.4456 146.588 81.1481 146.476 80.8586C144.687 79.4548 142.248 79.2986 140.459 81.6391L140.458 81.6391Z" fill="#85340A"/>
    <path d="M143.384 81.1717C144.441 81.1717 144.685 81.406 145.173 81.796C145.661 82.186 145.905 82.1078 145.986 82.186C146.067 82.2642 145.986 82.4979 145.824 82.4197C145.662 82.3415 145.336 82.186 144.848 81.7959C144.36 81.4054 143.873 81.4058 143.385 81.4058C141.921 81.4058 141.108 82.5758 140.946 82.4977C140.784 82.4195 141.759 81.1715 143.385 81.1715L143.384 81.1717Z" fill="#85340A"/>
    <path d="M143.335 81.6537C142.613 81.6537 141.922 81.9538 141.515 82.5778C142.328 83.2798 144.124 83.3561 145.344 82.498C144.816 81.952 144.056 81.6537 143.334 81.6537L143.335 81.6537ZM143.323 81.8134C144.025 81.8012 144.682 82.1108 144.773 82.4181C143.96 83.2762 142.661 83.2017 141.848 82.5778C142.204 82.0318 142.776 81.8229 143.323 81.8134V81.8134Z" fill="#843511"/>
    <path d="M143.43 83.1187C143.834 83.1187 144.162 82.8044 144.162 82.4167C144.162 82.0289 143.834 81.7146 143.43 81.7146C143.026 81.7146 142.698 82.0289 142.698 82.4167C142.698 82.8044 143.026 83.1187 143.43 83.1187Z" fill="#85340A"/>
    <path d="M141.432 82.8877C142.815 83.902 144.197 83.8239 145.01 83.3557C145.823 82.8877 145.823 82.7319 145.661 82.7319C145.498 82.7319 145.336 82.8877 144.685 83.1996C144.034 83.5121 143.059 83.5121 141.433 82.8878L141.432 82.8877Z" fill="#85340A"/>
</svg>
