<svg width="250" height="157" viewBox="0 0 250 157" fill="none" xmlns="http://www.w3.org/2000/svg">
  <g clip-path="url(#clip0_2_329)">
    <path d="M0 0H250V157H0V0Z" fill="#012169"/>
    <path fill-rule="evenodd" clip-rule="evenodd" d="M0 0H156.25V65.4167H0V0Z" fill="#012169"/>
    <path fill-rule="evenodd" clip-rule="evenodd" d="M161.289 101.036C161.068 101.02 160.846 101.02 160.625 101.036C159.453 101.232 157.656 104.732 156.719 106.793C155.117 108.559 154.297 109.933 153.672 110.947C153.398 111.339 153.008 111.797 153.125 112.32C150.781 112.844 150.664 114.741 150.664 115.46C150.664 116.278 150.937 116.671 150.937 116.671L152.344 119.124V119.156C153.828 122.1 156.016 125.993 157.305 126.287C159.023 126.778 163.555 125.208 166.992 122.46C173.58 125.035 180.639 126.38 187.773 126.418C195.742 126.418 202.891 124.619 208.477 122.46C211.914 125.208 216.445 126.778 218.242 126.287C219.414 125.96 221.641 122.035 223.164 119.156L224.531 116.671C224.531 116.671 224.805 116.278 224.805 115.493C224.805 114.774 224.687 112.876 222.344 112.353C222.461 111.83 222.109 111.372 221.836 110.947C221.172 109.9 220.352 108.526 218.828 106.695C217.812 104.667 216.016 101.232 214.922 101.069C213.281 100.807 209.844 101.559 209.844 101.854V101.985L202.93 108.068C202.93 108.232 203.281 112.648 204.609 116.573C199.182 118.391 193.457 119.298 187.695 119.255C181.055 119.255 175.391 118.143 170.82 116.54C171.684 113.766 172.247 110.916 172.5 108.036L165.625 101.985V101.854C165.625 101.625 162.969 101.036 161.289 101.036V101.036ZM163.008 108.559C163.906 108.559 164.805 109.279 165.547 109.998L165.508 110.423C165.227 111.558 164.862 112.673 164.414 113.76C162.712 112.836 161.115 111.751 159.648 110.521C160.391 109.769 161.602 108.755 162.852 108.624H163.008V108.559ZM212.461 108.559H212.617C213.906 108.755 215.078 109.769 215.859 110.521C214.382 111.765 212.772 112.861 211.055 113.792C210.605 112.695 210.24 111.569 209.961 110.423C209.929 110.283 209.903 110.141 209.883 109.998C210.664 109.246 211.563 108.592 212.461 108.592V108.559ZM156.836 117.194C157.773 117.848 158.945 118.633 160.391 119.418C160.008 119.657 159.585 119.834 159.141 119.941C158.516 120.072 157.93 120.04 157.305 119.941C157.064 119.356 156.932 118.737 156.914 118.11C156.881 117.805 156.855 117.5 156.836 117.194V117.194ZM218.633 117.194L218.594 118.11C218.57 118.726 218.438 119.334 218.203 119.909C217.674 120.029 217.124 120.048 216.587 119.963C216.05 119.879 215.536 119.693 215.078 119.418C216.523 118.633 217.734 117.848 218.633 117.194Z" fill="url(#paint0_linear_2_329)" stroke="white" stroke-width="10"/>
    <path fill-rule="evenodd" clip-rule="evenodd" d="M166.484 111.077C166.484 111.077 164.102 107.447 162.148 107.741C160.156 107.97 158.242 110.292 158.164 110.423C157.059 109.511 156.075 108.467 155.234 107.316C155.352 107.185 158.281 100.48 159.922 100.186C161.484 99.8912 164.883 100.676 164.883 100.938L166.484 111.077Z" fill="url(#paint1_linear_2_329)" stroke="black" stroke-width="1.2"/>
    <path fill-rule="evenodd" clip-rule="evenodd" d="M171.797 107.185C171.797 107.447 170.937 117.063 167.539 120.399C164.18 123.768 158.555 125.829 156.523 125.338C154.57 124.815 150.078 115.101 150.078 115.101C150.078 115.101 154.844 119.745 158.398 118.96C161.953 118.208 164.102 112.386 164.766 109.507C165.43 106.695 164.883 101.101 164.883 101.101L171.836 107.185H171.797Z" fill="url(#paint2_linear_2_329)" stroke="black" stroke-width="1.2"/>
    <path fill-rule="evenodd" clip-rule="evenodd" d="M208.164 111.077C208.164 111.077 210.586 107.447 212.539 107.741C214.492 107.97 216.367 110.292 216.523 110.423C217.628 109.511 218.612 108.467 219.453 107.316C219.297 107.185 216.367 100.48 214.766 100.186C213.164 99.8912 209.766 100.676 209.766 100.938L208.164 111.077Z" fill="url(#paint3_linear_2_329)" stroke="black" stroke-width="1.2"/>
    <path fill-rule="evenodd" clip-rule="evenodd" d="M202.852 107.185C202.852 107.447 203.711 117.063 207.109 120.399C210.508 123.768 216.094 125.829 218.125 125.338C220.078 124.815 224.609 115.101 224.609 115.101C224.609 115.101 219.805 119.745 216.25 118.96C212.734 118.208 210.586 112.386 209.922 109.507C209.219 106.695 209.766 101.101 209.766 101.101L202.812 107.185H202.852Z" fill="url(#paint4_linear_2_329)" stroke="black" stroke-width="1.2"/>
    <path fill-rule="evenodd" clip-rule="evenodd" d="M156.719 106.695C155.156 108.494 154.336 109.9 153.633 110.947C152.969 111.993 153.398 113.465 154.883 115.526C156.563 117.717 170.117 126.45 187.734 126.45C205.391 126.45 218.906 117.75 220.547 115.526C222.109 113.432 222.5 111.993 221.836 110.947C221.172 109.9 220.313 108.494 218.75 106.695C218.75 109.409 207.539 119.287 187.734 119.287C167.93 119.287 156.719 109.409 156.719 106.695V106.695Z" fill="url(#paint5_linear_2_329)" stroke="black" stroke-width="1.5"/>
    <path fill-rule="evenodd" clip-rule="evenodd" d="M217.852 123.899L220.898 118.96L219.375 117.914C218.984 119.156 217.227 119.582 216.914 121.184C216.641 122.722 218.086 124.259 217.852 123.899Z" fill="url(#paint6_linear_2_329)" stroke="black" stroke-width="1.2"/>
    <path fill-rule="evenodd" clip-rule="evenodd" d="M220.625 122.493C220.625 122.493 221.172 120.269 219.453 120.007C217.734 119.745 216.797 121.25 217.07 120.661C217.305 120.007 218.32 119.353 218.516 117.161C218.633 114.97 218.359 113.792 218.359 113.792C218.359 113.792 219.063 110.947 221.797 111.339C224.609 111.764 224.727 113.825 224.727 114.577C224.74 114.968 224.66 115.357 224.492 115.722L220.625 122.493Z" fill="url(#paint7_linear_2_329)" stroke="black" stroke-width="1.2"/>
    <path d="M210.625 115.035L211.211 115.951L211.602 115.755L211.328 115.101L211.367 115.003L212.031 114.61L213.75 117.456V117.619L213.359 117.848L213.555 118.11L215.195 117.129L215.039 116.867L214.648 117.063H214.531L212.812 114.185L213.438 113.792H213.594L213.984 114.316L214.375 114.087L213.789 113.171L210.664 115.035H210.625ZM206.523 117.227L206.68 117.488L207.031 117.358L207.148 117.39L208.672 120.301L208.633 120.432L208.32 120.628L208.437 120.89L210.039 120.072L209.922 119.811L209.57 119.941H209.414L208.711 118.535L210.391 117.75L211.094 119.058V119.222L210.703 119.418L210.859 119.713L212.5 118.895L212.344 118.633L211.992 118.764L211.875 118.699L210.391 115.82V115.689L210.703 115.493L210.586 115.231L208.984 116.049L209.102 116.311L209.492 116.147L209.609 116.213L210.195 117.39L208.555 118.208L207.93 116.998L208.008 116.867L208.32 116.703L208.164 116.409L206.523 117.227ZM205.586 119.713L205.664 119.974L206.133 119.876L206.289 119.909L206.641 121.119L206.328 121.25C205.352 121.511 204.609 121.086 204.258 120.04C203.945 118.993 204.336 118.208 205.234 117.946C205.413 117.9 205.599 117.889 205.781 117.914L205.898 117.979L206.211 118.535L206.68 118.404L206.406 117.423C205.898 117.423 205.43 117.488 205.039 117.619C203.633 118.044 203.008 119.091 203.359 120.301C203.75 121.511 204.883 122.068 206.172 121.708C206.651 121.563 207.1 121.341 207.5 121.054L207.031 119.713L207.109 119.582L207.461 119.451L207.344 119.156L205.586 119.713ZM201.797 123.081L203.633 122.525L203.516 122.231L203.125 122.296L203.008 122.264L201.992 119.124L202.031 119.026L202.422 118.862L202.344 118.6L200.508 119.124L200.625 119.418L201.016 119.32L201.172 119.385L202.148 122.493L202.07 122.624L201.68 122.754L201.797 123.049V123.081ZM191.836 124.586L195.078 124.324L194.961 123.212L194.57 123.245L194.492 123.899L194.414 123.997L193.047 124.128L192.891 122.525L193.672 122.46L193.789 122.558L193.867 122.983H194.258L194.102 121.544H193.711V122.002L193.633 122.133L192.852 122.166L192.695 120.726L193.906 120.628L193.984 120.694L194.141 121.25L194.57 121.217L194.492 120.236L191.445 120.498V120.792H191.836L191.953 120.89L192.227 124.128L192.188 124.226L191.797 124.292V124.619L191.836 124.586ZM186.992 120.563V120.89H187.383L187.461 120.988L187.5 124.226L187.422 124.324L187.07 124.39V124.651H188.789V124.357H188.398L188.32 124.226V122.656H190.039V124.161L189.961 124.259L189.609 124.292V124.619H191.328V124.292H190.938L190.898 124.161L190.82 120.89L190.898 120.792H191.289V120.465H189.531V120.792L189.922 120.825L190 120.923V122.231L188.32 122.264L188.242 120.955L188.359 120.857H188.711V120.53L186.992 120.563ZM183.32 120.465V121.544H183.711L183.828 120.89L183.906 120.792H184.648V124.128L184.531 124.259H184.141V124.586H185.938V124.292L185.547 124.259L185.43 124.128L185.469 120.857H186.172L186.289 120.923L186.406 121.577H186.797V120.498L183.32 120.465ZM177.734 123.932L180.859 124.063L180.938 122.983H180.547L180.43 123.605L180.352 123.67L178.984 123.638L179.063 122.002L179.805 122.068L179.883 122.166L179.961 122.624H180.273L180.352 121.217H180L179.922 121.61L179.844 121.708H179.063L179.141 120.203L180.313 120.269L180.391 120.334L180.43 120.89H180.859V119.941L177.93 119.811V120.105L178.32 120.17L178.359 120.269L178.203 123.507L178.125 123.605H177.734V123.899V123.932ZM170.469 122.166L172.188 122.689L172.266 122.427L171.875 122.264V122.133L172.852 119.026L172.969 118.96L173.359 119.058L173.438 118.797L171.758 118.241L171.68 118.535L172.031 118.666L172.109 118.797L171.055 121.871L170.977 121.969L170.586 121.871L170.469 122.166ZM167.5 121.086C167.803 121.316 168.147 121.493 168.516 121.61C169.453 121.871 170.195 121.544 170.391 120.89C170.447 120.713 170.459 120.525 170.425 120.343C170.391 120.161 170.312 119.989 170.195 119.843L169.492 119.189C169.258 118.895 169.18 118.666 169.258 118.371C169.375 118.077 169.688 117.914 170.117 118.044C170.273 118.11 170.43 118.175 170.508 118.273V118.371L170.43 119.026L170.82 119.124L171.133 118.208C170.846 117.968 170.515 117.779 170.156 117.652C169.375 117.39 168.672 117.75 168.438 118.371C168.392 118.526 168.383 118.687 168.41 118.845C168.437 119.002 168.499 119.153 168.594 119.287C168.75 119.614 168.984 119.778 169.18 119.941C169.531 120.269 169.648 120.596 169.57 120.89C169.453 121.217 169.102 121.381 168.633 121.217C168.462 121.156 168.303 121.068 168.164 120.955L168.125 120.857L168.281 120.138L167.852 120.007L167.5 121.086ZM163.672 119.582L166.563 120.89L167.031 119.909L166.641 119.745L166.289 120.301L166.172 120.334L164.961 119.745L165.664 118.339L166.367 118.666V118.764L166.25 119.189L166.563 119.353L167.188 118.044L166.875 117.914L166.602 118.273L166.484 118.339L165.82 118.012L166.445 116.703L167.5 117.194L167.539 117.292L167.383 117.815L167.773 117.979L168.164 117.129L165.508 115.853L165.352 116.115L165.664 116.311L165.703 116.442L164.297 119.385H164.18L163.828 119.287L163.672 119.582ZM163.242 114.675L161.797 113.727L161.602 113.989L161.875 114.218L161.914 114.348L160.117 117.03L159.961 117.063L159.688 116.9L159.492 117.161L160.898 118.077C161.445 118.404 161.875 118.568 162.305 118.535C162.93 118.47 163.477 118.143 163.867 117.554C164.57 116.442 164.375 115.395 163.242 114.675V114.675ZM162.617 114.675L162.93 114.872C163.711 115.362 163.789 116.082 163.125 117.03C162.461 118.012 161.758 118.208 161.016 117.685L160.703 117.554L162.656 114.708L162.617 114.675ZM174.063 118.928L174.023 119.189L174.375 119.287L174.414 119.418L173.75 122.591L173.633 122.656H173.242V122.918L174.844 123.245L174.922 122.983L174.531 122.853L174.492 122.754L174.766 121.413H174.883C175.469 121.544 175.586 121.839 175.586 122.46C175.625 122.754 175.625 123.016 175.898 123.343C176.016 123.474 176.172 123.605 176.445 123.638C176.639 123.673 176.834 123.695 177.031 123.703L177.07 123.441H177.031C176.641 123.343 176.445 123.212 176.445 122.853C176.367 122.525 176.445 122.198 176.289 121.871C176.184 121.667 176.004 121.504 175.781 121.413C176.445 121.413 176.836 121.119 176.953 120.596C177.109 119.941 176.758 119.451 175.82 119.287L174.102 118.928H174.063ZM175.234 119.484L175.469 119.549C176.016 119.68 176.25 120.007 176.133 120.498C176.016 121.054 175.664 121.25 175.039 121.086L174.844 121.054L175.195 119.484H175.234ZM196.406 119.811L196.445 120.138H196.836L196.953 120.203L197.5 123.409L197.422 123.507L197.031 123.605L197.109 123.866L198.867 123.605V123.278L198.438 123.343L198.32 123.245L198.086 121.937H198.203C198.828 121.773 199.063 122.002 199.375 122.558C199.492 122.82 199.57 123.081 199.961 123.278C200.117 123.376 200.352 123.409 200.664 123.376C200.876 123.335 201.085 123.28 201.289 123.212L201.25 122.918H201.172C200.742 123.016 200.508 122.918 200.312 122.624C200.156 122.362 200.039 122.035 199.805 121.806C199.648 121.642 199.414 121.544 199.102 121.544C199.766 121.283 200.078 120.89 200 120.334C199.883 119.68 199.336 119.353 198.359 119.516L196.406 119.811ZM197.773 119.974H198.047C198.672 119.843 199.023 120.04 199.141 120.563C199.219 121.086 198.945 121.413 198.281 121.544H198.047L197.734 119.974H197.773Z" fill="black"/>
    <path fill-rule="evenodd" clip-rule="evenodd" d="M156.836 123.899L153.789 118.96L155.312 117.914C155.703 119.156 157.461 119.582 157.773 121.184C158.047 122.722 156.602 124.259 156.836 123.899Z" fill="url(#paint8_linear_2_329)" stroke="black" stroke-width="1.2"/>
    <path fill-rule="evenodd" clip-rule="evenodd" d="M154.023 122.493C154.023 122.493 153.477 120.269 155.195 120.007C156.914 119.745 157.852 121.25 157.617 120.661C157.344 120.007 156.328 119.353 156.172 117.161C156.016 114.97 156.289 113.792 156.289 113.792C156.289 113.792 155.625 110.947 152.852 111.339C150.078 111.764 149.922 113.825 149.922 114.577C149.922 115.297 150.195 115.722 150.195 115.722L154.023 122.493Z" fill="url(#paint9_linear_2_329)" stroke="black" stroke-width="1.2"/>
    <path fill-rule="evenodd" clip-rule="evenodd" d="M187.695 116.474C187.695 116.474 155.664 107.643 155.898 74.1498L156.133 29.7973H219.141L219.375 73.8881C219.57 107.381 187.578 116.442 187.578 116.442L187.695 116.474Z" fill="#0072C4" stroke="white" stroke-width="3.9"/>
    <path fill-rule="evenodd" clip-rule="evenodd" d="M160.273 40.4275L161.055 39.7733C161.562 39.5117 161.992 39.2173 162.5 38.9883C162.891 38.7921 163.672 38.6285 163.945 38.465C164.401 38.2419 164.801 37.9295 165.117 37.5492C165.195 36.9931 165.313 36.5679 165.313 35.9137C165.82 35.5867 166.25 35.3904 166.719 35.2596C167.383 35.0633 167.5 34.8017 168.203 34.7035C168.594 34.5727 169.297 34.5727 169.922 34.5727C170.547 34.5727 170.977 35.0306 171.563 35.096C172.266 35.3577 172.578 35.5539 173.164 36.0119C173.437 36.4044 173.672 36.7314 174.18 36.9931C174.609 37.1894 175.039 37.5164 175.508 37.6473C176.094 37.9417 176.563 38.1052 176.992 38.5631C177.383 38.8248 177.539 39.2173 177.891 39.4462C178.307 39.7842 178.751 40.0904 179.219 40.3621C179.805 40.7219 180.391 41.0162 181.25 40.9181C181.758 40.9181 182.266 40.82 182.813 40.9181C183.516 40.9181 184.141 40.9181 184.687 41.0817C185.391 41.0817 185.938 41.1471 186.563 41.2125C187.148 41.2779 187.734 41.3106 188.398 41.3106C188.984 41.4742 189.57 41.4414 190.273 41.4414H193.984C194.648 41.4414 195.312 41.4742 195.82 41.5723C196.435 41.565 197.048 41.5213 197.656 41.4414C198.398 41.4414 198.945 41.3433 199.609 41.3106H201.875C202.461 41.4742 203.203 41.5723 203.594 41.8667C204.141 41.9975 204.375 42.2264 204.922 42.3573C205.312 42.5535 205.938 42.8806 206.25 43.2731C206.668 43.7071 207.022 44.191 207.305 44.7123C207.695 45.2029 207.813 45.7916 208.086 46.4131C208.242 47.0019 208.359 47.5579 208.359 48.2121C208.516 48.7681 208.477 49.3896 208.477 50.0437C208.359 50.6325 208.32 51.2867 208.086 51.8427C208.086 52.4969 207.93 53.0529 207.813 53.5435C207.734 54.0669 207.578 54.4266 207.539 55.0808V56.9125C207.539 57.5012 207.383 57.9592 207.305 58.5806C206.953 59.2177 206.64 59.8729 206.367 60.5431C205.949 60.8288 205.592 61.1836 205.312 61.5898C205.039 61.7533 204.883 62.015 204.922 62.1131C205.469 62.2766 205.312 62.6364 205.312 63.2579L205.586 64.9587C205.625 65.6129 205.781 65.94 205.977 66.3979C206.211 66.6596 206.25 66.5287 205.703 66.5287C205.312 66.7904 204.922 66.6596 204.805 66.1362C204.503 65.7045 204.316 65.211 204.258 64.6971C204.18 64.1083 204.063 63.5196 203.867 63.1271C203.789 62.4075 203.594 62.4075 202.813 62.3421C202.422 62.0477 201.953 61.9823 201.25 61.9823C200.469 61.9823 200.469 61.9169 200.469 62.6364V64.4681C200.313 64.9914 200.078 65.3839 199.883 65.8746C199.492 66.1362 199.336 66.5942 198.828 66.9212C198.633 67.51 198.281 67.5754 197.656 67.7062L196.875 66.7904C197.266 66.2016 197.539 66.1362 197.773 65.4821C198.086 64.9587 198.242 64.6316 198.438 64.1737C198.164 63.7812 197.93 63.585 197.656 63.0289C197.379 62.5738 197.156 62.0911 196.992 61.5898C196.562 61.4589 195.859 61.4262 195.547 61.1973C194.883 61.0664 194.727 61.7533 193.984 61.7533H192.109C191.289 61.7533 191.094 62.1458 190.391 62.1131C190.195 62.1785 189.688 62.1131 188.945 62.1131C188.359 62.3094 187.695 62.2439 187.07 62.2439C186.406 62.2439 185.898 62.0804 185.352 61.9823C184.766 61.8187 184.18 61.6552 183.516 61.5898C182.734 61.5898 182.461 61.6552 181.953 61.9823C181.562 62.2112 180.938 62.7346 180.508 63.0289C180.313 63.4541 180.195 64.1737 179.922 64.6971C179.805 65.2531 179.57 65.5475 179.453 66.0054C179.232 66.5052 179.1 67.0356 179.062 67.5754C178.984 68.4258 178.789 68.3277 178.242 68.0987C178.008 67.7062 177.656 67.3464 177.461 66.9212C177.539 66.2671 177.734 65.94 177.734 65.2531C177.578 64.6971 177.305 64.7625 176.953 65.0896C176.953 65.7764 176.953 66.2998 176.641 66.6596C176.587 66.8693 176.491 67.0668 176.356 67.2408C176.222 67.4149 176.053 67.5619 175.859 67.6735C175.664 68.1641 175.234 68.4258 174.805 68.5894C174.727 68.5894 174.805 68.4258 174.805 68.066C174.492 67.51 174.805 66.9867 174.805 66.2671C174.805 65.6129 174.727 65.1877 174.961 64.5989C174.961 63.9448 174.648 63.356 174.57 62.8981C174.297 62.4075 174.141 62.1785 173.477 61.9823C173.008 61.786 172.305 61.5898 172.031 61.1646C171.725 60.7673 171.305 60.461 170.82 60.2814C170.234 60.0852 169.922 59.8889 169.492 59.6273C169.102 59.2021 168.75 59.0385 168.594 58.4825C168.32 58.09 168.281 57.3377 168.086 56.7817C168.031 56.255 167.899 55.7378 167.695 55.2444C167.634 54.7079 167.503 54.1805 167.305 53.6744L166.875 51.9735C166.875 51.3521 166.875 50.7306 166.719 50.1746V48.3429C166.641 47.7869 166.602 47.0346 166.484 46.6421C166.484 45.9552 166.367 45.5627 166.172 45.0721C165.898 44.6142 165.898 44.4179 165.391 44.3198C165.078 44.7123 164.531 44.9085 163.828 44.9739C163.359 44.8758 162.656 44.7777 162.109 44.5814C161.563 44.4506 161.25 44.2544 160.82 44.0254C160.566 43.6848 160.292 43.3572 160 43.0442C159.922 42.3573 159.766 41.9975 159.727 41.3106C159.727 40.82 159.727 41.1144 160.273 40.4275V40.4275Z" fill="#BCBCBC"/>
    <path fill-rule="evenodd" clip-rule="evenodd" d="M168.086 45.1375L168.203 45.0067C167.969 45.2356 168.047 45.1048 168.594 44.9085C168.828 44.7777 169.375 44.4506 169.57 44.2544C169.805 44.1562 170.234 44.0254 170.43 43.8292C170.664 43.5675 170.938 43.3385 171.289 43.1096C171.641 42.7825 171.953 42.6844 172.383 42.4554C172.891 42.39 173.125 42.1937 173.594 42.3573C174.063 42.4554 174.258 42.4554 174.609 42.0629C175 41.8667 175.43 41.605 175.586 41.2779V40.6892C175.586 41.2779 175.43 41.5069 175 41.6704C174.727 42.0302 174.297 42.39 174.141 42.7171C173.867 43.1096 173.789 43.3385 173.516 43.5348C173.242 43.8292 172.852 43.9927 172.734 44.4506C172.891 44.6796 172.734 44.7777 173.047 44.8104C173.32 45.0394 173.594 44.9412 173.984 44.8104C174.295 44.4926 174.546 44.1277 174.727 43.731L175.391 42.7825C175.703 42.5862 175.898 42.4227 176.016 42.0629C176.406 41.8667 176.719 41.6377 176.992 41.4087C177.266 41.2779 177.383 41.1144 177.773 41.0489C177.802 41.4063 177.705 41.7626 177.5 42.0629C177.422 42.5862 177.461 42.8152 177.617 43.1423C177.891 43.3385 177.852 43.4694 178.008 43.7964C178.164 43.4694 178.242 42.9133 178.281 42.5208V42.4554C178.281 42.8152 178.281 43.3712 178.164 43.6329C178.164 44.1562 178.32 44.4179 178.477 44.8104C178.594 45.0394 178.75 45.1375 178.906 45.2683C178.906 44.745 179.102 44.4179 179.141 43.9273L179.297 45.2029C179.297 45.6281 179.492 45.9552 179.688 46.2823C179.883 46.4131 179.961 46.7729 180.039 46.4785C180.273 45.8244 180.273 45.1702 180.43 44.4506C180.43 44.1235 180.43 43.6002 180.625 43.3712L180.391 44.4506C180.43 44.1235 180.469 43.6329 180.625 43.3712V43.2404C180.729 43.7368 180.794 44.2397 180.82 44.745C180.82 45.1375 180.781 45.53 180.898 45.9225C181.172 45.7917 181.367 45.4646 181.562 45.1048C181.764 44.7387 182.013 44.398 182.305 44.0908L181.523 45.0721C181.739 44.7154 182.002 44.3857 182.305 44.0908V44.0254C182.253 44.438 182.227 44.8529 182.227 45.2683C182.227 45.6935 182.227 46.1842 182.305 46.4785C182.422 46.9692 182.539 47.0346 182.578 47.5579C182.578 47.8196 182.539 48.1139 182.656 48.2121C183.047 48.3102 183.047 48.1139 183.125 47.5579C183.125 47.0019 183.281 46.5767 183.32 46.0206C183.32 45.3337 183.398 46.1187 183.516 46.3477C183.686 46.7428 183.779 47.164 183.789 47.5906C183.789 47.8523 183.789 48.1139 183.867 48.2448C184.258 48.0812 184.375 47.6887 184.648 47.4925C184.805 47.0346 185.039 46.8383 185.195 46.5767C185.664 46.4785 185.664 46.2823 185.664 45.7589C185.664 45.301 185.625 44.8431 185.781 44.4506C185.923 44.0538 186.04 43.6498 186.133 43.2404C186.289 43.175 186.484 43.4039 186.602 43.6329C186.797 43.9273 186.758 44.3525 186.758 44.8104C186.875 45.2356 187.031 45.53 187.266 45.9225C187.429 46.2528 187.639 46.5609 187.891 46.8383C188.008 47.1327 188.008 47.656 188.008 48.0485C188.398 47.656 188.398 47.0673 188.438 46.4785C188.398 46.086 188.398 45.5627 188.281 45.1702C188.281 44.7777 188.164 44.3852 188.086 44.0908C187.813 43.96 187.695 43.8292 188.008 43.4367C188.281 43.2077 188.633 43.3058 189.102 43.3712C189.375 43.6002 189.453 43.731 189.492 44.2871C189.492 44.7777 189.492 45.1375 189.688 45.4646C189.844 45.7262 190.039 45.9225 190.156 46.3804C190.273 46.5112 190.391 46.7075 190.586 46.4785C190.703 46.2169 190.781 45.6935 190.898 45.3664C190.977 45.0394 191.133 44.8431 191.328 44.7123C191.328 45.2356 191.328 45.53 191.562 45.9225L191.992 46.9364C192.188 47.0673 192.227 47.3617 192.5 47.4925L192.578 46.0206V44.7123C192.578 44.3198 192.734 44.0581 192.852 43.731C193.164 44.0908 193.164 44.2217 193.164 44.7123C193.438 44.6142 193.477 44.3852 193.594 44.0908C193.789 43.8946 193.906 43.8292 193.984 44.2871C194.023 44.7777 194.141 45.2029 194.258 45.6608C194.453 45.8571 194.648 46.3804 194.883 46.5767C195.049 46.8462 195.246 47.0984 195.469 47.3289C195.625 47.5906 195.625 47.7869 196.055 47.8523C196.055 47.2308 196.055 46.6094 195.938 46.0206C195.938 45.4973 195.82 45.301 195.742 44.8104C195.586 44.516 195.508 44.0254 195.547 43.8946C195.923 44.1961 196.217 44.5772 196.406 45.0067L196.992 46.2169C197.26 46.4982 197.496 46.8051 197.695 47.1327C198.047 47.3944 198.203 47.6887 198.555 47.9504C198.711 48.1139 199.141 48.2121 199.219 48.1139C199.219 47.5906 199.102 47.1327 198.945 46.6748C198.938 46.2859 198.831 45.9044 198.633 45.5627C198.242 45.2683 197.969 45.0721 197.773 44.6469C197.656 44.516 197.656 44.4506 197.617 44.1889C198.116 44.5599 198.562 44.9885 198.945 45.4646C199.129 45.7398 199.385 45.9651 199.688 46.1187C199.844 46.315 200.391 46.5767 200.781 46.6421C201.013 46.9264 201.346 47.1235 201.719 47.1981L200.781 46.6748C201.019 46.9469 201.351 47.1321 201.719 47.1981V47.3289C201.661 46.7945 201.474 46.2797 201.172 45.8244C200.986 45.4292 200.689 45.0897 200.312 44.8431C200.076 44.503 199.754 44.2223 199.375 44.0254C199.141 43.731 198.75 43.2404 198.516 43.1096C198.945 42.8152 199.414 43.2404 199.844 43.4367C200.234 43.8292 200.547 44.3198 200.781 44.5487C201.001 44.9905 201.291 45.3985 201.641 45.7589C202.031 45.9879 202.305 46.1842 202.656 46.4785C203.203 46.6094 203.008 46.4458 202.852 46.0206C202.656 45.4973 202.852 45.4973 203.242 45.8244C203.477 46.0206 203.789 46.2823 204.18 46.4785C204.297 46.6748 204.57 46.8056 204.805 46.6748C204.922 46.5439 204.922 46.5439 204.922 46.4131C204.727 45.8244 204.531 45.3664 204.063 45.2029C203.867 44.9085 203.477 44.6469 203.203 44.3852C203.008 44.1235 202.812 43.96 202.656 43.6329L203.203 44.3525C203.008 44.0908 202.812 43.96 202.656 43.6329H202.578C203.125 43.6329 203.359 43.7964 203.75 44.0254C204.098 44.1612 204.396 44.3884 204.609 44.6796C204.805 44.8758 205.078 45.1048 205.273 45.3664L206.211 46.0206C206.523 46.4131 206.602 46.6748 206.602 47.1981C206.758 47.4925 206.797 48.0158 206.875 48.3102C206.797 48.8335 206.602 48.4083 206.562 48.1139C206.523 47.7214 206.328 47.7542 206.016 47.8523C206.016 48.4083 206.094 48.5719 206.289 48.9644C206.248 49.2907 206.128 49.604 205.938 49.8802C205.703 50.011 205.664 49.6185 205.469 49.4223C205.469 48.8662 205.273 48.7681 204.883 48.5064V48.8662C205.117 49.2587 205.352 49.6185 205.352 50.1419C205.511 50.5275 205.591 50.9383 205.586 51.3521C205.586 51.81 205.586 52.2352 205.469 52.6604C205.469 53.1183 205.352 53.3146 205.352 53.8379V56.4219C205.287 56.8112 205.26 57.2054 205.273 57.5994L205.352 56.4219C205.273 56.7489 205.273 57.1414 205.273 57.5994V57.6648C205.117 57.2069 204.883 56.8144 204.805 56.3564C204.527 56.0741 204.314 55.7399 204.18 55.3752C204.063 54.9827 204.063 54.5248 203.984 54.1977C203.828 53.8706 203.672 53.5435 203.398 53.7398C203.281 54.3939 203.398 54.8192 203.672 55.4733C203.828 55.8985 203.828 56.291 203.984 56.6835C204.18 57.1742 204.375 57.2069 203.984 57.7629C203.75 58.09 203.672 58.1554 203.594 58.5152C203.242 58.6787 203.164 58.7769 203.125 59.1694C203.008 58.8096 202.734 58.3844 202.578 57.9592C202.383 57.5012 202.188 57.0433 202.109 56.6508C201.875 56.3564 201.602 55.8658 201.328 55.6696L200.625 54.5902C200.234 54.165 200.156 53.936 199.844 53.7398C199.805 53.5762 199.688 53.3146 199.453 53.4781C199.453 53.9033 199.453 54.3612 199.57 54.7537C199.688 55.2771 199.844 55.5714 199.883 56.1275V57.1087C199.648 56.5854 199.375 56.1602 199.219 55.6696C198.984 55.3752 198.789 54.8519 198.555 54.6883C198.398 54.2958 198.281 54.0014 198.086 53.7398C198.047 53.4781 197.891 53.4781 197.773 53.2819C197.773 53.8052 197.969 54.0014 198.086 54.3612C198.281 54.7537 198.32 55.3098 198.281 55.506C198.047 54.8519 197.813 54.165 197.5 53.5435C197.228 53.1563 196.993 52.7516 196.797 52.3333C196.484 52.0389 196.211 52.0062 195.938 51.81C195.68 51.712 195.452 51.5547 195.273 51.3521C195.352 51.8427 195.547 52.1698 195.664 52.5296C195.742 52.9875 195.937 53.38 196.016 53.7398C195.937 54.3939 195.781 53.5762 195.625 53.2819C195.547 52.7585 195.352 52.4969 195.195 52.2025C194.922 52.0062 194.688 51.7119 194.414 51.5483C194.141 51.4502 194.258 51.5483 194.258 51.8754C194.258 52.4642 194.258 52.8567 194.453 53.1837C194.648 53.4454 194.648 53.8052 194.648 54.2958C194.609 54.7537 194.531 55.0808 194.531 55.6042V56.291C194.336 55.9312 194.141 55.6696 193.945 55.2117C193.672 54.7864 193.555 54.4594 193.32 54.0014C193.125 53.936 192.734 53.8706 192.539 54.0014C192.617 54.4594 192.813 54.6556 192.852 55.2117C192.461 55.5387 192.539 55.6696 192.305 55.1135C192.07 54.6883 191.836 54.721 191.523 54.4594C191.055 54.4267 191.211 54.1323 191.094 53.7071C191.094 53.38 191.094 53.0529 190.977 52.7258C190.469 52.7258 190.195 52.7258 189.844 52.9875C189.727 53.2492 189.766 53.8052 189.844 54.1977V55.4733C189.727 55.8004 189.57 55.8004 189.453 56.2256C189.297 56.5854 189.258 57.0433 189.102 57.305C188.75 57.5994 188.906 57.6321 188.711 57.1414V54.1977C188.711 53.7071 188.828 53.4454 188.828 52.9875C188.633 52.6277 188.594 52.5296 187.969 52.5296C187.882 52.8306 187.882 53.1444 187.969 53.4454C187.969 53.9033 188.008 54.3285 188.086 54.6556L188.164 55.8331C188.164 56.3237 188.047 56.7162 187.773 56.9125C187.461 57.0433 187.773 57.2396 187.422 57.3377C187.052 57.1665 186.709 56.9462 186.406 56.6835C186.016 56.5854 185.703 56.4873 185.195 56.4873C184.57 56.4873 184.57 56.4219 184.336 55.9639C184.157 55.4747 184.026 54.9711 183.945 54.4594C183.75 54.0342 183.711 53.7398 183.555 53.2492C183.434 52.9906 183.246 52.7655 183.008 52.595C182.891 53.1183 182.773 53.4781 182.773 54.0014C182.656 54.2304 182.617 54.7864 182.539 54.9827C182.383 54.7537 182.305 54.1977 182.148 53.8379C182.031 53.2819 181.875 52.9221 181.25 53.1183C180.625 53.1183 180.625 53.1183 180.625 53.7725L181.367 54.8192V56.1275C181.367 56.6508 181.367 56.8144 180.977 56.9125C180.82 56.3892 180.508 55.8331 180.117 55.3752C180.117 55.0154 179.961 55.1135 179.57 55.1135C179.336 55.1135 179.063 55.0808 178.906 55.2117V55.9967C178.711 56.0621 178.633 55.9967 178.477 55.8331C178.281 56.1275 178.398 56.4873 178.477 56.8144C178.393 57.1832 178.235 57.5372 178.008 57.861C177.93 57.7302 177.852 57.7956 178.008 57.7956C177.344 57.5339 176.836 57.4031 176.289 57.2396C176.016 57.2396 175.742 57.5667 175.586 57.7956C175.078 57.9264 174.883 58.0573 174.336 58.0573L173.164 58.1227C172.773 58.2208 172.383 58.2535 171.914 58.2535C171.68 58.1554 171.211 58.1554 171.094 58.0573C171.289 57.7956 171.484 57.6648 171.641 57.2396C171.922 57.0443 172.183 56.8254 172.422 56.5854L173.125 55.8331C173.281 55.3752 173.516 55.3098 173.789 55.1135C174.375 55.1135 174.453 55.3098 175 55.3752C175.547 55.5714 175.859 55.6696 176.172 55.2771C176.563 55.1135 176.953 54.8192 177.422 54.7537L178.359 54.1977C178.75 53.9687 178.945 53.7071 179.297 53.4454C179.414 53.0856 179.688 52.7912 179.57 52.366C179.063 52.2352 178.75 52.2679 178.398 52.5296C178.047 52.8567 178.008 52.9875 177.5 53.2492C177.109 53.38 176.953 53.5435 176.484 53.6417C176.094 53.7725 175.625 53.7071 175.195 53.7071C174.766 53.7071 174.219 53.7071 173.984 53.8379C174.375 53.5762 174.883 53.2819 175.273 53.1837C175.664 52.9548 175.82 52.8567 176.328 52.7912C176.563 52.5296 176.758 52.5296 176.875 52.0717C177.031 51.5483 176.484 51.7119 176.094 51.9081C175.742 51.9735 175.313 52.2352 175 52.3333C174.622 52.452 174.227 52.5181 173.828 52.5296C173.672 52.366 173.867 52.2352 173.984 52.0062C174.375 51.8427 174.492 51.7773 174.531 51.3521C174.023 51.4175 173.867 51.581 173.398 51.6137C172.913 51.7234 172.416 51.7892 171.914 51.81H170.625C170.156 51.81 169.922 51.7119 169.375 51.7119C168.984 51.5156 168.984 51.4502 168.984 50.8942C169.297 50.5671 169.57 50.6325 170.156 50.6325L171.172 50.1419C171.523 50.0764 171.719 49.9456 171.641 49.8148H170.352C169.805 49.5858 170.352 49.4877 170.625 49.3242C171.016 49.3242 171.523 49.3242 171.797 49.4877C172.383 49.4877 172.578 49.3242 173.008 48.9644C173.398 48.7027 173.594 48.5064 173.984 48.3102C174.258 48.0158 174.531 47.8523 174.727 47.5906C175.117 47.2635 175.391 47.0346 175.586 46.7402C175.82 46.6094 175.977 46.4785 175.859 46.2823C175.273 46.3477 175 46.5767 174.609 46.8383C174.394 47.0497 174.143 47.2265 173.867 47.3617C173.514 47.6068 173.095 47.7541 172.656 47.7869C172.188 47.7869 171.797 47.6887 171.367 47.656C170.859 47.6233 171.289 47.4925 171.445 47.2962C171.641 47.1981 171.797 46.9037 171.641 46.6421C171.25 46.5439 170.781 46.5767 170.352 46.5767H169.023C168.516 46.5767 168.32 46.4458 167.969 46.2823C167.891 46.0206 167.969 46.1187 168.359 46.1187C168.77 46.0989 169.176 46.033 169.57 45.9225C170 45.8244 170.078 45.6608 170.156 45.2029C169.688 45.2029 169.219 45.2029 168.945 45.1048L168.086 45.1375ZM160 43.0114C159.922 42.3573 159.727 41.9975 159.727 41.3106C159.727 40.82 159.727 41.1144 160.273 40.4275L161.055 39.7733C161.562 39.5117 161.992 39.2173 162.5 38.9883C162.891 38.7921 163.672 38.6285 163.945 38.465C164.401 38.2419 164.801 37.9295 165.117 37.5492C165.195 36.9931 165.273 36.5679 165.273 35.9137C165.82 35.5867 166.25 35.3904 166.719 35.2596C167.383 35.0633 167.5 34.8017 168.203 34.7035C168.594 34.5727 169.297 34.5727 169.922 34.5727C170.547 34.5727 170.977 35.0306 171.563 35.096C172.266 35.3577 172.578 35.5539 173.125 36.0119C173.438 36.4044 173.672 36.7314 174.18 36.9931C174.609 37.1894 175.039 37.5164 175.508 37.6473C175.508 38.1052 175.625 38.0398 175.273 38.0398C175.234 38.5304 175.117 38.465 174.609 38.4977C174.258 38.3208 173.962 38.0616 173.75 37.7454C173.984 37.2875 173.867 38.1379 173.75 38.3014C173.555 38.4977 173.398 38.6939 173.125 38.4977C172.969 38.0398 172.852 37.7454 172.852 37.1894C172.773 36.6333 172.578 37.0258 172.461 37.2875C172.344 37.7781 172.383 37.9417 172.578 38.3014C172.07 38.3014 171.719 38.236 171.367 38.2033C171.016 38.1052 170.586 38.2033 170.195 38.3996C169.727 38.6939 169.922 38.6939 170.117 39.0537C170.547 39.1519 170.898 39.3808 171.289 39.5771L172.578 39.3154C173.008 39.1519 173.438 39.25 173.867 39.3154C174.102 39.4462 174.414 39.4462 174.531 39.5771C174.531 39.8714 174.531 40.1658 174.414 40.3294C174.258 40.4602 174.023 40.7873 173.75 40.8527C173.361 41.073 172.94 41.2384 172.5 41.3433C171.914 41.3433 171.68 41.4742 171.25 41.6704C171.211 42.1937 171.055 42.2919 170.586 42.4554C170.183 42.6344 169.742 42.7239 169.297 42.7171C169.023 42.7171 168.75 42.7171 168.633 42.6189C168.965 42.3091 169.23 41.9427 169.414 41.5396C169.492 41.3106 169.648 41.2125 169.492 41.0489C168.945 41.0489 168.789 41.0489 168.711 41.5723C168.672 42.0956 168.477 42.1937 168.086 42.3573C168.203 41.8994 168.203 41.5396 168.359 41.1471C167.972 41.2101 167.58 41.2429 167.188 41.2452C166.875 41.4087 166.758 41.4742 166.875 41.7685C166.484 41.8994 166.016 41.8339 165.547 41.7685C165.156 41.7685 165.391 41.605 165.078 41.4414C164.883 41.0817 164.688 40.9835 164.219 40.9835C164.023 41.2452 163.672 41.3106 163.438 41.5069C163.008 41.6377 162.734 41.5069 162.383 41.3433C161.914 41.3433 161.992 41.4742 162.109 41.8012C162.305 41.8994 162.109 42.0302 162.383 42.0629C162.656 42.2919 162.891 42.3573 163.398 42.3573C163.789 42.2264 164.258 42.2592 164.727 42.2592C165.195 42.2592 165.117 42.3573 165.117 42.7825C164.805 43.0114 164.336 42.9787 163.867 42.9787C163.48 42.9355 163.099 42.8476 162.734 42.7171C162.344 42.7171 161.953 42.6189 161.641 42.7171C161.484 42.8806 161.055 42.946 161.563 42.9787C161.758 43.175 162.852 43.0769 162.891 43.4039C163.164 43.6656 163.086 44.0254 162.656 44.0254C162.557 43.9666 162.442 43.9354 162.324 43.9354C162.207 43.9354 162.092 43.9666 161.992 44.0254L160.781 44.0581C161.484 44.1235 160.273 43.3385 160 43.0114V43.0114Z" fill="#FEFEFE"/>
    <path fill-rule="evenodd" clip-rule="evenodd" d="M162.93 39.9696L162.383 40.2966L161.25 41.0489C161.055 41.2125 161.055 41.3106 160.82 41.3106C161.211 41.2779 161.445 41.1471 161.836 40.9835C162.305 40.9181 162.773 40.82 163.008 40.591C163.281 40.5256 163.008 40.1658 162.93 39.9369V39.9696ZM167.227 35.6521C167.305 35.6521 167.422 35.9137 167.617 36.11C167.773 36.4371 167.891 36.6987 167.891 37.0912C168.008 36.666 168.203 36.3062 168.281 35.8156C168.125 35.5539 168.125 35.4885 167.695 35.4558C167.695 35.7175 167.773 35.5212 167.227 35.6521Z" fill="#BCBCBC"/>
    <path fill-rule="evenodd" clip-rule="evenodd" d="M164.655 38.8958C164.443 38.8958 164.994 38.6887 165.206 38.6472C165.375 38.3158 165.46 38.1086 165.757 37.9014C166.223 37.9014 166.477 38.0672 166.689 38.3572C167.112 38.4815 167.239 38.6472 167.705 38.7301C167.917 38.8958 168.129 38.8958 167.705 39.0201C167.451 39.1444 167.07 39.1859 166.604 39.1859C166.221 39.2139 165.848 39.3123 165.502 39.4759C164.867 39.4759 164.952 39.4759 164.655 38.8958V38.8958Z" fill="#C4C4C2" stroke="black" stroke-width="1.05487"/>
    <path fill-rule="evenodd" clip-rule="evenodd" d="M168.945 35.7175V35.8156C168.945 35.5539 168.945 35.6848 169.023 36.2081C169.176 36.5491 169.242 36.9184 169.219 37.2875C169.492 37.0701 169.695 36.787 169.805 36.4698C169.805 35.7502 169.648 35.7829 168.945 35.7175ZM172.383 46.2823H172.5C172.188 46.2823 172.383 46.2823 172.852 46.0206C173.164 45.8243 173.438 45.4973 173.867 45.3664C174.223 45.0781 174.634 44.8561 175.078 44.7123C175.313 44.6141 175.508 44.4506 175.742 44.6468C175.703 45.072 175.586 45.301 175.156 45.4645C174.961 45.7262 174.648 45.8898 174.375 45.9879C174.062 46.1514 173.711 46.1514 173.594 46.4785C173.086 46.7075 173.008 46.642 172.422 46.2823H172.383ZM174.18 48.9643C174.297 48.8335 174.922 48.2448 175.195 48.0485C175.454 47.6987 175.771 47.3896 176.133 47.1327C176.406 46.7402 176.758 46.4785 176.992 46.1187L177.734 45.2029C177.734 45.5954 177.656 46.1187 177.813 46.3804C177.832 46.7729 177.723 47.1615 177.5 47.4925C177.305 47.8195 177.109 48.0158 176.641 48.2448C176.25 48.441 176.016 48.5064 175.664 48.7681C175.389 48.9385 175.102 49.0915 174.805 49.226C174.531 49.3241 174.648 49.3241 174.18 48.9643V48.9643ZM171.25 51.0577H171.367C171.094 51.0577 171.211 51.0577 171.758 50.796C172.148 50.4035 172.461 50.24 172.93 50.0764C173.338 50.0569 173.737 49.9566 174.102 49.782C174.297 49.7493 174.492 49.6185 174.609 49.782C174.922 50.1745 175 50.2727 174.531 50.5343C174.254 50.7433 173.936 50.899 173.594 50.9923C173.359 51.1558 172.891 51.1558 172.422 51.2539C172.109 51.2539 171.875 51.2866 171.719 51.0577L172.5 51.2539C172.109 51.2539 171.914 51.2866 171.25 51.0577V51.0577ZM175.273 51.0577V50.9923C175.273 51.2539 175.273 51.1231 175.469 50.5998C175.859 50.0764 175.938 49.782 176.406 49.6839C176.602 49.4223 176.992 49.3568 177.422 49.226C177.617 49.4877 177.461 49.8148 177.422 50.1418C177.305 50.4689 176.992 50.7306 176.758 50.9923C176.484 51.1558 176.367 51.352 175.898 51.4502C175.586 51.4502 175.781 51.4502 175.273 51.0577V51.0577Z" fill="#BCBCBC"/>
    <path fill-rule="evenodd" clip-rule="evenodd" d="M166.133 39.1519C166.133 39.3808 165.938 39.6098 165.664 39.6098C165.391 39.6098 165.195 39.3808 165.195 39.1519C165.195 38.8902 165.43 38.694 165.664 38.694C165.938 38.694 166.133 38.8575 166.133 39.1519Z" fill="black"/>
    <path fill-rule="evenodd" clip-rule="evenodd" d="M167.508 64.1504H167.889C166.703 64.1504 167.423 64.0675 169.372 65.6005C170.219 64.9376 170.219 64.8547 170.854 66.0149C171.278 66.6364 171.363 65.932 171.998 65.2691C172.295 66.5949 172.464 67.9622 173.481 66.7192C174.667 66.7192 175.853 66.6364 176.489 67.0921C177.251 68.4594 176.997 66.8435 177.59 67.465C179.285 67.6308 179.242 66.0563 181.021 65.642C182.123 67.0093 182.631 65.9734 183.987 65.3105C185.046 65.5591 186.02 67.0921 186.232 65.6005C187.079 64.2747 187.122 64.3576 187.715 65.6005C188.562 66.3463 188.901 65.2691 189.579 64.8962C190.85 65.6005 192.248 65.7248 194.069 65.2691C194.408 66.4706 195.171 65.932 195.975 65.6005C197.628 66.3049 198.178 66.5121 200.085 65.6005C201.017 64.5233 200.508 65.642 201.186 66.3463C202.584 65.932 202.203 65.8491 203.812 65.9734C205.465 65.9734 205.592 65.9734 206.058 64.8962C206.905 65.6834 207.159 66.2635 208.303 65.2691C210.082 65.2691 209.531 65.4762 210.548 64.8547C211.353 66.5121 211.522 65.3519 212.454 65.9734C211.93 67.1974 211.007 68.2172 209.828 68.8737C209.108 70.1167 208.642 71.3597 207.201 71.8569C206.142 72.8927 204.999 73.5142 203.812 74.4258C202.203 74.8401 200.423 74.7572 198.602 74.7572H182.843C181.742 75.3373 179.878 75.5859 178.353 75.8759C176.658 75.8759 174.667 75.8759 173.481 75.503C172.676 74.7158 171.278 73.8457 170.516 72.9342C169.668 72.3127 169.668 71.1111 168.991 70.3653C168.397 69.3295 168.143 67.6722 167.508 66.7192V64.1504Z" fill="#005120" stroke="#002B0D" stroke-width="1.56276"/>
    <path fill-rule="evenodd" clip-rule="evenodd" d="M203.813 67.465V67.7965C203.813 66.8021 203.855 67.3407 203.05 69.2881C202.923 69.7438 202.542 69.8681 201.949 70.0339M200.466 68.9152H200.847C199.449 70.1582 198.517 70.7797 198.221 72.2298L200.847 68.9152C199.449 70.1582 198.517 70.7797 198.221 72.2298M195.213 67.0921C195.213 67.0921 195.171 68.3766 194.832 68.9152ZM193.73 69.661V69.9925V69.661ZM190.722 67.465H191.104H190.68C190.85 67.465 190.977 67.465 190.68 67.465H190.722ZM169.753 67.465C169.923 67.465 170.685 68.6252 171.617 69.2881C171.405 70.3653 171.024 71.6083 171.617 72.6027M172.761 69.661C172.93 69.661 173.65 70.8211 174.625 71.484L172.761 69.661C172.93 69.661 173.65 70.8211 174.625 71.484V71.8569C174.625 70.6968 174.54 69.5367 175.006 68.9152C175.43 69.6196 175.938 70.6968 176.107 69.661C178.226 69.5781 179.242 68.9981 180.598 68.5423C180.598 69.0809 180.513 68.8323 181.021 69.2881M206.439 67.7965H206.82C206.1 68.3766 205.549 69.5781 204.956 70.3653M191.104 66.7192H194.069Z" fill="#005120"/>
    <path d="M203.813 67.465V67.7965C203.813 66.8021 203.855 67.3407 203.05 69.2881C202.923 69.7438 202.542 69.8681 201.949 70.0339M200.466 68.9152H200.847C199.449 70.1582 198.517 70.7797 198.221 72.2298L200.847 68.9152C199.449 70.1582 198.517 70.7797 198.221 72.2298M195.213 67.0921C195.213 67.0921 195.171 68.3766 194.832 68.9152M169.753 67.465C169.923 67.465 170.685 68.6252 171.617 69.2881C171.405 70.3653 171.024 71.6083 171.617 72.6027M172.761 69.661C172.93 69.661 173.65 70.8211 174.625 71.484L172.761 69.661ZM172.761 69.661C172.93 69.661 173.65 70.8211 174.625 71.484V71.8569C174.625 70.6968 174.54 69.5367 175.006 68.9152C175.43 69.6196 175.938 70.6968 176.107 69.661C178.226 69.5781 179.242 68.9981 180.598 68.5423C180.598 69.0809 180.513 68.8323 181.021 69.2881M206.439 67.7965H206.82C206.1 68.3766 205.549 69.5781 204.956 70.3653M191.104 66.7192H194.069M193.73 69.661V69.9925V69.661ZM190.722 67.465H191.104H190.68C190.85 67.465 190.977 67.465 190.68 67.465H190.722Z" stroke="#002B0D" stroke-width="1.56276"/>
    <path fill-rule="evenodd" clip-rule="evenodd" d="M166.367 70.0939C161.875 70.0939 160.352 74.5096 155.859 74.5096H155.625V74.7712C155.625 77.8458 155.859 80.6914 156.328 83.3408C160.469 83.0791 161.992 78.9579 166.367 78.9579C170.859 78.9579 172.344 83.3408 176.836 83.3408C181.367 83.3408 182.852 78.9579 187.344 78.9579C191.836 78.9579 193.359 83.3408 197.852 83.3408C202.344 83.3408 203.828 78.9579 208.32 78.9579C212.617 78.9579 214.18 83.0464 218.32 83.3408C218.839 80.4228 219.088 77.468 219.062 74.5096H218.789C214.297 74.5096 212.812 70.1266 208.32 70.1266C203.828 70.1266 202.305 74.5423 197.852 74.5423C193.359 74.5423 191.836 70.1266 187.305 70.1266C182.852 70.1266 181.328 74.5423 176.836 74.5423C172.383 74.5423 170.859 70.1266 166.367 70.1266V70.0939ZM166.367 87.3312C162.852 87.3312 161.211 90.0133 158.477 91.1908C159.377 93.5171 160.501 95.7615 161.836 97.896C163.125 96.9802 164.453 96.1952 166.367 96.1952C170.859 96.1952 172.344 100.611 176.836 100.611C181.367 100.611 182.852 96.1952 187.344 96.1952C191.836 96.1952 193.359 100.611 197.812 100.611C202.266 100.611 203.828 96.1952 208.32 96.1952C209.946 96.251 211.503 96.8279 212.734 97.8306C214.065 95.7056 215.189 93.4724 216.094 91.1581C213.477 89.9479 211.797 87.3312 208.281 87.3312C203.828 87.3312 202.305 91.7468 197.812 91.7468C193.32 91.7468 191.797 87.3312 187.344 87.3312C182.891 87.3312 181.328 91.7468 176.836 91.7468C172.383 91.7468 170.859 87.3312 166.367 87.3312V87.3312ZM187.344 104.569C182.852 104.569 181.328 108.984 176.836 108.984C172.578 108.984 171.016 105.059 167.07 104.601C171.295 109.005 176.511 112.673 182.422 115.395C183.828 114.348 185.273 116.572 187.305 116.572C189.375 116.572 190.82 114.316 192.188 115.33C197.941 112.705 203.111 109.075 207.422 104.634C203.594 105.19 201.953 108.984 197.812 108.984C193.32 108.984 191.836 104.569 187.344 104.569V104.569Z" fill="white"/>
    <path d="M159.477 87.7484C160.933 87.2642 162.412 86.851 163.91 86.5103L170.791 92.9899L165.134 94.1042L159.477 87.7484Z" stroke="#512007" stroke-width="0.583904"/>
    <path d="M173.051 98.3234C173.159 96.8192 176.202 88.1865 176.202 88.1865M174.09 98.4215L176.488 88.2519M174.913 98.4542L176.918 88.2519M173.159 97.0808C173.696 96.8192 175.235 96.4268 175.235 96.4268M173.911 95.5766C174.412 95.5766 175.45 95.1842 175.45 95.1842M174.197 94.4321C174.707 94.2559 175.235 94.1246 175.772 94.0397M174.412 92.9933L176.095 92.7317M175.164 91.7507C175.164 91.8488 176.309 91.8488 176.309 91.8488M175.45 90.6389L176.596 90.8024" stroke="#512007" stroke-width="0.574338"/>
    <path d="M192.703 104.619C192.577 102.049 188.988 87.2975 188.988 87.2975M191.479 104.116L188.65 87.3534M190.212 102.831C190.128 101.881 188.144 87.4093 188.144 87.4093M192.577 102.496C191.943 102.049 190.128 101.378 190.128 101.378M191.69 99.9254C191.099 99.9254 189.875 99.2549 189.875 99.2549M191.352 97.9697C190.751 97.6687 190.128 97.4442 189.495 97.2992M191.099 95.5112L189.115 95.0642M190.212 93.388C190.212 93.5556 188.861 93.5556 188.861 93.5556M189.875 91.4882L188.524 91.7676" stroke="#512007" stroke-width="0.543521"/>
    <path d="M203.14 99.3298C203.013 97.4313 199.425 86.5356 199.425 86.5356M201.916 98.9584L199.087 86.5769M200.649 98.0091C200.565 97.3075 198.58 86.6182 198.58 86.6182M203.013 97.7615C202.38 97.4313 200.565 96.9361 200.565 96.9361M202.127 95.863C201.536 95.863 200.311 95.3678 200.311 95.3678M201.789 94.4185C201.187 94.1962 200.565 94.0303 199.931 93.9233M201.536 92.6026L199.551 92.2724M200.649 91.0342C200.649 91.1581 199.298 91.1581 199.298 91.1581M200.311 89.631L198.96 89.8374" stroke="#512007" stroke-width="0.583904"/>
    <path fill-rule="evenodd" clip-rule="evenodd" d="M185.99 100.46L186.37 70.3318C186.37 70.3318 187.468 70.2079 187.468 70.3318C187.468 70.4556 187.341 100.336 187.215 100.46C187.088 100.584 185.864 100.666 185.99 100.46ZM198.023 71.6524L197.77 96.9519L196.925 97.9424L197.178 71.6524H198.023Z" fill="#DD8B59" stroke="#512007" stroke-width="0.583904"/>
    <path fill-rule="evenodd" clip-rule="evenodd" d="M172.354 95.5075C172.354 95.5075 173.62 107.889 187.721 107.517C201.823 107.146 205.749 95.0534 205.749 95.0534L199.627 94.8058C199.501 94.8058 194.73 100.584 188.566 100.46C182.402 100.336 180.46 98.8917 179.109 97.6948C177.758 96.4567 176.576 94.682 176.576 94.682L169.398 91.9168L169.82 94.5582L172.354 95.5075ZM210.478 94.2693L210.055 92.6184V91.2152L210.731 89.7294C210.731 89.7294 200.049 91.2565 200.049 91.3803L200.007 94.1868L210.478 94.228V94.2693Z" fill="#DD8B59" stroke="#512007" stroke-width="0.583904"/>
    <path d="M171.889 95.3836C172.269 95.3836 175.098 96.0027 175.098 96.0027L178.053 99.8409M208.451 91.2151L208.198 93.6914H209.929L209.802 91.2151H208.451ZM206.636 91.339L206.509 93.9803L207.607 93.8565L207.733 91.339H206.636ZM204.778 93.9803V91.9168L205.876 91.5453L206.002 93.6089L204.778 93.9803ZM202.667 93.8565L202.92 92.0406L204.187 92.1644L204.271 94.1042L202.667 93.8565ZM200.345 93.8565L200.472 92.2882L201.738 92.1644V93.9803L200.345 93.8565Z" stroke="#512007" stroke-width="0.583904"/>
    <path d="M173.958 95.8789C174.085 96.0027 176.533 104.051 188.312 104.051C200.092 104.051 202.92 94.9296 202.92 94.9296" stroke="#512007" stroke-width="0.583904"/>
    <path d="M204.778 95.1772C204.778 95.1772 199.121 107.146 188.312 106.321C177.547 105.495 175.816 101.533 174.971 99.4695C174.127 97.4059 173.62 95.755 173.62 95.755" stroke="#512007" stroke-width="0.583904"/>
    <path fill-rule="evenodd" clip-rule="evenodd" d="M176.66 94.682C176.787 93.9804 176.787 72.2302 176.787 72.2302L176.069 72.1477L175.942 94.3105L176.66 94.7232V94.682ZM159.139 87.6245L168.427 92.0406L168.216 92.6597C168.216 92.6597 159.266 88.5325 159.266 88.4087C159.266 88.2849 159.35 87.7896 159.139 87.5833V87.6245Z" fill="#DD8B59" stroke="#512007" stroke-width="0.583904"/>
    <path fill-rule="evenodd" clip-rule="evenodd" d="M163.403 86.3039C163.403 86.634 164.754 93.9804 164.754 93.9804C164.754 93.9804 165.599 94.1042 165.599 93.9804L164.163 86.4277L163.403 86.3039ZM172.016 86.5102C172.48 86.5102 180.882 85.1895 180.882 85.1895L180.713 86.5102L172.48 87.3356L172.016 86.5102Z" fill="#DD8B59" stroke="#512007" stroke-width="0.583904"/>
    <path fill-rule="evenodd" clip-rule="evenodd" d="M173.198 76.5638C173.494 76.5638 176.153 77.8845 177.293 77.5543C178.433 77.2241 177.673 76.3161 177.884 76.3161C178.138 76.3161 178.982 76.9352 179.489 76.4399C179.995 75.986 180.333 74.5415 180.122 74.6653C179.869 74.7891 173.367 77.059 173.24 76.5638H173.198Z" fill="#FECF3E" stroke="#512007" stroke-width="0.583904"/>
    <path fill-rule="evenodd" clip-rule="evenodd" d="M172.143 79.5766C172.607 79.7004 182.191 77.059 182.191 77.059C182.191 77.059 182.191 77.8845 182.064 77.8845L172.143 80.402V79.5766Z" fill="#DD8B59" stroke="#512007" stroke-width="0.583904"/>
    <path fill-rule="evenodd" clip-rule="evenodd" d="M194.308 75.8621C194.308 75.8621 194.941 77.3067 195.574 77.059C196.207 76.8114 196.799 76.3162 196.799 76.3162C196.799 76.3162 197.305 77.5543 198.15 77.3067C198.994 77.059 199.501 75.7383 199.501 75.7383C199.501 75.7383 200.345 75.986 200.725 75.8621C201.105 75.7383 201.569 73.7986 201.569 73.7986L194.35 75.8621H194.308ZM193.59 87.5007C193.463 87.7484 194.223 88.3262 194.856 88.3262C195.49 88.3262 195.701 87.5008 195.828 87.7484C195.954 87.9547 195.954 89.0691 197.516 88.6976C199.078 88.3262 199.121 87.2531 199.121 87.2531C199.121 87.2531 198.656 87.6246 199.754 87.7484C200.852 87.8722 201.949 86.18 201.865 86.18C201.696 86.18 193.843 87.6246 193.59 87.5007V87.5007Z" fill="#FECF3E" stroke="#512007" stroke-width="0.583904"/>
    <path fill-rule="evenodd" clip-rule="evenodd" d="M172.523 76.0685C172.445 76.4405 172.475 76.8261 172.607 77.1828L180.629 74.5415C180.629 74.5415 180.966 73.9224 180.629 73.9224C180.291 73.9224 172.396 76.3161 172.48 76.1098L172.523 76.0685ZM183.077 74.4177C183.288 74.4177 191.268 71.9001 191.268 71.9001C191.268 71.9001 191.395 72.9731 191.268 72.9731L183.795 75.1193L183.035 74.4177H183.077Z" fill="#DD8B59" stroke="#512007" stroke-width="0.583904"/>
    <path fill-rule="evenodd" clip-rule="evenodd" d="M193.59 79.7004C193.59 79.7004 192.366 81.0211 192.745 82.7958C193.125 84.6118 193.59 86.1801 193.717 86.1801C193.843 86.1801 195.194 83.7863 196.672 83.6625C198.15 83.5387 200.852 84.9832 200.852 84.9832C200.852 84.9832 200.472 82.0942 200.598 80.7735C200.725 79.4528 202.794 77.1829 202.794 77.1829L193.59 79.6592V79.7004Z" fill="#FECF3E" stroke="#512007" stroke-width="0.583904"/>
    <path fill-rule="evenodd" clip-rule="evenodd" d="M182.444 77.513C182.444 77.513 182.191 78.6273 182.317 78.6273L192.745 75.986V75.2018L182.444 77.4717V77.513Z" fill="#DD8B59" stroke="#512007" stroke-width="0.583904"/>
    <path fill-rule="evenodd" clip-rule="evenodd" d="M169.187 92.0406C169.187 92.0406 166.738 91.7105 166.865 92.2883C166.992 92.9073 168.089 93.4851 168.216 93.8566C168.343 94.228 167.836 95.5074 168.596 95.4249C169.314 95.3011 170.032 94.8058 170.032 94.4344L169.905 92.3708L169.187 92.0406Z" fill="#B6B6B4" stroke="#512007" stroke-width="0.583904"/>
    <path fill-rule="evenodd" clip-rule="evenodd" d="M182.824 86.0562V86.8817L191.648 85.6848L191.394 85.0657L182.824 86.0562Z" fill="#DD8B59" stroke="#512007" stroke-width="0.583904"/>
    <path fill-rule="evenodd" clip-rule="evenodd" d="M172.354 87.5007C172.522 87.5007 172.354 88.5738 173.367 88.3262C174.338 88.0785 174.591 87.5007 174.591 87.5007C174.591 87.5007 174.845 88.8214 176.196 88.6976C177.547 88.5738 178.307 87.1293 178.307 87.1293C178.307 87.1293 178.391 88.2023 179.235 87.8309C180.08 87.4595 180.333 86.634 180.333 86.634L172.607 87.7071L172.396 87.5007H172.354ZM172.354 80.402C172.354 80.402 171.256 80.7735 171.636 82.9196C172.016 85.0657 172.902 86.3039 172.987 86.3039C173.114 86.3039 174.085 84.2403 175.562 83.9101C177.04 83.4974 179.615 84.9832 179.615 84.9832C179.615 84.9832 179.362 83.0434 179.742 81.2687C180.013 80.113 180.563 79.0375 181.346 78.1321C181.346 78.1321 172.734 80.402 172.396 80.402H172.354Z" fill="#FECF3E" stroke="#512007" stroke-width="0.583904"/>
    <path fill-rule="evenodd" clip-rule="evenodd" d="M192.999 86.6341L193.125 87.3769C193.125 87.3769 201.991 86.3039 201.991 86.1388C201.991 86.0562 201.991 85.3134 201.823 85.3134C201.696 85.3134 193.125 86.7579 192.957 86.6341H192.999ZM192.872 78.9575L192.999 79.783L203.427 77.059C203.427 77.059 203.68 76.3162 203.554 76.3162C203.427 76.3162 193.125 79.329 192.872 78.9575Z" fill="#DD8B59" stroke="#512007" stroke-width="0.583904"/>
    <path d="M210.309 89.0278L202.709 77.3066M201.696 85.4371C201.823 85.107 202.203 77.8844 202.203 77.8844M193.97 75.1192C193.97 75.1192 193.843 75.8621 193.97 75.8621C194.097 75.8621 201.696 74.0462 201.696 73.9224C201.696 73.7986 202.456 73.0969 201.823 73.2208C201.232 73.3446 194.223 75.4907 193.97 75.1192V75.1192Z" stroke="#512007" stroke-width="0.583904"/>
    <path fill-rule="evenodd" clip-rule="evenodd" d="M183.331 74.7891C183.753 74.8716 184.639 76.1098 185.146 75.8622C185.653 75.6145 186.37 74.8717 186.37 74.8717C186.37 74.8717 186.244 76.3162 187.215 76.1098C188.228 75.8622 188.355 74.8717 188.355 74.8717C188.355 74.8717 189.072 75.2844 189.706 74.8717C190.297 74.5415 190.888 72.7255 190.677 72.7255C190.466 72.7255 183.542 74.8716 183.288 74.7891H183.331ZM183.077 78.2559C183.077 78.5036 181.811 80.402 182.233 82.218C182.655 84.0339 183.288 85.6848 183.415 85.6848C183.542 85.6848 185.399 83.7863 187.004 83.4149C188.566 83.0434 190.93 84.6117 190.803 84.6117C190.677 84.6117 190.17 82.7958 190.17 81.4751C190.17 80.1544 192.028 76.1098 192.028 76.1098L183.077 78.2559ZM183.077 86.923C183.077 87.0055 183.415 87.8309 184.302 87.8309C185.146 87.8309 185.273 87.0055 185.273 87.0055C185.273 87.0055 185.146 88.45 186.497 88.3262C187.848 88.2024 188.312 86.8817 188.312 86.8817C188.312 86.8817 188.439 87.6246 189.579 87.2531C190.677 86.8817 192.112 85.6848 192.028 85.6848C191.901 85.6848 183.162 87.2531 183.035 86.923H183.077Z" fill="#FECF3E" stroke="#512007" stroke-width="0.583904"/>
    <path fill-rule="evenodd" clip-rule="evenodd" d="M184.091 82.3291C184.264 82.3355 184.428 82.4096 184.546 82.5352C184.664 82.6608 184.726 82.8275 184.719 82.9987C184.713 83.1698 184.637 83.3315 184.51 83.448C184.382 83.5645 184.213 83.6264 184.039 83.62C183.866 83.6136 183.702 83.5394 183.584 83.4139C183.466 83.2883 183.404 83.1216 183.41 82.9504C183.417 82.7792 183.493 82.6176 183.62 82.5011C183.748 82.3846 183.917 82.3227 184.091 82.3291V82.3291Z" fill="#BE0F17" stroke="#512007" stroke-width="0.57467"/>
    <path fill-rule="evenodd" clip-rule="evenodd" d="M188.549 81.2179C188.723 81.2243 188.886 81.2984 189.004 81.424C189.122 81.5496 189.185 81.7163 189.178 81.8875C189.171 82.0586 189.096 82.2203 188.968 82.3368C188.84 82.4533 188.671 82.5151 188.498 82.5087C188.324 82.5023 188.16 82.4282 188.042 82.3026C187.924 82.1771 187.862 82.0104 187.869 81.8392C187.875 81.668 187.951 81.5064 188.079 81.3899C188.206 81.2734 188.375 81.2115 188.549 81.2179V81.2179Z" fill="#BE0F17" stroke="#512007" stroke-width="0.57467"/>
    <path fill-rule="evenodd" clip-rule="evenodd" d="M186.32 83.5037C186.493 83.5101 186.657 83.5843 186.775 83.7098C186.893 83.8354 186.955 84.0021 186.949 84.1733C186.942 84.3445 186.866 84.5061 186.739 84.6226C186.611 84.7391 186.442 84.801 186.268 84.7946C186.095 84.7882 185.931 84.714 185.813 84.5885C185.695 84.4629 185.633 84.2962 185.639 84.125C185.646 83.9538 185.722 83.7922 185.849 83.6757C185.977 83.5592 186.146 83.4973 186.32 83.5037V83.5037Z" fill="#BE0F17" stroke="#512007" stroke-width="0.57467"/>
    <path fill-rule="evenodd" clip-rule="evenodd" d="M186.32 80.0115C186.493 80.0179 186.657 80.0921 186.775 80.2176C186.893 80.3432 186.955 80.5099 186.949 80.6811C186.942 80.8523 186.866 81.0139 186.739 81.1304C186.611 81.2469 186.442 81.3088 186.268 81.3024C186.095 81.296 185.931 81.2219 185.813 81.0963C185.695 80.9707 185.633 80.804 185.639 80.6328C185.646 80.4617 185.722 80.3 185.849 80.1835C185.977 80.067 186.146 80.0051 186.32 80.0115V80.0115Z" fill="#BE0F17" stroke="#512007" stroke-width="0.57467"/>
    <path d="M187.215 70.6619C187.215 70.5794 191.014 72.2303 191.014 72.3541C191.014 72.4779 204.525 90.0183 204.651 90.0183M197.896 72.3541L201.358 73.7986L202.456 76.4399M176.533 72.1477C176.407 72.1477 180.333 75.0367 180.333 75.0367L180.84 77.3892M163.192 89.6469C164.881 88.9452 176.787 78.7511 176.787 78.7511M159.983 87.7071L173.367 76.6876M182.317 78.3384L194.983 98.8917M193.463 86.8404C193.463 86.8404 194.941 91.6692 196.419 92.4121C197.521 92.9904 198.592 93.6241 199.627 94.3105" stroke="#512007" stroke-width="0.583904"/>
    <path d="M193.294 86.9642C193.294 86.9642 194.35 92.6597 195.828 93.7328C197.305 94.8058 198.783 96.0027 198.783 96.0027" stroke="#512007" stroke-width="0.583904"/>
    <path d="M183.128 86.9166C183.128 86.9166 184.563 94.8407 187.519 96.6567C189.329 97.7569 191.131 98.8713 192.923 99.9997" stroke="#512007" stroke-width="0.583904"/>
    <path d="M183.001 86.7928C183.001 86.7928 186.168 93.0661 188.912 94.9646C191.572 96.9043 195.245 98.679 195.245 98.679M172.7 87.3293C173.544 88.7738 173.418 91.539 174.389 92.4883C175.281 93.4746 176.1 94.5229 176.837 95.6249M172.911 87.4119C173.418 88.1135 174.769 91.7041 175.613 92.7772C176.246 93.7677 182.495 99.8759 182.495 99.8759" stroke="#512007" stroke-width="0.583904"/>
    <path fill-rule="evenodd" clip-rule="evenodd" d="M180.426 100.165C180.426 100.284 180.402 100.402 180.355 100.512C180.308 100.622 180.24 100.722 180.154 100.807C180.068 100.891 179.965 100.958 179.853 101.004C179.74 101.049 179.619 101.073 179.497 101.073C179.375 101.073 179.254 101.049 179.142 101.004C179.029 100.958 178.927 100.891 178.84 100.807C178.754 100.722 178.686 100.622 178.639 100.512C178.592 100.402 178.568 100.284 178.568 100.165C178.568 99.9239 178.666 99.693 178.84 99.5227C179.014 99.3524 179.251 99.2568 179.497 99.2568C179.743 99.2568 179.98 99.3524 180.154 99.5227C180.328 99.693 180.426 99.9239 180.426 100.165ZM184.943 102.105C184.943 102.312 184.859 102.512 184.708 102.659C184.558 102.806 184.354 102.889 184.141 102.889C183.928 102.889 183.724 102.806 183.574 102.659C183.424 102.512 183.339 102.312 183.339 102.105C183.339 101.897 183.424 101.697 183.574 101.55C183.724 101.403 183.928 101.32 184.141 101.32C184.354 101.32 184.558 101.403 184.708 101.55C184.859 101.697 184.943 101.897 184.943 102.105V102.105ZM190.727 102.6C190.727 102.808 190.643 103.007 190.492 103.154C190.342 103.301 190.138 103.384 189.925 103.384C189.712 103.384 189.508 103.301 189.358 103.154C189.208 103.007 189.123 102.808 189.123 102.6C189.123 102.392 189.208 102.192 189.358 102.045C189.508 101.898 189.712 101.816 189.925 101.816C190.138 101.816 190.342 101.898 190.492 102.045C190.643 102.192 190.727 102.392 190.727 102.6V102.6ZM195.751 100.743C195.751 101.155 195.456 101.444 195.076 101.444C194.696 101.444 194.4 101.114 194.4 100.743C194.4 100.371 194.696 99.9997 195.076 99.9997C195.456 99.9997 195.751 100.33 195.751 100.743ZM199.805 98.3901C199.805 98.7615 199.425 99.0504 199.002 99.0504C198.58 99.0504 198.2 98.7615 198.2 98.3901C198.2 98.0186 198.58 97.7297 199.002 97.7297C199.425 97.7297 199.805 98.0186 199.805 98.3901Z" fill="black" stroke="#512007" stroke-width="0.583904"/>
    <path fill-rule="evenodd" clip-rule="evenodd" d="M175.993 72.6366C175.613 72.8842 169.491 74.3288 170.336 74.2049C171.18 74.0811 176.12 75.4431 175.993 75.0304C175.866 74.6177 175.993 72.8842 175.993 72.6366ZM186.421 70.8619C186.168 70.8619 182.621 72.1826 182.748 72.1826C182.875 72.1826 186.801 73.2557 186.674 73.0081C186.548 72.7604 186.548 71.1921 186.421 70.8619ZM197.103 72.0588C196.849 72.1826 192.669 73.1319 193.429 73.2557C194.189 73.3795 196.976 74.3287 196.976 74.0811C196.976 73.8748 196.976 72.1826 197.103 72.0175V72.0588Z" fill="#FF0000" stroke="#512007" stroke-width="0.583904"/>
    <path d="M192.669 100.123C192.796 98.225 196.385 87.3293 196.385 87.3293M193.894 99.752L196.723 87.3706M195.16 98.8028C195.245 98.1012 197.229 87.4118 197.229 87.4118M192.796 98.5552C193.429 98.225 195.245 97.7297 195.245 97.7297M193.683 96.6567C194.274 96.6567 195.498 96.1614 195.498 96.1614M194.021 95.2122C194.622 94.9898 195.244 94.824 195.878 94.7169M194.274 93.3962L196.258 93.066M195.16 91.8279C195.16 91.9517 196.511 91.9517 196.511 91.9517M195.498 90.4247L196.849 90.631" stroke="#512007" stroke-width="0.583904"/>
    <path d="M182.199 101.508C182.326 99.5216 185.914 88.123 185.914 88.123M183.423 101.637L186.252 88.2093M184.394 101.68L186.759 88.2093M182.326 99.867C182.959 99.5216 184.774 99.0034 184.774 99.0034M183.212 97.8809C183.803 97.8809 185.028 97.3627 185.028 97.3627M183.55 96.3697C184.152 96.1371 184.774 95.9636 185.408 95.8516M183.803 94.4699L185.788 94.1245M184.69 92.8292C184.69 92.9587 186.041 92.9587 186.041 92.9587M185.028 91.3612L186.379 91.5771" stroke="#512007" stroke-width="0.597227"/>
    <path d="M182.165 100.638C182.039 98.7101 178.45 87.6468 178.45 87.6468M180.941 100.261L178.112 87.6887M179.674 99.2968C179.59 98.5844 177.606 87.7306 177.606 87.7306M182.039 99.0454C181.405 98.7101 179.59 98.2072 179.59 98.2072M181.152 97.1177C180.561 97.1177 179.337 96.6148 179.337 96.6148M180.814 95.6509C180.213 95.4252 179.591 95.2568 178.957 95.1481M180.561 93.8071L178.577 93.4718M179.674 92.2146C179.674 92.3403 178.323 92.3403 178.323 92.3403M179.337 90.7898L177.986 90.9993" stroke="#512007" stroke-width="0.588378"/>
    <path fill-rule="evenodd" clip-rule="evenodd" d="M199.121 94.8058L210.773 95.0534L210.9 94.228L198.867 94.1042L199.121 94.8058ZM199.627 91.793C200.978 91.793 211.153 89.8945 211.153 89.8945C211.153 89.8945 211.533 88.6563 211.153 88.6563C210.773 88.6563 199.627 90.9675 199.627 90.9675V91.793Z" fill="#DD8B59" stroke="#512007" stroke-width="0.583904"/>
    <path fill-rule="evenodd" clip-rule="evenodd" d="M186.32 81.7576C186.493 81.764 186.657 81.8382 186.775 81.9637C186.893 82.0893 186.955 82.256 186.949 82.4272C186.942 82.5984 186.866 82.76 186.739 82.8765C186.611 82.993 186.442 83.0549 186.268 83.0485C186.095 83.0421 185.931 82.9679 185.813 82.8424C185.695 82.7168 185.633 82.5501 185.639 82.3789C185.646 82.2078 185.722 82.0461 185.849 81.9296C185.977 81.8131 186.146 81.7512 186.32 81.7576V81.7576Z" fill="#BE0F17" stroke="#512007" stroke-width="0.57467"/>
    <path d="M0 0H125V78.5H0V0Z" fill="#012169"/>
    <path d="M14.6484 0L62.3047 29.601L109.766 0H125V10.1396L78.125 39.4135L125 68.524V78.5H109.375L62.5 49.226L15.8203 78.5H0V68.6875L46.6797 39.5771L0 10.4667V0H14.6484Z" fill="white"/>
    <path d="M82.8125 45.9552L125 71.9583V78.5L72.0703 45.9552H82.8125ZM46.875 49.226L48.0469 54.95L10.5469 78.5H0L46.875 49.226ZM125 0V0.490625L76.3672 31.2365L76.7578 24.0406L115.234 0H125ZM0 0L46.6797 28.7833H34.9609L0 6.86875V0Z" fill="#C8102E"/>
    <path d="M47.0703 0V78.5H78.3203V0H47.0703ZM0 26.1667V52.3333H125V26.1667H0Z" fill="white"/>
    <path d="M0 31.5635V47.2635H125V31.5635H0ZM53.3203 0V78.5H72.0703V0H53.3203Z" fill="#C8102E"/>
  </g>
  <defs>
    <linearGradient id="paint0_linear_2_329" x1="85.3896" y1="186.219" x2="93.9865" y2="181.008" gradientUnits="userSpaceOnUse">
      <stop stop-color="#A43907"/>
      <stop offset="1" stop-color="white"/>
    </linearGradient>
    <linearGradient id="paint1_linear_2_329" x1="167.014" y1="109.724" x2="155.912" y2="103.256" gradientUnits="userSpaceOnUse">
      <stop stop-color="#A43907"/>
      <stop offset="1" stop-color="white"/>
    </linearGradient>
    <linearGradient id="paint2_linear_2_329" x1="172.815" y1="113.731" x2="147.893" y2="110.246" gradientUnits="userSpaceOnUse">
      <stop stop-color="#A43907"/>
      <stop offset="1" stop-color="white"/>
    </linearGradient>
    <linearGradient id="paint3_linear_2_329" x1="219.534" y1="104.131" x2="208.056" y2="104.781" gradientUnits="userSpaceOnUse">
      <stop stop-color="#A43907"/>
      <stop offset="1" stop-color="white"/>
    </linearGradient>
    <linearGradient id="paint4_linear_2_329" x1="225.685" y1="109.83" x2="201.132" y2="111.405" gradientUnits="userSpaceOnUse">
      <stop stop-color="#A43907"/>
      <stop offset="1" stop-color="white"/>
    </linearGradient>
    <linearGradient id="paint5_linear_2_329" x1="222.177" y1="116.537" x2="153.323" y2="116.537" gradientUnits="userSpaceOnUse">
      <stop stop-color="#A43907"/>
      <stop offset="1" stop-color="white"/>
    </linearGradient>
    <linearGradient id="paint6_linear_2_329" x1="154.641" y1="121.098" x2="254.998" y2="121.48" gradientUnits="userSpaceOnUse">
      <stop stop-color="#A43907"/>
      <stop offset="1" stop-color="white"/>
    </linearGradient>
    <linearGradient id="paint7_linear_2_329" x1="225.732" y1="115.391" x2="217.54" y2="115.646" gradientUnits="userSpaceOnUse">
      <stop stop-color="#A43907"/>
      <stop offset="1" stop-color="white"/>
    </linearGradient>
    <linearGradient id="paint8_linear_2_329" x1="153.038" y1="123.525" x2="160.897" y2="124.077" gradientUnits="userSpaceOnUse">
      <stop stop-color="#A43907"/>
      <stop offset="1" stop-color="white"/>
    </linearGradient>
    <linearGradient id="paint9_linear_2_329" x1="158.848" y1="121.855" x2="144.556" y2="118.066" gradientUnits="userSpaceOnUse">
      <stop stop-color="#A43907"/>
      <stop offset="1" stop-color="white"/>
    </linearGradient>
    <clipPath id="clip0_2_329">
      <rect width="250" height="157" fill="white"/>
    </clipPath>
  </defs>
</svg>
