<svg width="273" height="197" viewBox="0 0 273 197" fill="none" xmlns="http://www.w3.org/2000/svg">
  <g clip-path="url(#clip0_1_256)">
    <path d="M0 0H273V197H0V0Z" fill="#000066"/>
    <path d="M0 0H136.5V98.5H0V0Z" fill="#012169"/>
    <path d="M15.9961 0L68.0367 37.1427L119.864 0H136.5V12.7229L85.3125 49.4552L136.5 85.9823V98.5H119.437L68.25 61.7677L17.2758 98.5H0V86.1875L50.9742 49.6604L0 13.1333V0H15.9961Z" fill="white"/>
    <path d="M90.4312 57.6635L136.5 90.2917V98.5L78.7008 57.6635H90.4312ZM51.1875 61.7677L52.4672 68.95L11.5172 98.5H0L51.1875 61.7677ZM136.5 0V0.615625L83.393 39.1948L83.8195 30.1656L125.836 0H136.5ZM0 0L50.9742 36.1167H38.1773L0 8.61875V0Z" fill="#C8102E"/>
    <path d="M51.4008 0V98.5H85.5258V0H51.4008ZM0 32.8333V65.6667H136.5V32.8333H0Z" fill="white"/>
    <path d="M0 39.6052V59.3052H136.5V39.6052H0ZM58.2258 0V98.5H78.7008V0H58.2258Z" fill="#C8102E"/>
    <path d="M236.992 74.6248V108.027C236.992 136.994 222.756 146.936 203.688 154.803C184.621 146.936 170.236 136.994 170.236 108.027V74.5891H236.992V74.6248Z" fill="white" stroke="white" stroke-width="8.36506" stroke-linejoin="round"/>
    <path d="M149.533 152.085C150.611 154.803 158.268 158.415 167.188 153.802C173.247 150.512 177.15 145.934 180.904 137.709C181.944 135.635 182.502 133.06 180.012 131.522C178.042 130.128 174.808 128.59 173.396 127.231C172.689 126.516 171.983 126.015 171.463 125.514C171.835 125.872 172.169 126.194 172.504 126.694C176.072 130.807 172.355 136.815 168.415 140.427C165.553 143.002 160.424 149.332 152.915 143.324C151.317 141.965 147.563 147.615 149.57 152.085H149.533ZM257.843 152.085C256.58 154.803 248.923 158.415 240.188 153.802C234.167 150.512 230.227 145.934 226.324 137.709C225.432 135.635 224.875 133.06 227.365 131.522C229.335 130.128 232.569 128.59 233.981 127.231C234.687 126.516 235.208 126.015 235.914 125.514C235.542 125.872 235.208 126.194 234.873 126.694C231.305 130.807 235.022 136.815 238.776 140.427C241.638 143.002 246.953 149.332 254.461 143.324C256.059 141.965 259.628 147.615 257.806 152.085H257.843Z" fill="#FCEA83" stroke="white" stroke-width="8.36506" stroke-linejoin="round"/>
    <path d="M203.688 166.819C217.924 166.819 239.854 160.633 251.636 139.032C253.569 135.456 251.636 133.561 249.295 132.381C246.648 131.098 244.237 129.407 242.158 127.374C245.02 130.128 244.463 132.023 242.53 135.098C233.423 149.689 220.972 157.056 203.688 157.056C186.405 157.056 173.953 149.689 164.847 135.098C162.914 132.023 162.356 130.128 165.033 127.41C162.985 129.467 160.567 131.151 157.896 132.381C155.592 133.561 153.622 135.456 155.592 139.032C167.337 160.633 189.415 166.819 203.688 166.819V166.819Z" fill="#FCEA83" stroke="white" stroke-width="8.36506" stroke-linejoin="round"/>
    <path d="M170.719 137.852C170.348 136.136 168.08 136.815 167.374 138.889C166.412 137.703 165.566 136.434 164.847 135.098C162.728 132.023 162.356 129.949 165.404 127.052C166.817 125.693 169.679 124.12 171.612 125.836C175.7 129.09 173.581 134.419 170.719 137.852V137.852ZM236.471 137.852C236.843 136.136 239.333 136.815 240.04 138.889C240.932 137.673 241.824 136.493 242.53 135.098C244.649 132.023 245.02 129.949 241.787 127.052C240.56 125.693 237.698 124.12 235.579 125.836C231.639 129.09 233.609 134.419 236.471 137.852ZM149.533 152.085C147.749 149.511 146.337 142.787 145.965 141.106C145.445 139.569 145.259 138.174 147.229 137.53C149.199 136.815 150.946 139.211 151.838 141.285C152.73 143.324 154.179 146.399 155.778 150.19C151.838 147.973 148.641 149.475 149.533 152.085ZM257.844 152.085C259.442 149.511 260.854 142.787 261.412 141.106C261.783 139.569 262.118 138.174 260.148 137.53C258.178 136.815 256.431 139.211 255.539 141.285C254.647 143.324 253.197 146.399 251.599 150.19C255.539 147.973 258.55 149.475 257.844 152.085V152.085Z" fill="#C8102E" stroke="white" stroke-width="8.36506" stroke-linejoin="round"/>
    <path d="M189.973 74.446C187.668 74.9467 186.07 75.1255 183.914 73.2301C182.502 71.8712 182.837 69.4751 184.286 68.5811C185.884 67.5797 187.297 66.9002 189.267 67.4009C191.237 67.9373 196.403 72.5506 195.139 72.7295C193.876 72.7295 191.943 73.9096 189.973 74.446ZM195.474 66.2208C196.217 65.6843 197.109 65.3625 199.414 65.1479C201.57 65.0048 203.131 65.0048 203.688 66.5784C204.432 68.438 204.952 70.6553 206.364 71.6924C205.472 72.193 201.012 72.7295 199.414 71.8712C197.295 70.8341 196.738 66.8645 195.511 66.2208H195.474ZM210.825 66.3996C211.531 65.8631 212.423 65.8631 214.727 66.0419C217.032 66.2208 217.924 66.3996 218.444 67.9373C219.002 69.6539 218.444 71.8712 219.559 73.4089C218.444 73.7666 214.913 73.7666 213.65 72.5506C211.717 71.1917 211.865 67.2221 210.825 66.3638V66.3996Z" fill="white" stroke="white" stroke-width="8.36506" stroke-linejoin="round"/>
    <path d="M221.492 67.4009C219.894 67.0433 218.816 66.9002 218.147 67.4009C219.002 68.438 218.296 72.5506 220.08 73.9096C221.306 74.7679 224.54 74.9824 225.246 73.0513C226.138 71.3347 226.138 68.7598 221.529 67.4009H221.492ZM203.168 65.6843C203.688 65.1836 204.766 65.0048 206.885 65.0048C209.226 65.0048 210.602 65.3624 211.345 66.7214C212.088 68.438 211.865 70.6552 213.129 72.0499C212.609 72.7294 207.777 72.7294 206.364 71.6923C204.394 70.4764 204.209 66.5426 203.168 65.6843V65.6843ZM188.04 67.2221C188.04 66.3638 189.267 66.2207 192.5 66.0419C195.66 65.6843 195.846 65.8631 196.924 68.0804C197.444 69.2963 198.15 71.3347 199.6 72.0142C195.66 72.9082 194.396 73.4089 192.277 72.193C190.73 71.2619 189.452 69.9704 188.561 68.438C188.375 67.9373 188.375 67.4009 188.003 67.2221H188.04Z" fill="#073163" stroke="white" stroke-width="8.36506" stroke-linejoin="round"/>
    <path d="M188.375 51.9874C187.111 51.9874 186.07 51.4867 185.327 50.6285C184.1 49.0549 180.718 48.3754 179.268 49.7702C178.748 50.1278 178.042 50.1278 177.521 50.2708C176.629 50.2708 175.551 51.1291 175.886 52.8457C176.629 52.3093 176.778 52.8457 177.336 52.8457C177.707 52.6669 177.521 53.0245 177.521 53.3464C177.521 54.2047 179.454 55.9212 181.238 55.7424C183.208 55.7424 184.1 56.4577 184.435 56.8153C184.992 57.2802 184.621 57.1372 184.992 57.9954C185.513 58.4961 185.699 58.6749 184.806 59.3544C184.401 59.68 184.074 60.0874 183.85 60.5478C183.626 61.0082 183.51 61.5103 183.51 62.0187C183.51 62.527 183.626 63.0292 183.85 63.4896C184.074 63.95 184.401 64.3574 184.806 64.683C187.111 66.3638 192.984 68.9744 199.6 63.9677C205.993 59.1756 215.954 61.9293 216.697 63.6101C217.589 65.3624 217.924 66.3638 218.11 67.2221C218.296 67.9373 219.188 68.6168 220.452 68.438C221.678 68.438 223.091 68.9386 223.797 69.4751C224.726 69.9757 225.953 69.8327 225.618 68.2592C224.875 63.467 221.864 62.7876 221.529 60.5703C223.276 60.7134 224.503 60.7134 225.246 60.0339C225.767 59.3544 226.473 58.1385 227.216 57.8166C227.737 57.459 227.737 57.1014 227.03 57.2802C226.138 57.459 225.618 57.8166 223.983 57.6378C215.805 56.7795 192.835 50.7715 188.375 51.9874V51.9874Z" fill="#059334" stroke="white" stroke-width="8.36506" stroke-linejoin="round"/>
    <path d="M224.726 57.8166C223.367 58.7389 222.206 59.9045 221.306 61.2497C219.559 63.467 214.207 65.6842 207.591 65.6842C201.198 65.6842 197.295 64.6829 194.433 62.4657C193.211 61.5256 191.891 60.7106 190.493 60.0338C188.561 59.1755 188.189 57.2802 188.709 55.7424C188.189 56.6007 187.854 57.459 186.776 57.2802C186.033 57.2802 184.621 57.2802 184.992 57.9954C184.806 57.6378 184.806 57.1371 184.621 56.9225L184.249 56.6007C184.806 56.9583 186.07 55.9212 186.962 55.9212C187.669 56.1 188.561 55.2417 188.375 54.2046L187.854 51.9874C189.267 51.2721 207.963 54.5622 211.717 54.8841C215.434 55.0629 226.138 56.6007 224.726 57.8166V57.8166Z" fill="black" stroke="white" stroke-width="8.36506" stroke-linejoin="round"/>
    <path d="M190.865 51.3079C192.649 49.5913 194.768 48.733 196.924 49.2337H197.444C198.559 48.3754 201.012 48.1966 202.462 48.8761H203.168C205.287 48.1966 209.375 48.8761 210.825 50.2708L211.345 50.6284C216.177 50.2708 219.002 52.3093 222.384 55.5994C222.756 55.957 223.276 56.6007 224.168 56.7795C225.246 56.9583 225.432 57.4948 224.54 57.9954C223.111 58.8458 221.852 59.9359 220.823 61.214C219.188 63.2882 214.021 65.3624 207.591 65.3624C201.384 65.3624 197.63 64.2895 194.768 62.2511C193.169 61.071 191.943 60.3915 191.051 59.855C189.973 59.4974 188.561 58.1385 189.081 56.7795C189.453 55.4206 188.561 53.704 187.854 51.9874C188.375 51.6298 189.787 51.1291 190.493 51.4867L190.865 51.3079Z" fill="#059334" stroke="white" stroke-width="8.36506" stroke-linejoin="round"/>
    <path d="M222.384 55.5994C219.039 52.3093 216.177 50.2708 211.345 50.5927C211.345 50.7715 211.345 51.3079 211.159 51.6655C214.527 53.1195 217.512 55.2827 219.894 57.9954C220.637 57.2802 221.864 56.4577 222.384 55.5994ZM210.825 50.2708C209.375 48.9119 205.287 48.1966 203.168 48.9119C203.168 49.5913 203.168 50.6284 202.796 51.3079C204.06 51.8086 205.101 53.0245 206.179 54.2046C206.922 54.0258 208.669 53.5252 209.561 53.3464C210.093 52.3667 210.517 51.3359 210.825 50.2708V50.2708ZM202.462 48.8761C201.012 48.1966 198.522 48.3754 197.444 49.2337C197.072 49.949 196.924 51.3079 196.924 51.9874C197.667 51.9874 198.708 52.4881 199.042 52.8457C200.157 52.4881 201.57 51.8086 202.09 51.3079C202.276 50.5927 202.61 49.5913 202.462 48.9119V48.8761ZM190.865 51.3079C192.649 49.5913 194.768 48.733 196.924 49.2337C196.552 49.7701 196.403 50.7715 196.403 51.8086C194.433 51.6298 191.943 52.1662 190.865 52.8457V51.3079Z" fill="#00493D" stroke="white" stroke-width="8.36506" stroke-linejoin="round"/>
    <path d="M219.188 58.3173C216.949 55.7663 214.158 53.716 211.011 52.3093C211.011 52.4881 210.639 53.1675 210.453 53.704C211.531 55.2417 213.65 58.6749 214.542 60.5703C215.434 60.2127 217.924 59.1756 219.188 58.3173V58.3173ZM205.658 62.1081C205.966 59.7707 206.14 57.4187 206.179 55.0629C207.071 54.8841 208.855 54.3834 209.561 54.2046C210.453 55.5994 212.609 59.2113 213.501 60.8921C211.345 61.3928 207.777 62.2511 205.658 62.1081ZM199.414 53.8828C200.306 53.5252 201.57 52.8099 202.425 52.1662C203.168 52.6669 204.58 53.8828 205.101 54.5623C205.101 56.1 204.58 60.5703 204.395 62.0723C202.982 62.0723 200.678 61.7504 199.414 61.071C199.6 58.4961 199.786 55.5994 199.414 53.8828V53.8828ZM190.493 55.9212C190.679 55.5636 190.865 54.3834 190.865 53.8828C192.277 53.0245 195.846 52.1662 198.522 53.5252C198.708 55.2417 198.522 59.5332 198.336 60.5703C195.952 58.705 193.329 57.1425 190.531 55.9212H190.493Z" fill="#00493D" stroke="white" stroke-width="8.36506" stroke-linejoin="round"/>
    <path d="M181.61 52.8099C181.238 52.8099 181.052 51.8086 180.346 51.8086C180.16 51.8086 179.64 51.9874 179.454 51.8086C179.454 52.1662 179.64 52.5238 179.826 52.6669C180.012 53.1676 180.904 52.8457 181.61 52.8457V52.8099Z" fill="black"/>
    <path d="M181.61 55.7424C183.729 55.7424 184.1 53.1675 185.178 53.0245M182.837 55.9212C184.435 56.6365 185.699 53.0245 186.925 53.1675M179.64 51.4867C180.16 51.4867 180.532 50.7715 181.424 51.6298C181.796 51.9874 182.316 52.1662 182.688 52.1662M182.316 54.0258C181.573 55.0987 180.346 55.7424 179.64 55.4205M179.268 49.7701C178.748 50.1278 178.413 50.7715 178.042 51.3079M177.521 52.3093V53.1675" stroke="white" stroke-width="8.36506" stroke-linejoin="round"/>
    <path d="M196.589 49.7702C192.835 47.0165 188.375 44.4416 184.286 43.941C188.552 46.6775 192.602 49.7136 196.403 53.0245" fill="black"/>
    <path d="M196.589 49.7702C192.835 47.0165 188.375 44.4416 184.286 43.941C188.552 46.6775 192.602 49.7136 196.403 53.0245" stroke="white" stroke-width="8.36506" stroke-linejoin="round"/>
    <path d="M198.708 47.1953C194.247 44.2628 189.081 41.0085 184.1 40.6866C188.761 43.2854 192.913 46.6503 196.366 50.6285M204.395 42.4032C206.407 38.0024 209.387 34.0737 213.129 30.8878C211.345 34.4998 209.412 41.8668 208.483 44.7993" fill="black"/>
    <path d="M198.708 47.1953C194.247 44.2628 189.081 41.0085 184.1 40.6866C188.761 43.2854 192.913 46.6503 196.366 50.6285M204.395 42.4032C206.407 38.0024 209.387 34.0737 213.129 30.8878C211.345 34.4998 209.412 41.8668 208.483 44.7993" stroke="white" stroke-width="8.36506" stroke-linejoin="round"/>
    <path d="M208.334 41.5449C210.057 37.5152 213.295 34.2587 217.404 32.4256C214.317 36.1305 212.019 40.3835 210.639 44.9423" fill="black"/>
    <path d="M208.334 41.5449C210.057 37.5152 213.295 34.2587 217.404 32.4256C214.317 36.1305 212.019 40.3835 210.639 44.9423" stroke="white" stroke-width="8.36506" stroke-linejoin="round"/>
    <path d="M209.933 44.9423C213.345 39.9162 218.237 35.982 223.983 33.6415C219.522 37.9329 212.943 45.8006 211.345 48.9119M212.423 48.7331C215.62 47.0165 222.05 44.2628 226.659 45.1569C223.834 46.1582 215.285 49.9132 211.531 53.3821" fill="black"/>
    <path d="M209.933 44.9423C213.345 39.9162 218.237 35.982 223.983 33.6415C219.522 37.9329 212.943 45.8006 211.345 48.9119M212.423 48.7331C215.62 47.0165 222.05 44.2628 226.659 45.1569C223.834 46.1582 215.285 49.9132 211.531 53.3821" stroke="white" stroke-width="8.36506" stroke-linejoin="round"/>
    <path d="M211.717 47.5172C214.727 44.4416 220.266 39.8283 226.138 37.9329C221.864 41.8668 212.758 50.8073 211.531 52.1663M203.168 45.6576C201.012 39.2919 197.816 33.3196 193.021 31.4243C196.84 36.6777 199.496 42.6299 200.826 48.9119M199.042 45.4787C195.511 41.3661 190.679 37.2535 185.178 36.3952C190.569 39.7891 194.828 44.6068 197.444 50.2709" fill="black"/>
    <path d="M211.717 47.5172C214.727 44.4416 220.266 39.8283 226.138 37.9329C221.864 41.8668 212.758 50.8073 211.531 52.1663M203.168 45.6576C201.012 39.2919 197.816 33.3196 193.021 31.4243C196.84 36.6777 199.496 42.6299 200.826 48.9119M199.042 45.4787C195.511 41.3661 190.679 37.2535 185.178 36.3952C190.569 39.7891 194.828 44.6068 197.444 50.2709" stroke="white" stroke-width="8.36506" stroke-linejoin="round"/>
    <path d="M201.049 45.2999C196.589 37.5753 193.169 36.2164 191.237 34.6786C192.835 37.5753 196.738 45.2999 199.042 48.5543" fill="black"/>
    <path d="M201.049 45.2999C196.589 37.5753 193.169 36.2164 191.237 34.6786C192.835 37.5753 196.738 45.2999 199.042 48.5543" stroke="white" stroke-width="8.36506" stroke-linejoin="round"/>
    <path d="M192.129 44.7993C194.671 46.3374 196.849 48.3721 198.522 50.7715" stroke="white" stroke-width="8.36506" stroke-linejoin="round"/>
    <path d="M192.129 48.3755C193.17 49.2338 195.139 50.2709 196.924 51.8086ZM213.315 50.9503C215.099 49.5914 219.002 47.3741 220.972 46.6589ZM212.051 49.7702C213.835 47.5172 217.404 44.4416 218.667 43.4045ZM217.032 39.1131C214.637 41.6957 212.379 44.3932 210.267 47.1953ZM212.423 37.5753C210.736 39.9761 209.245 42.4989 207.963 45.1211ZM198.336 37.9329C199.414 40.6866 201.384 45.2999 202.053 47.1953ZM196.738 40.8297C197.481 41.9025 198.894 44.2628 199.414 45.9794Z" fill="black"/>
    <path d="M192.129 48.3755C193.17 49.2338 195.139 50.2709 196.924 51.8086M213.315 50.9503C215.099 49.5914 219.002 47.3741 220.972 46.6589M212.051 49.7702C213.835 47.5172 217.404 44.4416 218.667 43.4045M217.032 39.1131C214.637 41.6957 212.379 44.3932 210.267 47.1953M212.423 37.5753C210.736 39.9761 209.245 42.4989 207.963 45.1211M198.336 37.9329C199.414 40.6866 201.384 45.2999 202.053 47.1953M196.738 40.8297C197.481 41.9025 198.894 44.2628 199.414 45.9794" stroke="white" stroke-width="8.36506" stroke-linejoin="round"/>
    <path d="M202.796 39.9713C202.796 38.4336 203.874 36.7527 204.952 36.7527C206.179 36.7527 207.071 38.7912 207.071 39.9713C207.071 41.3661 205.993 42.5462 204.952 42.5462C203.837 42.5462 202.796 41.5449 202.796 39.9713Z" fill="black" stroke="white" stroke-width="8.36506" stroke-linejoin="round"/>
    <path d="M200.492 41.3661C200.678 39.6495 201.904 38.2905 202.982 38.4336C204.06 38.6124 204.58 40.6866 204.394 41.8667C204.209 43.2257 202.982 44.2628 202.09 44.084C201.198 44.084 200.306 42.9038 200.492 41.3661ZM205.287 41.8667C204.915 40.3289 205.658 38.6481 206.736 38.4336C207.777 38.2905 208.855 39.9713 209.041 41.3661C209.412 42.725 208.483 44.084 207.591 44.084C206.736 44.2628 205.472 43.4045 205.287 41.8667Z" fill="black" stroke="white" stroke-width="8.36506" stroke-linejoin="round"/>
    <path d="M202.61 43.2257C202.61 41.5449 203.688 40.0071 204.766 40.0071C205.993 40.0071 206.885 41.8668 206.885 43.2257C206.885 44.6204 205.844 45.8006 204.766 45.8006C203.688 45.8006 202.61 44.7993 202.61 43.2257Z" fill="black" stroke="white" stroke-width="8.36506" stroke-linejoin="round"/>
    <path d="M199.414 44.084C199.414 42.5462 200.678 40.8654 201.718 40.8654C202.833 40.8654 203.874 42.9038 203.874 44.084C203.874 45.4787 202.61 46.6588 201.718 46.6588C200.678 46.6588 199.414 45.6575 199.414 44.084ZM205.993 43.4045C205.993 41.8667 207.108 40.1859 208.149 40.1859C209.375 40.1859 210.267 42.2244 210.267 43.4045C210.267 44.7992 209.226 45.9794 208.149 45.9794C207.071 45.9794 205.993 44.9423 205.993 43.4045Z" fill="black" stroke="white" stroke-width="8.36506" stroke-linejoin="round"/>
    <path d="M205.287 44.7992C205.287 43.0826 206.55 41.5449 207.591 41.5449C208.706 41.5449 209.747 43.4045 209.747 44.7634C209.747 46.1582 208.669 47.3741 207.591 47.3741C206.55 47.3741 205.287 46.3012 205.287 44.7992V44.7992Z" fill="black" stroke="white" stroke-width="8.36506" stroke-linejoin="round"/>
    <path d="M202.462 46.337C202.462 44.6204 203.502 43.0827 204.58 43.0827C205.844 43.0827 206.736 45.1211 206.736 46.3013C206.736 47.7317 205.621 48.9119 204.58 48.9119C203.502 48.9119 202.425 47.839 202.425 46.337H202.462ZM198.001 46.337C198.001 44.6204 198.894 43.0827 199.786 43.0827C200.678 43.0827 201.384 45.1211 201.384 46.3013C201.384 47.7317 200.492 48.9119 199.786 48.9119C198.894 48.9119 198.001 47.839 198.001 46.337V46.337ZM207.963 46.0152C207.963 44.4416 208.855 42.9039 209.747 42.9039C210.639 42.9039 211.531 44.7993 211.531 45.9794C211.531 47.5172 210.453 48.5543 209.747 48.5543C208.855 48.5543 207.963 47.5172 207.963 45.9794V46.0152Z" fill="black" stroke="white" stroke-width="8.36506" stroke-linejoin="round"/>
    <path d="M209.041 48.8761C209.412 47.1953 210.453 45.8006 211.159 46.0152C211.903 46.1582 212.051 48.1966 211.717 49.4125C211.531 50.9503 210.453 51.8086 209.747 51.6298C209.003 51.4867 208.669 50.2708 209.003 48.9119L209.041 48.8761Z" fill="black" stroke="white" stroke-width="8.36506" stroke-linejoin="round"/>
    <path d="M205.658 48.3754C205.844 46.8377 206.885 45.2999 207.777 45.4787C208.855 45.4787 209.375 47.5171 209.226 48.6973C209.041 50.2708 208.111 51.3079 207.257 51.1291C206.364 51.1291 205.472 49.9132 205.658 48.3754V48.3754ZM200.678 48.8761C200.12 47.1953 199.042 46.0151 198.336 46.1582C197.63 46.337 197.444 48.3754 197.816 49.5913C198.187 50.9503 199.228 51.8086 199.934 51.6298C200.492 51.4867 201.049 50.2708 200.678 48.9119V48.8761Z" fill="black" stroke="white" stroke-width="8.36506" stroke-linejoin="round"/>
    <path d="M199.414 48.5542C199.414 47.0165 200.306 45.4787 201.198 45.4787C202.276 45.4787 202.982 47.3741 202.982 48.5542C202.982 50.092 202.09 51.1291 201.198 51.1291C200.455 51.1291 199.414 50.092 199.414 48.5542Z" fill="black" stroke="white" stroke-width="8.36506" stroke-linejoin="round"/>
    <path d="M202.09 49.2337C202.09 47.5172 203.168 46.0151 204.209 46.0151C205.472 46.0151 206.364 47.8748 206.364 49.2337C206.364 50.6285 205.287 51.8086 204.209 51.8086C203.168 51.8086 202.09 50.7715 202.09 49.2337ZM202.982 30.3871C202.61 31.7461 201.384 32.962 202.239 34.8574C200.678 34.321 199.265 34.1421 198.001 35.5369C199.6 35.358 201.012 35.8945 201.718 36.8958C200.306 36.717 199.6 37.4322 199.228 38.2905C200.492 37.9329 201.718 37.5753 202.276 37.7541C201.718 38.2905 200.826 39.1131 200.678 39.8283C201.718 38.97 202.982 39.1131 203.688 38.6124C203.168 39.8283 204.209 41.0085 205.101 42.1886C204.952 40.5078 205.993 39.3276 205.472 38.4336C207.071 38.7912 207.257 40.1502 209.561 40.1502C208.669 39.6495 208.149 37.9329 207.071 37.9329C207.591 37.7541 209.747 37.5753 210.119 37.9329C209.747 37.2177 208.483 36.574 207.777 36.574C208.52 35.8587 209.747 34.4998 210.639 34.1421C209.375 34.321 207.442 34.4998 206.736 35.5369C208.483 34.1421 208.149 31.603 210.081 31.2454C209.041 31.0666 207.442 31.7461 206.179 32.962C206.736 31.9249 206.736 30.5659 207.442 30.2083C205.993 30.5659 204.395 32.2825 203.874 33.1408C203.797 32.1698 203.492 31.2283 202.982 30.3871V30.3871Z" fill="black" stroke="white" stroke-width="8.36506" stroke-linejoin="round"/>
    <path d="M203.874 33.1408C203.874 33.6415 203.874 34.6786 203.688 35.0004ZM206.179 32.962C205.807 33.3196 205.101 34.4997 205.101 35.5368Z" fill="black"/>
    <path d="M203.874 33.1408C203.874 33.6415 203.874 34.6786 203.688 35.0004M206.179 32.962C205.807 33.3196 205.101 34.4997 205.101 35.5368" stroke="white" stroke-width="8.36506" stroke-linejoin="round"/>
    <path d="M207.257 35.0004C206.644 35.3525 206.192 35.9147 205.993 36.574" stroke="white" stroke-width="8.36506" stroke-linejoin="round"/>
    <path d="M149.533 152.085C150.611 154.803 158.268 158.415 167.188 153.802C173.247 150.512 177.15 145.934 180.904 137.709C181.944 135.635 182.502 133.06 180.012 131.522C178.042 130.128 174.808 128.59 173.396 127.231C172.689 126.516 171.983 126.015 171.463 125.514C171.835 125.872 172.169 126.194 172.504 126.694C176.072 130.807 172.355 136.815 168.415 140.427C165.553 143.002 160.424 149.332 152.915 143.324C151.317 141.965 147.563 147.615 149.57 152.085H149.533ZM257.843 152.085C256.58 154.803 248.923 158.415 240.188 153.802C234.167 150.512 230.227 145.934 226.324 137.709C225.432 135.635 224.875 133.06 227.365 131.522C229.335 130.128 232.569 128.59 233.981 127.231C234.687 126.516 235.208 126.015 235.914 125.514C235.542 125.872 235.208 126.194 234.873 126.694C231.305 130.807 235.022 136.815 238.776 140.427C241.638 143.002 246.953 149.332 254.461 143.324C256.059 141.965 259.628 147.615 257.806 152.085H257.843Z" fill="#FCEA83" stroke="black" stroke-width="1.2199"/>
    <path d="M203.688 166.819C217.924 166.819 239.854 160.633 251.636 139.032C253.569 135.456 251.636 133.561 249.295 132.381C246.648 131.098 244.237 129.407 242.158 127.374C245.02 130.128 244.463 132.023 242.53 135.098C233.423 149.689 220.972 157.056 203.688 157.056C186.405 157.056 173.953 149.689 164.847 135.098C162.914 132.023 162.356 130.128 165.033 127.41C162.985 129.467 160.567 131.151 157.896 132.381C155.592 133.561 153.622 135.456 155.592 139.032C167.337 160.633 189.415 166.819 203.688 166.819V166.819Z" fill="#FCEA83" stroke="black" stroke-width="1.2199"/>
    <path d="M170.719 137.852C170.348 136.136 168.08 136.815 167.374 138.889C166.412 137.703 165.566 136.434 164.847 135.098C162.728 132.023 162.356 129.949 165.404 127.052C166.817 125.693 169.679 124.12 171.612 125.836C175.7 129.09 173.581 134.419 170.719 137.852V137.852ZM236.471 137.852C236.843 136.136 239.333 136.815 240.04 138.889C240.932 137.673 241.824 136.493 242.53 135.098C244.649 132.023 245.02 129.949 241.787 127.052C240.56 125.693 237.698 124.12 235.579 125.836C231.639 129.09 233.609 134.419 236.471 137.852ZM149.533 152.085C147.749 149.511 146.337 142.787 145.965 141.106C145.445 139.569 145.259 138.174 147.229 137.53C149.199 136.815 150.946 139.211 151.838 141.285C152.73 143.324 154.179 146.399 155.778 150.19C151.838 147.973 148.641 149.475 149.533 152.085ZM257.844 152.085C259.442 149.511 260.854 142.787 261.412 141.106C261.783 139.569 262.118 138.174 260.148 137.53C258.178 136.815 256.431 139.211 255.539 141.285C254.647 143.324 253.197 146.399 251.599 150.19C255.539 147.973 258.55 149.475 257.844 152.085V152.085Z" fill="#C8102E" stroke="black" stroke-width="1.2199"/>
    <path d="M159.866 136.636L158.454 137.351C158.082 137.494 158.082 137.852 158.082 138.031H157.896L157.19 136.493H157.376C157.376 136.636 157.562 136.851 157.896 136.636L160.944 135.098C161.316 134.92 161.316 134.741 161.13 134.598L161.279 134.419L162.171 136.136H162.022C161.836 135.957 161.65 135.778 161.279 135.957L160.052 136.672L160.572 137.673L162.022 137.173C162.394 136.994 162.171 136.636 162.171 136.457H162.356L163.1 138.031C162.914 137.852 162.728 137.673 162.356 137.852L159.346 139.39C158.974 139.569 158.974 139.747 159.16 139.891L158.974 140.069L158.082 138.532L158.268 138.353C158.454 138.532 158.64 138.71 159.011 138.532L160.424 137.816L159.866 136.636ZM162.914 138.889C163.286 138.71 163.286 138.532 163.063 138.174H163.248L165.033 140.749L163.806 141.607V141.464C164.512 140.928 164.512 140.248 164.326 140.069C164.141 139.891 163.955 139.712 163.955 139.569C163.806 139.569 163.806 139.39 163.434 139.747L162.171 140.606C162.356 140.749 162.542 141.285 163.434 140.749H163.62L161.65 142.144V141.965C162.542 141.249 162.171 140.749 162.022 140.606L160.758 141.464C160.386 141.607 160.386 141.822 160.386 141.965C160.572 141.965 160.572 142.144 160.758 142.322C160.944 142.68 161.502 143.002 162.356 142.68L162.542 142.823L161.13 143.324L159.346 140.606H159.532C159.68 140.749 159.903 140.963 160.238 140.749L162.914 138.889ZM165.739 145.398L164.512 146.399C164.326 146.578 164.326 146.936 164.512 147.114H164.326L163.063 145.899L163.248 145.72C163.434 145.899 163.62 146.077 163.992 145.72L166.296 143.503C166.668 143.324 166.668 143.145 166.445 142.787L167.709 144.218C167.523 144.003 167.188 144.003 166.965 144.218L165.925 145.219L166.817 146.077L167.895 145.219C168.266 144.861 168.08 144.718 167.895 144.504L168.08 144.361L169.307 145.72H169.121C168.972 145.72 168.749 145.577 168.415 145.899L166.11 147.973C165.739 148.33 165.739 148.473 165.925 148.652V148.831L164.698 147.436C164.847 147.436 165.218 147.615 165.404 147.436L166.631 146.256L165.739 145.398ZM168.415 149.01L168.973 149.511L169.679 147.973C169.679 147.973 169.121 148.116 168.229 148.652L168.415 149.01L168.229 149.153L167.857 148.795C167.709 148.974 167.523 148.974 167.337 149.153C166.817 149.511 166.965 149.689 167.188 149.868V150.011L166.296 149.153H166.445L167.188 148.974L170.719 147.114L170.905 147.258C170.905 147.258 170.719 147.436 169.121 150.869C169.121 151.227 168.972 151.37 169.121 151.728L167.709 150.548L167.895 150.369C168.08 150.726 168.415 150.726 168.601 150.369C168.601 150.19 168.787 149.832 168.787 149.654L168.229 149.153L168.415 148.974V149.01ZM169.827 152.407L170.013 152.228C170.199 152.407 170.385 152.407 170.757 152.228L173.061 149.332L172.875 149.153C172.504 148.974 171.983 148.974 171.463 149.511V149.332L172.169 148.473L174.845 150.369L173.953 151.37H173.767C174.288 150.869 174.139 150.19 173.767 150.011V149.832L171.463 152.765C171.091 152.944 171.277 153.266 171.463 153.444H171.277L169.827 152.407Z" fill="#00493D"/>
    <path d="M174.473 153.087L173.581 154.303C173.396 154.66 173.581 154.803 173.767 155.018L173.581 155.161L172.169 154.124V153.945C172.541 154.124 172.689 154.124 172.875 153.802L174.845 151.227C174.994 150.87 174.845 150.691 174.659 150.512L174.845 150.369L176.258 151.37V151.549C175.886 151.37 175.737 151.37 175.514 151.728L174.659 152.944L175.737 153.623L176.629 152.407C176.778 152.05 176.629 151.907 176.443 151.728L176.629 151.549L178.042 152.586V152.765C177.856 152.586 177.521 152.586 177.298 152.944L175.551 155.662C175.18 155.84 175.366 156.019 175.551 156.198V156.341L173.953 155.34H174.139C174.288 155.34 174.511 155.34 174.659 155.161L175.551 153.802L174.473 153.087ZM178.042 157.915L178.228 157.736C178.413 157.915 178.748 157.915 178.934 157.557L180.346 154.66C180.532 154.303 180.346 154.124 180.16 153.945L183.208 155.34L182.465 156.699L182.316 156.52C182.836 155.84 182.316 155.161 182.13 154.982C181.944 154.982 181.759 154.803 181.61 154.803C181.424 154.803 181.424 154.803 181.238 155.161C181.052 155.34 180.532 156.341 180.532 156.341C180.718 156.52 181.052 156.878 181.796 155.983H181.944L180.904 158.058L180.718 157.915C181.238 156.842 180.532 156.699 180.346 156.699L179.64 158.058C179.454 158.415 179.64 158.594 179.826 158.594V158.773L178.042 157.915ZM183.208 160.311C182.688 159.953 182.688 158.916 183.208 157.915C183.58 156.842 184.286 156.019 184.992 156.341C185.513 156.52 185.364 157.557 184.992 158.594C184.435 159.774 183.729 160.454 183.208 160.311H183.022C184.286 160.811 185.178 160.132 185.699 158.916C186.219 157.915 186.07 156.699 184.955 156.198C183.914 155.662 182.836 156.341 182.316 157.557C181.796 158.773 181.944 159.953 183.06 160.311H183.208ZM188.709 160.633L189.453 158.594C189.601 158.236 189.453 158.058 189.267 157.879L190.159 158.058V158.236C189.973 158.236 189.787 158.236 189.601 158.594L188.895 160.633C188.523 161.491 188.003 162.17 186.962 161.848C186.219 161.67 185.699 160.811 186.07 159.953L186.962 157.736C187.111 157.378 186.962 157.199 186.776 157.021V156.878L188.375 157.557V157.736C188.189 157.557 187.854 157.557 187.854 157.915L186.925 160.096C186.739 160.776 186.739 161.455 187.297 161.634C187.817 161.813 188.338 161.455 188.672 160.597L188.709 160.633ZM190.345 158.415C190.345 158.236 190.345 158.236 190.159 158.236L191.385 158.415L192.5 161.67L193.021 159.595C193.169 159.238 193.021 159.095 192.835 158.916L193.876 159.095L193.727 159.274C193.541 159.274 193.355 159.274 193.169 159.631L192.277 163.386H192.129L190.679 159.274L189.787 162.027C189.787 162.528 189.973 162.528 190.159 162.707V162.886L189.081 162.528V162.349C189.267 162.528 189.601 162.349 189.601 161.992L190.493 158.916L190.345 158.415ZM196.403 161.848C196.031 163.386 195.288 163.744 194.954 163.744H194.582C194.582 163.744 194.433 163.565 194.582 163.386L195.139 159.953C195.325 159.774 195.325 159.595 195.511 159.774H195.883C196.217 159.774 196.552 160.49 196.403 161.848L196.924 162.027C197.295 160.311 196.552 159.595 195.66 159.452C194.954 159.274 193.876 159.095 193.876 159.095V159.274C194.062 159.452 194.433 159.452 194.247 159.989L193.727 163.029C193.541 163.386 193.355 163.565 193.169 163.565H193.021L194.768 163.923C195.66 164.066 196.552 163.923 196.924 162.027L196.403 161.848ZM198.001 160.454C198.001 160.096 197.63 159.953 197.444 159.953V159.774L200.678 160.132L200.492 161.491C200.492 160.633 199.934 160.311 199.6 160.311C199.414 160.132 199.228 160.132 199.042 160.132C198.893 160.132 198.893 160.132 198.893 160.633L198.708 162.027C198.893 162.027 199.414 162.17 199.786 161.169L199.6 163.386H199.414C199.414 162.349 198.893 162.349 198.67 162.349L198.522 163.887C198.522 164.245 198.522 164.245 198.708 164.245L199.079 164.423C199.6 164.423 200.12 164.245 200.492 163.207H200.678L200.306 164.566L196.924 164.209C197.295 164.209 197.444 164.066 197.667 163.744L198.001 160.454ZM203.874 162.528C203.874 164.066 203.317 164.566 202.796 164.566C202.61 164.423 202.61 164.423 202.425 164.423L202.276 164.245L202.462 160.668C202.462 160.454 202.462 160.454 202.61 160.454H202.982C203.354 160.454 203.874 160.99 203.874 162.528H204.58C204.58 160.811 203.688 160.311 202.796 160.311C202.053 160.132 201.012 160.132 201.012 160.132V160.311C201.198 160.311 201.57 160.454 201.57 160.811L201.384 164.066C201.384 164.423 201.198 164.566 201.012 164.566V164.745H202.61C203.502 164.745 204.394 164.388 204.58 162.528H203.837H203.874ZM209.041 163.887C209.041 164.245 209.226 164.245 209.561 164.245V164.423L207.591 164.566C207.777 164.423 208.149 164.209 208.149 163.887L207.777 160.668C207.591 160.311 207.405 160.311 207.071 160.311V160.132L209.041 159.953C208.855 160.132 208.483 160.311 208.669 160.668L209.041 163.887ZM210.825 164.245V164.066C211.011 164.066 211.196 163.887 211.196 163.565L210.453 159.989H210.267C209.895 160.132 209.561 160.454 209.747 161.169H209.561L209.375 159.953L212.609 159.452L212.758 160.633H212.609C212.609 159.953 212.051 159.774 211.494 159.774H211.345L212.088 163.35C212.088 163.708 212.237 163.887 212.609 163.887V164.066L210.825 164.245ZM218.482 160.811L217.738 158.773C217.738 158.415 217.404 158.415 217.218 158.415V158.236L218.11 157.879V158.058C217.924 158.236 217.924 158.236 217.924 158.594L218.667 160.811C218.816 161.527 218.816 162.528 217.775 162.886C217.032 163.029 216.177 162.707 215.991 161.67L215.248 159.452C215.099 159.095 214.913 159.095 214.727 159.095L214.542 158.916L216.326 158.415V158.594C216.177 158.773 215.954 158.952 216.177 159.274L216.697 161.491C216.883 162.206 217.441 162.528 217.924 162.528C218.482 162.349 218.667 161.67 218.482 160.811ZM220.451 159.595C221.306 159.238 221.158 158.773 220.972 158.236C220.786 157.736 220.451 157.378 220.08 157.557C219.894 157.557 219.708 157.736 219.894 157.915L220.451 159.595L220.6 159.774L220.972 161.169C221.158 161.527 221.492 161.527 221.715 161.312V161.491L220.08 162.206L219.894 162.027C220.266 161.848 220.266 161.67 220.266 161.312L219.002 158.415C218.816 157.915 218.63 158.058 218.296 158.058V157.915L220.08 157.199C220.823 157.056 221.492 157.199 221.864 157.915C222.05 158.773 221.678 159.274 220.972 159.631C220.786 159.631 220.6 159.774 220.6 159.774L220.451 159.595Z" fill="#00493D"/>
    <path d="M224.875 160.096C224.354 160.311 223.648 159.595 223.09 158.415C222.57 157.378 222.57 156.341 223.09 156.198C223.648 156.019 224.354 156.699 224.875 157.736C225.432 158.773 225.432 159.774 224.875 160.132C225.99 159.774 226.324 158.594 225.767 157.378C225.246 156.341 224.168 155.662 223.09 156.019C222.84 156.14 222.618 156.308 222.437 156.513C222.256 156.718 222.119 156.957 222.036 157.214C221.953 157.471 221.924 157.741 221.952 158.009C221.98 158.277 222.064 158.537 222.198 158.773C222.756 159.953 223.834 160.633 224.875 160.132V160.096ZM225.06 155.34H224.726L225.767 154.625L229 156.341L227.885 154.481C227.737 154.124 227.365 154.124 227.216 154.124V153.945L228.108 153.587C227.922 153.802 227.737 153.945 228.108 154.303L229.892 157.736L229.707 157.915L225.767 155.84L227.216 158.415C227.365 158.773 227.737 158.773 227.922 158.594V158.773L227.03 159.274V159.095C227.216 158.916 227.216 158.737 227.03 158.415L225.618 155.662L225.06 155.304V155.34ZM233.089 155.84V155.662C233.089 155.483 233.275 155.304 233.089 154.982L230.933 152.085H230.747C230.376 152.228 230.227 152.944 230.747 153.444L230.599 153.623L229.855 152.407L232.531 150.691L233.275 151.764C232.717 151.227 232.16 151.227 231.825 151.406L231.639 151.549L233.795 154.481C233.981 154.839 234.315 154.839 234.538 154.66V154.803L233.089 155.84Z" fill="#00493D"/>
    <path d="M235.059 151.728L236.1 152.944C236.285 153.087 236.657 153.087 236.843 152.944V153.087L235.393 154.303V154.124C235.579 153.945 235.579 153.766 235.393 153.444L233.275 150.87C233.089 150.512 232.903 150.691 232.531 150.691L233.981 149.511V149.689C233.981 149.832 233.795 150.047 233.981 150.369L234.873 151.37L235.914 150.691L235.059 149.511C234.873 149.153 234.501 149.332 234.315 149.332L235.765 148.116V148.295C235.579 148.473 235.579 148.652 235.765 149.01L237.884 151.549C238.07 151.728 238.255 151.728 238.441 151.549L238.59 151.728L237.177 152.944L236.992 152.765C237.177 152.586 237.363 152.407 237.177 152.05L236.1 150.87L235.059 151.728ZM236.657 148.116C236.471 147.973 236.1 147.973 235.914 148.116V147.973L238.255 145.899L239.333 146.936H239.147C238.59 146.22 237.884 146.578 237.549 146.757C237.549 146.936 237.363 146.936 237.177 147.114C237.177 147.114 237.177 147.258 237.363 147.615L238.441 148.652C238.59 148.473 239.147 148.116 238.441 147.258H238.59L240.04 148.831V148.974C239.147 148.116 238.776 148.616 238.59 148.831L239.705 149.832C239.854 150.19 240.04 150.19 240.04 150.19L240.56 149.689C240.746 149.511 240.932 148.974 240.56 147.973H240.746L241.452 149.153L239.147 151.37L238.962 151.227C239.147 151.048 239.333 150.87 238.962 150.512L236.657 148.116ZM240.932 143.324C240.746 143.503 240.746 143.86 241.08 144.039C241.452 144.361 241.824 144.361 242.53 144.039C242.901 143.86 243.571 143.681 244.128 144.182C245.02 145.04 244.648 145.72 244.5 146.077C244.314 146.256 243.942 146.435 243.756 146.578C243.571 146.578 243.571 146.578 243.571 146.757V146.936L242.344 145.899H242.53C243.236 146.256 243.942 146.399 244.314 145.899C244.686 145.541 244.314 145.183 244.128 145.04C243.756 144.683 243.385 144.683 242.864 145.04C242.344 145.219 241.638 145.219 241.08 144.861C240.374 144.182 240.374 143.681 240.709 143.145L241.452 142.644C241.638 142.644 241.638 142.644 241.452 142.287L242.716 143.145H242.53C241.638 142.787 241.08 143.002 240.932 143.324ZM242.53 141.965C242.158 141.786 241.972 141.965 241.786 142.144H241.638L243.608 139.39L244.834 140.248L244.648 140.427C244.426 140.243 244.143 140.142 243.849 140.142C243.556 140.142 243.273 140.243 243.05 140.427C243.05 140.606 242.864 140.785 242.864 140.928C242.716 140.928 242.716 141.106 243.05 141.285C243.236 141.464 244.314 142.144 244.314 142.144C244.5 141.965 244.834 141.607 244.128 140.928V140.749L245.912 142.144C244.834 141.607 244.648 142.144 244.5 142.287L245.726 143.145C246.098 143.324 246.247 143.324 246.247 143.324C246.247 143.145 246.433 142.966 246.618 142.823C246.804 142.465 246.99 141.965 246.247 141.285L246.433 141.106L247.325 142.144L245.541 144.718H245.355C245.541 144.361 245.54 144.182 245.206 143.86L242.53 141.965ZM247.325 138.889L246.804 139.747C246.061 139.032 245.726 138.532 245.726 138.532L247.325 138.889H247.696C247.882 138.889 248.217 139.032 248.403 139.032C248.923 139.211 248.774 139.39 248.588 139.747H248.774L249.666 138.174C249.295 138.532 249.109 138.353 248.774 138.353C245.02 137.673 244.686 137.494 244.686 137.494V137.673L247.51 140.749C247.696 140.928 247.696 141.285 247.696 141.464H247.882L248.403 140.606L248.217 140.427C248.031 140.785 247.845 140.928 247.51 140.427L247.139 140.069L247.696 138.889H247.325ZM246.247 135.098C246.098 135.277 246.098 135.635 246.618 135.814C247.139 135.957 247.362 135.814 247.882 135.456C248.403 135.098 248.923 134.741 249.629 135.098C250.744 135.635 250.521 136.493 250.372 136.815L249.815 137.53V137.852L248.403 137.137C249.295 137.316 250.001 137.137 250.187 136.636C250.372 136.279 250.001 135.957 249.815 135.778C249.443 135.635 249.109 135.778 248.588 136.136C248.031 136.636 247.473 136.851 246.804 136.493C246.061 136.136 245.726 135.635 246.061 135.098C246.061 134.741 246.433 134.598 246.618 134.419C246.618 134.24 246.618 134.24 246.433 134.061V133.918L247.882 134.598H247.696C246.804 134.419 246.247 134.777 246.247 135.098V135.098Z" fill="#00493D"/>
    <path d="M189.973 74.446C187.669 74.9467 186.07 75.1255 183.914 73.2301C182.502 71.8712 182.837 69.4751 184.286 68.5811C185.884 67.5797 187.297 66.9002 189.267 67.4009C191.237 67.9373 196.403 72.5506 195.139 72.7295C193.876 72.7295 191.943 73.9096 189.973 74.446ZM195.474 66.2208C196.217 65.6843 197.109 65.3625 199.414 65.1479C201.57 65.0048 203.131 65.0048 203.688 66.5784C204.432 68.438 204.952 70.6553 206.364 71.6924C205.472 72.193 201.012 72.7295 199.414 71.8712C197.295 70.8341 196.738 66.8645 195.511 66.2208H195.474ZM210.825 66.3996C211.531 65.8631 212.423 65.8631 214.728 66.0419C217.032 66.2208 217.924 66.3996 218.444 67.9373C219.002 69.6539 218.444 71.8712 219.559 73.4089C218.444 73.7666 214.913 73.7666 213.65 72.5506C211.717 71.1917 211.866 67.2221 210.825 66.3638V66.3996Z" fill="white" stroke="black" stroke-width="1.2199"/>
    <path d="M221.492 67.4009C219.894 67.0433 218.816 66.9002 218.147 67.4009C219.002 68.438 218.296 72.5506 220.08 73.9096C221.306 74.7679 224.54 74.9824 225.246 73.0513C226.138 71.3347 226.138 68.7598 221.529 67.4009H221.492ZM203.168 65.6843C203.688 65.1836 204.766 65.0048 206.885 65.0048C209.227 65.0048 210.602 65.3624 211.345 66.7214C212.089 68.438 211.866 70.6552 213.129 72.0499C212.609 72.7294 207.777 72.7294 206.364 71.6923C204.395 70.4764 204.209 66.5426 203.168 65.6843V65.6843ZM188.04 67.2221C188.04 66.3638 189.267 66.2207 192.5 66.0419C195.66 65.6843 195.846 65.8631 196.924 68.0804C197.444 69.2963 198.15 71.3347 199.6 72.0142C195.66 72.9082 194.396 73.4089 192.277 72.193C190.73 71.2619 189.452 69.9704 188.561 68.438C188.375 67.9373 188.375 67.4009 188.003 67.2221H188.04Z" fill="#073163" stroke="black" stroke-width="1.2199"/>
    <path d="M196.589 49.7702C192.835 47.0165 188.375 44.4416 184.286 43.941C188.552 46.6775 192.602 49.7136 196.403 53.0245" fill="#F9D050"/>
    <path d="M196.589 49.7702C192.835 47.0165 188.375 44.4416 184.286 43.941C188.552 46.6775 192.602 49.7136 196.403 53.0245" stroke="black" stroke-width="0.522816"/>
    <path d="M198.708 47.1953C194.247 44.2628 189.081 41.0085 184.1 40.6866C188.761 43.2854 192.913 46.6503 196.366 50.6285M204.395 42.4032C206.407 38.0024 209.387 34.0737 213.129 30.8878C211.345 34.4998 209.412 41.8668 208.483 44.7993" fill="#F9D050"/>
    <path d="M198.708 47.1953C194.247 44.2628 189.081 41.0085 184.1 40.6866C188.761 43.2854 192.913 46.6503 196.366 50.6285M204.395 42.4032C206.407 38.0024 209.387 34.0737 213.129 30.8878C211.345 34.4998 209.412 41.8668 208.483 44.7993" stroke="black" stroke-width="0.522816"/>
    <path d="M208.334 41.5449C210.057 37.5152 213.295 34.2587 217.404 32.4256C214.317 36.1305 212.019 40.3835 210.639 44.9423" fill="#F9D050"/>
    <path d="M208.334 41.5449C210.057 37.5152 213.295 34.2587 217.404 32.4256C214.317 36.1305 212.019 40.3835 210.639 44.9423" stroke="black" stroke-width="0.522816"/>
    <path d="M209.933 44.9423C213.345 39.9162 218.237 35.982 223.983 33.6415C219.522 37.9329 212.943 45.8006 211.345 48.9119M212.423 48.7331C215.62 47.0165 222.05 44.2628 226.659 45.1569C223.834 46.1582 215.285 49.9132 211.531 53.3821" fill="#F9D050"/>
    <path d="M209.933 44.9423C213.345 39.9162 218.237 35.982 223.983 33.6415C219.522 37.9329 212.943 45.8006 211.345 48.9119M212.423 48.7331C215.62 47.0165 222.05 44.2628 226.659 45.1569C223.834 46.1582 215.285 49.9132 211.531 53.3821" stroke="black" stroke-width="0.522816"/>
    <path d="M211.717 47.5172C214.728 44.4416 220.266 39.8283 226.138 37.9329C221.864 41.8668 212.758 50.8073 211.531 52.1663M203.168 45.6576C201.012 39.2919 197.816 33.3196 193.021 31.4243C196.84 36.6777 199.497 42.6299 200.826 48.9119M199.042 45.4787C195.511 41.3661 190.679 37.2535 185.178 36.3952C190.569 39.7891 194.828 44.6068 197.444 50.2709" fill="#F9D050"/>
    <path d="M211.717 47.5172C214.728 44.4416 220.266 39.8283 226.138 37.9329C221.864 41.8668 212.758 50.8073 211.531 52.1663M203.168 45.6576C201.012 39.2919 197.816 33.3196 193.021 31.4243C196.84 36.6777 199.497 42.6299 200.826 48.9119M199.042 45.4787C195.511 41.3661 190.679 37.2535 185.178 36.3952C190.569 39.7891 194.828 44.6068 197.444 50.2709" stroke="black" stroke-width="0.522816"/>
    <path d="M201.049 45.2999C196.589 37.5753 193.17 36.2164 191.237 34.6786C192.835 37.5753 196.738 45.2999 199.042 48.5543" fill="#F9D050"/>
    <path d="M201.049 45.2999C196.589 37.5753 193.17 36.2164 191.237 34.6786C192.835 37.5753 196.738 45.2999 199.042 48.5543" stroke="black" stroke-width="0.522816"/>
    <path d="M192.129 44.7993C194.671 46.3374 196.849 48.3721 198.522 50.7715" stroke="black" stroke-width="0.522816"/>
    <path d="M192.129 48.3755C193.17 49.2338 195.14 50.2709 196.924 51.8086ZM213.315 50.9503C215.099 49.5914 219.002 47.3741 220.972 46.6589ZM212.051 49.7702C213.836 47.5172 217.404 44.4416 218.667 43.4045ZM217.032 39.1131C214.637 41.6957 212.379 44.3932 210.267 47.1953ZM212.423 37.5753C210.736 39.9761 209.245 42.4989 207.963 45.1211ZM198.336 37.9329C199.414 40.6866 201.384 45.2999 202.053 47.1953ZM196.738 40.8297C197.481 41.9025 198.894 44.2628 199.414 45.9794Z" fill="#F9D050"/>
    <path d="M192.129 48.3755C193.17 49.2338 195.14 50.2709 196.924 51.8086M213.315 50.9503C215.099 49.5914 219.002 47.3741 220.972 46.6589M212.051 49.7702C213.836 47.5172 217.404 44.4416 218.667 43.4045M217.032 39.1131C214.637 41.6957 212.379 44.3932 210.267 47.1953M212.423 37.5753C210.736 39.9761 209.245 42.4989 207.963 45.1211M198.336 37.9329C199.414 40.6866 201.384 45.2999 202.053 47.1953M196.738 40.8297C197.481 41.9025 198.894 44.2628 199.414 45.9794" stroke="black" stroke-width="0.522816"/>
    <path d="M202.796 39.9713C202.796 38.4336 203.874 36.7527 204.952 36.7527C206.179 36.7527 207.071 38.7912 207.071 39.9713C207.071 41.3661 205.993 42.5462 204.952 42.5462C203.837 42.5462 202.796 41.5449 202.796 39.9713Z" fill="#F9D050" stroke="black" stroke-width="0.522816"/>
    <path d="M200.492 41.3661C200.678 39.6495 201.904 38.2905 202.982 38.4336C204.06 38.6124 204.58 40.6866 204.395 41.8667C204.209 43.2257 202.982 44.2628 202.09 44.084C201.198 44.084 200.306 42.9038 200.492 41.3661ZM205.287 41.8667C204.915 40.3289 205.658 38.6481 206.736 38.4336C207.777 38.2905 208.855 39.9713 209.041 41.3661C209.412 42.725 208.483 44.084 207.591 44.084C206.736 44.2628 205.472 43.4045 205.287 41.8667Z" fill="#F9D050" stroke="black" stroke-width="0.522816"/>
    <path d="M202.61 43.2257C202.61 41.5449 203.688 40.0071 204.766 40.0071C205.993 40.0071 206.885 41.8668 206.885 43.2257C206.885 44.6204 205.844 45.8006 204.766 45.8006C203.688 45.8006 202.61 44.7993 202.61 43.2257Z" fill="#F9D050" stroke="black" stroke-width="0.522816"/>
    <path d="M199.414 44.084C199.414 42.5462 200.678 40.8654 201.718 40.8654C202.833 40.8654 203.874 42.9038 203.874 44.084C203.874 45.4787 202.61 46.6588 201.718 46.6588C200.678 46.6588 199.414 45.6575 199.414 44.084ZM205.993 43.4045C205.993 41.8667 207.108 40.1859 208.149 40.1859C209.375 40.1859 210.267 42.2244 210.267 43.4045C210.267 44.7992 209.227 45.9794 208.149 45.9794C207.071 45.9794 205.993 44.9423 205.993 43.4045Z" fill="#F9D050" stroke="black" stroke-width="0.522816"/>
    <path d="M205.287 44.7992C205.287 43.0826 206.55 41.5449 207.591 41.5449C208.706 41.5449 209.747 43.4045 209.747 44.7634C209.747 46.1582 208.669 47.3741 207.591 47.3741C206.55 47.3741 205.287 46.3012 205.287 44.7992V44.7992Z" fill="#F9D050" stroke="black" stroke-width="0.522816"/>
    <path d="M202.462 46.337C202.462 44.6204 203.503 43.0827 204.58 43.0827C205.844 43.0827 206.736 45.1211 206.736 46.3013C206.736 47.7317 205.621 48.9119 204.58 48.9119C203.503 48.9119 202.425 47.839 202.425 46.337H202.462ZM198.002 46.337C198.002 44.6204 198.894 43.0827 199.786 43.0827C200.678 43.0827 201.384 45.1211 201.384 46.3013C201.384 47.7317 200.492 48.9119 199.786 48.9119C198.894 48.9119 198.002 47.839 198.002 46.337V46.337ZM207.963 46.0152C207.963 44.4416 208.855 42.9039 209.747 42.9039C210.639 42.9039 211.531 44.7993 211.531 45.9794C211.531 47.5172 210.453 48.5543 209.747 48.5543C208.855 48.5543 207.963 47.5172 207.963 45.9794V46.0152Z" fill="#F9D050" stroke="black" stroke-width="0.522816"/>
    <path d="M209.041 48.8761C209.412 47.1953 210.453 45.8006 211.159 46.0152C211.903 46.1582 212.051 48.1966 211.717 49.4125C211.531 50.9503 210.453 51.8086 209.747 51.6298C209.004 51.4867 208.669 50.2708 209.004 48.9119L209.041 48.8761Z" fill="#F9D050" stroke="black" stroke-width="0.522816"/>
    <path d="M205.658 48.3754C205.844 46.8377 206.885 45.2999 207.777 45.4787C208.855 45.4787 209.375 47.5171 209.227 48.6973C209.041 50.2708 208.111 51.3079 207.257 51.1291C206.365 51.1291 205.472 49.9132 205.658 48.3754V48.3754ZM200.678 48.8761C200.12 47.1953 199.042 46.0151 198.336 46.1582C197.63 46.337 197.444 48.3754 197.816 49.5913C198.187 50.9503 199.228 51.8086 199.934 51.6298C200.492 51.4867 201.049 50.2708 200.678 48.9119V48.8761Z" fill="#F9D050" stroke="black" stroke-width="0.522816"/>
    <path d="M199.414 48.5542C199.414 47.0165 200.306 45.4787 201.198 45.4787C202.276 45.4787 202.982 47.3741 202.982 48.5542C202.982 50.092 202.09 51.1291 201.198 51.1291C200.455 51.1291 199.414 50.092 199.414 48.5542Z" fill="#F9D050" stroke="black" stroke-width="0.522816"/>
    <path d="M202.09 49.2337C202.09 47.5172 203.168 46.0151 204.209 46.0151C205.472 46.0151 206.365 47.8748 206.365 49.2337C206.365 50.6285 205.287 51.8086 204.209 51.8086C203.168 51.8086 202.09 50.7715 202.09 49.2337ZM202.982 30.3871C202.61 31.7461 201.384 32.962 202.239 34.8574C200.678 34.321 199.265 34.1421 198.002 35.5369C199.6 35.358 201.012 35.8945 201.718 36.8958C200.306 36.717 199.6 37.4322 199.228 38.2905C200.492 37.9329 201.718 37.5753 202.276 37.7541C201.718 38.2905 200.826 39.1131 200.678 39.8283C201.718 38.97 202.982 39.1131 203.688 38.6124C203.168 39.8283 204.209 41.0085 205.101 42.1886C204.952 40.5078 205.993 39.3276 205.472 38.4336C207.071 38.7912 207.257 40.1502 209.561 40.1502C208.669 39.6495 208.149 37.9329 207.071 37.9329C207.591 37.7541 209.747 37.5753 210.119 37.9329C209.747 37.2177 208.483 36.574 207.777 36.574C208.52 35.8587 209.747 34.4998 210.639 34.1421C209.375 34.321 207.442 34.4998 206.736 35.5369C208.483 34.1421 208.149 31.603 210.081 31.2454C209.041 31.0666 207.442 31.7461 206.179 32.962C206.736 31.9249 206.736 30.5659 207.442 30.2083C205.993 30.5659 204.395 32.2825 203.874 33.1408C203.797 32.1698 203.492 31.2283 202.982 30.3871V30.3871Z" fill="#F9D050" stroke="black" stroke-width="0.522816"/>
    <path d="M203.874 33.1408C203.874 33.6415 203.874 34.6786 203.688 35.0004ZM206.179 32.962C205.807 33.3196 205.101 34.4997 205.101 35.5368Z" fill="#F9D050"/>
    <path d="M203.874 33.1408C203.874 33.6415 203.874 34.6786 203.688 35.0004M206.179 32.962C205.807 33.3196 205.101 34.4997 205.101 35.5368" stroke="black" stroke-width="0.522816"/>
    <path d="M207.257 35.0004C206.644 35.3525 206.192 35.9147 205.993 36.574" stroke="black" stroke-width="0.522816"/>
    <path d="M188.375 51.9874C187.111 51.9874 186.07 51.4867 185.327 50.6285C184.1 49.0549 180.718 48.3754 179.268 49.7702C178.748 50.1278 178.042 50.1278 177.521 50.2708C176.629 50.2708 175.551 51.1291 175.886 52.8457C176.629 52.3093 176.778 52.8457 177.336 52.8457C177.707 52.6669 177.521 53.0245 177.521 53.3464C177.521 54.2047 179.454 55.9212 181.238 55.7424C183.208 55.7424 184.1 56.4577 184.435 56.8153C184.992 57.2802 184.621 57.1372 184.992 57.9954C185.513 58.4961 185.699 58.6749 184.806 59.3544C184.401 59.68 184.074 60.0874 183.85 60.5478C183.626 61.0082 183.51 61.5103 183.51 62.0187C183.51 62.527 183.626 63.0292 183.85 63.4896C184.074 63.95 184.401 64.3574 184.806 64.683C187.111 66.3638 192.984 68.9744 199.6 63.9677C205.993 59.1756 215.954 61.9293 216.697 63.6101C217.589 65.3624 217.924 66.3638 218.11 67.2221C218.296 67.9373 219.188 68.6168 220.452 68.438C221.678 68.438 223.091 68.9386 223.797 69.4751C224.726 69.9757 225.953 69.8327 225.618 68.2592C224.875 63.467 221.864 62.7876 221.529 60.5703C223.276 60.7134 224.503 60.7134 225.246 60.0339C225.767 59.3544 226.473 58.1385 227.216 57.8166C227.737 57.459 227.737 57.1014 227.03 57.2802C226.138 57.459 225.618 57.8166 223.983 57.6378C215.805 56.7795 192.835 50.7715 188.375 51.9874V51.9874Z" fill="#059334" stroke="black" stroke-width="1.2199"/>
    <path d="M224.726 57.8166C223.367 58.7389 222.206 59.9045 221.306 61.2497C219.559 63.467 214.207 65.6842 207.591 65.6842C201.198 65.6842 197.295 64.6829 194.433 62.4657C193.211 61.5256 191.891 60.7106 190.493 60.0338C188.561 59.1755 188.189 57.2802 188.709 55.7424C188.189 56.6007 187.854 57.459 186.776 57.2802C186.033 57.2802 184.621 57.2802 184.992 57.9954C184.806 57.6378 184.806 57.1371 184.621 56.9225L184.249 56.6007C184.806 56.9583 186.07 55.9212 186.962 55.9212C187.669 56.1 188.561 55.2417 188.375 54.2046L187.854 51.9874C189.267 51.2721 207.963 54.5622 211.717 54.8841C215.434 55.0629 226.138 56.6007 224.726 57.8166V57.8166Z" fill="black" stroke="black" stroke-width="1.2199"/>
    <path d="M190.865 51.3079C192.649 49.5913 194.768 48.733 196.924 49.2337H197.444C198.559 48.3754 201.012 48.1966 202.462 48.8761H203.168C205.287 48.1966 209.375 48.8761 210.825 50.2708L211.345 50.6284C216.177 50.2708 219.002 52.3093 222.384 55.5994C222.756 55.957 223.276 56.6007 224.168 56.7795C225.246 56.9583 225.432 57.4948 224.54 57.9954C223.111 58.8458 221.852 59.9359 220.823 61.214C219.188 63.2882 214.021 65.3624 207.591 65.3624C201.384 65.3624 197.63 64.2895 194.768 62.2511C193.169 61.071 191.943 60.3915 191.051 59.855C189.973 59.4974 188.561 58.1385 189.081 56.7795C189.453 55.4206 188.561 53.704 187.854 51.9874C188.375 51.6298 189.787 51.1291 190.493 51.4867L190.865 51.3079Z" fill="#059334" stroke="black" stroke-width="1.2199"/>
    <path d="M222.384 55.5994C219.039 52.3093 216.177 50.2708 211.345 50.5927C211.345 50.7715 211.345 51.3079 211.159 51.6655C214.527 53.1195 217.512 55.2827 219.894 57.9954C220.637 57.2802 221.864 56.4577 222.384 55.5994ZM210.825 50.2708C209.375 48.9119 205.287 48.1966 203.168 48.9119C203.168 49.5913 203.168 50.6284 202.796 51.3079C204.06 51.8086 205.101 53.0245 206.179 54.2046C206.922 54.0258 208.669 53.5252 209.561 53.3464C210.093 52.3667 210.517 51.3359 210.825 50.2708V50.2708ZM202.462 48.8761C201.012 48.1966 198.522 48.3754 197.444 49.2337C197.072 49.949 196.924 51.3079 196.924 51.9874C197.667 51.9874 198.708 52.4881 199.042 52.8457C200.157 52.4881 201.57 51.8086 202.09 51.3079C202.276 50.5927 202.61 49.5913 202.462 48.9119V48.8761ZM190.865 51.3079C192.649 49.5913 194.768 48.733 196.924 49.2337C196.552 49.7701 196.403 50.7715 196.403 51.8086C194.433 51.6298 191.943 52.1662 190.865 52.8457V51.3079Z" fill="#00493D" stroke="black" stroke-width="1.2199"/>
    <path d="M219.188 58.3173C216.949 55.7663 214.158 53.716 211.011 52.3093C211.011 52.4881 210.639 53.1675 210.453 53.704C211.531 55.2417 213.65 58.6749 214.542 60.5703C215.434 60.2127 217.924 59.1756 219.188 58.3173V58.3173ZM205.658 62.1081C205.966 59.7707 206.14 57.4187 206.179 55.0629C207.071 54.8841 208.855 54.3834 209.561 54.2046C210.453 55.5994 212.609 59.2113 213.501 60.8921C211.345 61.3928 207.777 62.2511 205.658 62.1081ZM199.414 53.8828C200.306 53.5252 201.57 52.8099 202.425 52.1662C203.168 52.6669 204.58 53.8828 205.101 54.5623C205.101 56.1 204.58 60.5703 204.395 62.0723C202.982 62.0723 200.678 61.7504 199.414 61.071C199.6 58.4961 199.786 55.5994 199.414 53.8828V53.8828ZM190.493 55.9212C190.679 55.5636 190.865 54.3834 190.865 53.8828C192.277 53.0245 195.846 52.1662 198.522 53.5252C198.708 55.2417 198.522 59.5332 198.336 60.5703C195.952 58.705 193.329 57.1425 190.531 55.9212H190.493Z" fill="#00493D" stroke="black" stroke-width="1.2199"/>
    <path d="M181.61 52.8099C181.238 52.8099 181.052 51.8086 180.346 51.8086C180.16 51.8086 179.64 51.9874 179.454 51.8086C179.454 52.1662 179.64 52.5238 179.826 52.6669C180.012 53.1676 180.904 52.8457 181.61 52.8457V52.8099Z" fill="black"/>
    <path d="M181.61 55.7424C183.729 55.7424 184.1 53.1675 185.178 53.0245M182.837 55.9212C184.435 56.6365 185.699 53.0245 186.925 53.1675M179.64 51.4867C180.16 51.4867 180.532 50.7715 181.424 51.6298C181.796 51.9874 182.316 52.1662 182.688 52.1662M182.316 54.0258C181.573 55.0987 180.346 55.7424 179.64 55.4205M179.268 49.7701C178.748 50.1278 178.413 50.7715 178.042 51.3079M177.521 52.3093V53.1675" stroke="black" stroke-width="1.2199"/>
    <path d="M236.992 74.6248V108.027C236.992 136.994 222.756 146.936 203.688 154.803C184.621 146.936 170.236 136.994 170.236 108.027V74.5891H236.992V74.6248Z" fill="white"/>
    <path d="M203.688 102.877C205.287 102.877 207.777 101.518 209.933 99.4437C212.237 97.0476 216.177 96.2251 220.266 99.4437C224.354 102.698 226.845 101.339 229 99.4437C231.119 97.5841 232.903 96.8688 236.992 96.8688V74.6248H170.199V96.9046C174.288 96.9046 176.072 97.6198 178.228 99.4795C180.346 101.375 182.837 102.734 186.962 99.4795C191.237 96.2609 194.954 97.0834 197.444 99.4795C199.414 101.554 201.904 102.913 203.688 102.913V102.877Z" fill="#C8102E"/>
    <path d="M203.688 120.043C205.844 120.043 210.119 117.79 211.159 117.289C215.099 115.036 217.924 117.11 220.266 118.147C222.756 119.149 227.365 120.364 230.227 118.147C233.089 115.894 234.687 116.073 236.657 116.073C237.029 113.498 237.029 110.923 237.029 108.027V105.952C234.501 105.452 233.275 106.131 230.599 108.384C227.922 110.601 224.875 110.101 220.935 108.742C217.218 107.168 213.501 104.45 209.747 108.742C208.19 110.416 206.017 111.442 203.688 111.603C201.012 111.603 198.708 109.922 197.63 108.742C193.727 104.45 190.159 107.168 186.405 108.742C182.502 110.101 179.268 110.601 176.629 108.384C174.139 106.131 172.875 105.452 170.199 105.952V108.027C170.199 110.923 170.385 113.498 170.719 116.073C172.689 116.073 174.139 115.894 176.964 118.147C179.826 120.364 184.621 119.149 186.962 118.147C189.453 117.11 192.277 115.036 196.217 117.289C197.295 117.79 201.384 120.007 203.688 120.007V120.043ZM203.688 127.41C206.775 127.249 209.773 126.365 212.423 124.835C215.991 122.939 218.482 123.762 222.05 125.514C225.767 127.231 228.815 126.694 230.97 125.514C232.011 124.799 232.903 123.44 235.208 123.976C234.167 128.268 232.531 132.023 230.599 135.098C229.08 135.583 227.477 135.772 225.882 135.656C224.287 135.539 222.731 135.119 221.306 134.419C217.59 132.702 212.943 131.665 210.453 133.203C208.433 134.468 206.096 135.185 203.688 135.277C201.718 135.277 199.228 134.562 196.924 133.203C194.433 131.665 189.787 132.702 186.07 134.419C184.648 135.124 183.094 135.551 181.499 135.674C179.904 135.797 178.299 135.613 176.778 135.134C174.845 132.023 173.247 128.232 172.169 123.976C174.474 123.44 175.366 124.835 176.443 125.514C177.776 126.238 179.28 126.618 180.811 126.618C182.341 126.618 183.846 126.238 185.178 125.514C188.895 123.798 191.385 122.939 194.954 124.799C197.6 126.342 200.599 127.238 203.688 127.41V127.41ZM203.688 154.803C210.578 152.234 217.01 148.651 222.756 144.182C221.306 143.681 220.452 144.003 219.188 143.145C217.924 142.287 214.207 141.965 211.011 143.681C208.794 144.925 206.273 145.581 203.707 145.581C201.14 145.581 198.62 144.925 196.403 143.681C193.17 141.965 189.453 142.287 188.226 143.145C186.962 144.003 186.07 143.681 184.621 144.218C190.343 148.71 196.782 152.285 203.688 154.803V154.803Z" fill="#0B50A0"/>
    <path d="M199.042 82.9931C199.228 83.3507 198.893 84.209 199.042 84.5309C199.414 85.2461 199.414 85.6037 199.934 85.9256H201.198C205.101 85.9256 209.747 84.3878 213.65 84.3878C217.404 84.3878 219.708 85.568 221.827 85.568C223.09 85.568 224.168 84.7097 224.168 83.8514C224.168 82.9931 222.756 82.4924 219.708 82.4924C215.434 82.4924 213.129 83.5295 209.561 83.5295C204.209 83.5295 203.317 81.6341 203.317 80.7759C203.317 79.9176 204.209 78.7374 207.071 78.7374C207.963 78.7374 208.669 78.5586 209.041 78.201C209.226 77.8434 209.747 77.1639 210.825 76.6632C212.051 75.948 214.542 76.6632 215.805 75.8049C215.805 76.5202 214.727 77.5215 213.835 77.8791C215.62 77.3427 217.552 77.3427 217.924 78.7374C217.032 78.201 215.62 78.5586 215.099 78.7374C214.356 78.8805 214.021 79.095 213.315 79.2381C214.021 79.0593 214.393 80.4182 215.434 80.4182C214.393 81.2765 212.609 81.2765 210.825 80.597C210.267 80.4182 208.855 79.9176 207.963 79.9176C206.179 79.9176 205.101 80.2752 205.101 80.9547C205.101 81.813 206.216 82.3136 209.375 82.3136C212.609 82.3136 214.393 81.4553 219.188 81.4553C218.816 80.9547 219.374 80.4182 218.667 79.9176C220.451 79.9176 222.384 80.4182 223.128 81.6341C222.942 80.4182 223.983 79.4169 223.648 78.3798C224.726 78.5586 225.618 79.5599 225.767 80.4182C225.767 79.9176 226.51 79.9176 226.51 79.4169C227.007 79.6755 227.409 80.0751 227.662 80.5614C227.915 81.0477 228.006 81.5971 227.922 82.1348C228.443 81.2765 229 81.6341 229.335 80.597C229.707 81.3123 229.521 83.3507 228.257 84.0302C229.372 83.315 230.933 83.315 232.011 84.5309C230.933 84.3878 230.413 84.8885 229.892 85.0673C227.299 86.3427 224.401 86.9349 221.492 86.7839C218.667 86.6051 218.296 86.0686 216.512 86.0686C217.589 86.2475 219.708 88.3217 221.715 88.3217C222.942 88.3217 223.834 88.3217 224.354 88.1428C224.875 87.964 225.767 88.1428 226.473 88.5005C227.03 89.0011 228.108 89.5018 228.814 89.3588C228.629 90.0382 228.257 90.3601 227.737 90.5389C228.629 91.0753 228.108 91.3972 229 92.0767C228.629 92.0767 228.257 92.4343 227.737 92.2555C228.257 92.7561 228.257 93.4714 228.814 93.7933C228.629 93.7933 228.071 93.9721 227.737 93.7933C228.257 94.5085 227.737 95.331 228.257 95.6886C228.814 96.4039 227.737 97.2264 226.845 96.5469C227.03 97.0476 226.473 97.584 225.952 97.4052C225.432 97.2264 225.06 96.69 225.209 96.5469C225.209 96.3681 225.209 96.3681 225.432 96.1893C225.06 96.7257 224.354 96.7257 223.983 96.5469C223.834 96.3681 223.611 96.1893 223.611 96.0463C222.384 96.4039 221.864 95.331 222.05 94.8304C222.198 94.3297 223.276 94.1151 223.648 94.3297C224.02 94.4727 224.354 94.6873 224.726 94.3297C225.098 94.1509 225.246 93.7933 225.246 93.4714C225.246 92.935 224.726 91.3972 222.384 91.576C219.708 91.7548 215.434 91.0753 213.315 90.3601C213.129 90.217 212.943 90.217 212.758 90.0025C212.758 90.7177 212.051 91.0753 212.051 91.7548C212.051 92.6131 212.423 93.2926 213.501 93.6144C212.943 94.4727 212.051 94.3297 211.717 93.7933C211.717 94.3297 210.973 94.6515 210.973 95.331C210.825 94.9734 210.602 94.8304 210.453 94.4727C209.933 95.6886 208.483 96.3681 207.777 96.0463C206.885 96.7257 205.844 96.5469 205.472 95.8674C204.952 96.2251 204.209 96.2251 203.874 95.8674C203.874 96.3681 203.502 96.2251 203.317 96.9045C203.317 97.2622 202.61 97.4052 202.276 97.2622C201.904 97.0476 201.718 96.3681 202.09 96.0463C201.57 96.4039 201.012 96.4039 200.678 96.0463C200.678 95.6886 200.678 95.188 201.049 94.9734H201.384C201.012 94.8303 200.492 94.9734 200.12 94.8304C199.748 94.4727 199.748 94.1151 199.934 93.7933C200.12 93.6144 200.678 93.2926 201.049 93.6144L201.198 93.7933C201.198 93.4356 201.384 93.1138 201.57 93.1138C201.941 92.935 202.425 92.935 202.982 93.4714C203.354 93.9721 203.688 93.9721 204.766 93.829C205.658 93.829 207.071 92.935 208.111 92.0767C205.138 91.576 206.885 89.6806 207.777 89.0011C207.071 88.8223 205.993 88.8223 205.287 89.1799C201.57 91.0753 197.63 93.2926 195.139 92.6131C195.174 92.9716 195.302 93.316 195.511 93.6144C194.954 93.6144 193.876 93.6144 193.541 93.1138C193.355 93.4714 193.021 94.3297 193.355 95.0092C192.984 94.6515 191.943 94.2939 191.385 94.1509C191.757 94.5085 191.385 95.188 191.571 95.6886C191.051 95.188 190.159 94.8304 189.787 95.188C189.415 95.5456 188.709 95.6886 188.189 95.5456C187.842 96.0169 187.347 96.3681 186.776 96.5469C186.776 96.1893 186.776 95.6886 186.591 95.5098C186.405 96.0463 185.847 96.7257 185.178 97.0476C185.178 96.69 185.178 96.1893 184.992 95.8674C184.992 96.5469 183.58 96.9046 183.394 97.4052C183.58 96.9046 183.58 96.3681 183.58 96.0463C183.383 96.3503 183.122 96.6119 182.815 96.815C182.509 97.018 182.161 97.1581 181.796 97.2264C181.944 96.8688 182.167 96.5112 181.944 96.1893C181.796 96.9045 180.718 97.2622 179.826 97.0476C179.826 97.4052 179.082 97.9059 178.228 97.4052C177.67 97.2264 177.335 96.69 177.67 96.3681C176.964 96.3681 176.258 95.6886 176.629 95.188C176.629 95.0092 176.778 94.8304 176.778 94.6515C176.258 94.2939 176.072 93.6144 176.629 93.1138C176.778 92.935 177.335 92.935 177.67 92.935C177.67 91.576 178.934 91.576 179.454 92.5773C179.826 93.1138 180.904 93.9721 181.796 93.7933C182.167 93.7933 182.316 93.6144 182.688 93.6144C184.287 93.106 185.792 92.3577 187.148 91.3972C187.297 90.8965 187.297 90.5389 187.297 90.217C186.591 90.5747 185.884 90.8965 185.513 91.3972V90.8965C184.992 90.8965 184.1 90.7177 183.729 90.7177C183.914 90.5389 184.1 89.6806 184.472 89.5018C183.58 89.6806 182.688 89.5018 181.944 89.3588C182.316 89.0011 182.316 88.5005 182.502 87.964C182.13 88.1428 181.238 87.821 180.532 87.964C180.718 87.4634 180.904 86.7839 181.424 86.6051C180.681 86.7839 179.826 86.6051 178.934 86.2475C179.677 86.2475 180.012 85.3892 180.532 85.3892C179.12 85.3892 178.748 84.7097 178.042 84.3878C178.562 84.5309 178.934 84.0302 179.454 84.0302C178.934 83.8514 178.042 82.9931 178.413 82.4924C178.228 82.6712 178.042 82.9931 177.67 83.2077C177.298 83.3507 176.629 83.2077 176.072 82.6712C175.7 81.956 175.886 81.1335 176.629 80.9547C176.466 80.9446 176.31 80.8897 176.178 80.7965C176.046 80.7034 175.945 80.5759 175.886 80.4291C175.828 80.2823 175.814 80.1224 175.847 79.9684C175.88 79.8144 175.958 79.6726 176.072 79.5599C176.258 79.2023 176.964 78.7374 177.336 79.2023L177.856 79.9176C177.67 79.5599 177.67 78.8805 177.67 78.3798C177.856 77.8791 178.228 77.8791 178.785 77.6646C179.268 77.6646 179.64 78.201 179.64 78.7374C179.64 79.2381 179.826 79.5599 180.012 80.2752L180.16 79.5599C180.16 78.8805 181.052 79.0593 181.61 79.2023C182.13 79.4169 182.316 80.4182 181.61 80.9547C181.238 81.3123 181.424 81.813 181.796 82.1348C183.022 84.0302 185.141 85.568 186.962 85.7468C186.962 85.0315 187.334 84.3878 187.854 83.8514C187.854 83.4938 188.003 82.9931 188.226 82.6712C188.375 81.6341 188.895 81.1335 189.601 81.4553C189.453 81.2765 189.23 81.0977 189.23 80.9547C188.709 80.4182 188.189 79.5599 188.561 78.8805C188.932 78.201 189.973 78.3798 190.345 78.7374C190.159 77.6646 191.385 76.842 191.385 76.3056C191.571 76.842 191.943 77.5215 191.757 78.0222C191.943 77.3427 193.169 76.4844 194.062 76.1626C193.69 76.6632 194.805 77.5215 194.619 78.0222C194.991 77.1639 196.403 76.6632 197.444 76.6632C197.072 77.0208 197.072 77.7003 197.072 78.0222C197.63 78.0222 198.559 77.8791 198.893 77.3427C198.893 78.0579 198.522 78.7374 198.15 79.0593C198.336 78.8805 199.042 78.8805 199.6 78.8805C199.042 79.4169 199.228 79.9533 198.708 80.2752C199.414 79.9176 200.306 79.9176 200.492 80.6328C200.863 81.1335 200.306 81.9918 199.934 82.4924C199.563 82.6712 199.228 82.9931 199.042 82.9931V82.9931Z" fill="#F9D050" stroke="black" stroke-width="1.2199"/>
    <path d="M188.04 85.0673C186.776 85.5679 186.405 86.7838 186.219 87.4633" stroke="black" stroke-width="1.2199"/>
    <path d="M187.854 86.2474C186.07 87.3203 185.327 88.1428 185.699 90.0382M188.709 91.4329C189.824 91.0753 190.493 90.7177 191.385 89.1799" stroke="black" stroke-width="1.2199"/>
    <path d="M190.865 89.8594C190.493 90.5747 190.865 91.7548 190.345 92.2555C190.823 92.0266 191.235 91.6885 191.546 91.2709C191.857 90.8532 192.057 90.3686 192.129 89.8594" stroke="black" stroke-width="1.2199"/>
    <path d="M191.237 91.7548C191.943 91.3971 193.021 90.3601 193.541 89.1799C193.355 89.6806 193.541 90.5389 193.169 91.0753C194.062 90.217 194.433 89.6806 194.619 88.8223L194.768 89.5375C195.139 89.1799 195.511 88.8223 195.511 88.1428M195.474 88.6435V89.5018C196.217 89.0011 196.403 88.3216 196.403 87.4633" stroke="black" stroke-width="1.2199"/>
    <path d="M196.217 88.5004C197.295 87.7852 197.444 86.7839 197.444 85.2461M197.444 86.9627C198.187 86.4262 198.336 86.1044 198.336 84.5309M196.031 79.9176C195.66 79.9176 195.288 80.0964 195.288 80.6328C195.288 80.9547 194.768 81.4553 194.768 81.9918C194.619 82.6712 194.247 82.85 193.727 82.6712C193.169 82.3136 193.169 82.3136 193.169 81.8129C193.169 81.0977 194.062 80.9547 194.062 80.2752C194.247 79.9176 194.433 79.4169 194.619 79.4169C193.727 79.9175 192.463 79.5599 192.277 78.5586" stroke="black" stroke-width="1.2199"/>
    <path d="M197.63 80.4182C197.258 80.597 196.886 80.0606 196.403 80.2752C196.217 80.2752 195.66 80.4182 195.511 80.2752" stroke="black" stroke-width="1.2199"/>
    <path d="M195.139 81.2765C195.325 81.4553 196.217 81.8129 197.109 81.4553C196.366 81.6341 195.846 80.7758 196.552 80.2752M193.541 79.5599C192.798 79.5599 192.277 80.0964 192.463 80.6328C192.649 81.1335 193.355 81.1335 193.876 80.7758M192.277 88.1428C192.463 87.964 192.649 87.6422 192.649 87.4276C193.021 87.4276 193.392 87.2845 193.541 87.1057C194.247 87.1057 194.768 86.6051 194.954 86.1044C195.325 86.1044 195.511 85.2461 195.697 84.8885C195.846 85.0673 196.217 84.8885 196.403 84.1732C196.775 84.3878 197.295 84.1732 197.444 83.6726M190.159 82.4924C190.159 82.6712 189.787 82.9931 189.415 83.2077C189.601 83.5295 189.415 84.3878 189.081 84.5309C189.267 84.8885 189.081 85.3892 188.895 85.7468C188.895 85.9256 189.081 86.462 189.081 86.6051M190.865 79.0593C190.493 79.9176 190.679 80.9547 191.385 81.1335" stroke="black" stroke-width="1.2199"/>
    <path d="M191.237 81.7772C191.051 82.6713 191.051 83.8514 190.865 84.3878C190.679 84.7455 190.345 85.9256 191.757 86.2475C193.355 86.6051 194.247 86.4263 195.139 83.8514M197.816 90.5389C197.816 90.7177 197.63 91.0753 197.295 91.0753M199.042 90.2171C199.042 90.5747 198.67 91.0753 198.522 91.2184M200.306 89.8594C200.306 90.2171 200.306 90.7177 199.934 90.8965M189.453 79.2381C189.601 79.2381 189.824 79.5957 189.973 79.9176C189.453 79.56 188.895 80.4182 189.23 80.9547M188.895 82.1348L188.189 82.6713M188.375 83.6726C188.189 83.6726 188.003 83.8514 187.854 83.8514M179.826 80.5971C179.826 80.4182 179.826 80.4182 180.012 80.2394M178.228 80.0964C178.042 80.0964 178.042 80.0964 177.856 79.9176M178.376 82.4924H178.748M177.67 81.4554C177.388 81.1856 177.023 81.0101 176.629 80.9547M187.483 87.821C186.219 88.8223 185.699 89.6806 185.513 90.8965M188.709 88.6435C188.394 89.2804 187.906 89.8239 187.297 90.2171M181.796 93.7933C181.201 93.9778 180.57 94.0286 179.951 93.9419C179.333 93.8551 178.743 93.633 178.228 93.2926C178.042 93.1138 177.856 93.1138 177.67 92.935M187.111 91.433C186.962 92.0767 186.739 92.935 186.405 93.1138C187.854 92.3985 189.081 91.3972 189.267 89.8594M176.778 94.6516C177.335 94.4727 177.893 94.8304 178.228 94.4727M207.777 89.0011C208.149 89.18 208.669 89.3588 208.855 89.5018C209.041 89.1442 209.747 88.6435 210.267 88.5005M195.139 92.6131C194.954 91.8979 195.325 91.0753 196.403 90.7177M188.189 95.5098C188.375 95.1522 188.375 94.6516 188.561 94.3297M180.346 96.0463C180.16 96.4039 179.826 96.7258 179.826 97.0476M177.67 96.3681C177.67 96.3681 177.67 96.1893 177.856 96.1893C178.228 96.0463 178.748 95.6886 178.934 95.331M201.904 93.9721C201.532 94.1509 201.384 93.9721 201.198 93.7933M201.718 94.8304C201.718 94.8304 201.57 95.0092 201.347 95.0092M202.61 95.6886C202.425 95.8675 202.239 96.0463 202.09 96.0463M207.777 96.0463C208.149 95.8675 208.334 95.5098 208.52 94.8304M205.472 95.8675C205.993 95.6886 206.364 95.331 206.885 94.8304M210.453 94.4727C210.453 94.1151 210.453 93.7933 210.639 93.4714M223.648 96.0463C223.276 95.6886 223.276 95.188 223.834 94.8304C224.206 94.6516 224.354 94.4727 224.726 94.3297" stroke="black" stroke-width="1.2199"/>
    <path d="M212.757 90.0025C209.933 88.8223 210.118 87.2846 207.777 87.4634M225.432 95.3668C225.618 95.5098 225.432 96.0463 225.432 96.1893M227.03 95.3668C226.845 95.8675 226.845 96.0463 226.845 96.5469M213.315 79.2381H211.828M198.336 85.0673C198.336 85.4249 198.893 86.1044 200.306 86.1044C200.12 86.1044 199.934 85.9256 199.934 85.9256M199.042 82.9931C198.893 83.1719 198.67 82.9931 198.67 82.9931C198.336 82.6355 198.893 81.9918 199.414 81.6342C198.893 81.813 198.522 81.813 198.15 81.813C197.778 82.8501 196.738 83.3507 196.031 82.6713C195.846 83.3507 194.954 84.209 194.247 84.0302C193.504 83.6726 193.355 83.1719 193.504 82.6713C192.649 83.6726 191.571 83.0289 191.237 82.6713C191.051 82.3136 191.237 81.4553 191.608 80.4182" stroke="black" stroke-width="1.2199"/>
    <path d="M210.453 89.5018C209.933 89.8595 209.375 89.5018 208.855 90.0383C208.483 90.3959 209.041 90.5389 209.375 90.5389C209.226 91.0754 209.226 91.2542 210.119 91.2542C209.747 91.7548 210.825 91.9336 210.639 92.6131C210.863 92.3898 211.016 92.1102 211.082 91.8065C211.148 91.5027 211.123 91.1873 211.011 90.8965C210.825 90.3601 209.896 90.0383 210.453 89.5018Z" fill="black"/>
    <path d="M194.247 84.0302C193.504 83.6726 193.355 83.1719 193.504 82.6713C193.355 83.0289 193.021 83.1719 192.649 83.1719C191.906 84.7097 191.051 86.1044 189.973 86.1044C188.709 86.2475 188.895 87.4634 189.787 87.4634C191.757 87.821 192.649 87.1057 194.247 84.0302V84.0302ZM176.629 79.9176C177.15 79.4169 176.778 78.8805 176.443 78.7374C175.886 78.5586 174.845 78.7374 174.288 79.56C174.845 79.4169 175.403 79.4169 175.551 79.7388C175.737 80.0964 176.072 80.454 176.629 79.9176ZM177.521 76.842C178.748 76.842 179.12 77.0208 179.268 77.5215C179.454 77.8791 179.12 78.3798 178.748 78.3798C178.228 78.3798 177.67 78.0222 177.856 77.8791C178.042 77.5215 178.042 77.0208 177.484 76.8063L177.521 76.842ZM181.052 79.56C181.944 79.7388 182.316 79.2023 181.796 78.5586C181.61 78.0222 181.052 77.7003 180.16 77.8434C181.052 78.3798 180.16 79.2381 181.052 79.56ZM174.474 82.4924C174.633 82.7967 174.901 83.0359 175.228 83.1671C175.555 83.2982 175.92 83.3126 176.258 83.2077C176.778 82.9931 177.001 82.4924 176.778 82.1348C176.406 81.6342 175.886 81.4553 175.737 82.1348C175.366 82.8501 174.845 82.6713 174.474 82.4924ZM177.15 92.935C176.778 92.2555 175.737 92.2555 174.845 92.935C175.217 92.7562 175.886 92.935 176.072 93.2926C176.258 93.6502 176.629 93.6502 176.815 93.6502C176.964 93.4714 177.336 93.2926 177.15 92.935V92.935ZM178.562 91.9336C178.562 91.0753 177.336 90.8608 176.629 91.2184C177.001 91.2184 177.521 91.576 177.521 91.9336C177.67 92.2912 178.042 92.4343 178.228 92.4343C178.599 92.2555 178.748 92.0767 178.599 91.9336H178.562ZM176.778 95.0092C175.737 94.8304 175.18 96.0463 175.18 96.8688C175.366 96.3681 175.923 96.0463 176.443 96.1893C176.964 96.1893 177.15 96.0463 177.15 95.6886C177.336 95.331 177.15 95.188 176.778 94.9734V95.0092ZM176.964 97.9059C177.336 98.0847 177.707 97.7271 177.856 97.2264C177.856 96.8688 178.599 96.8688 178.748 97.0476C179.12 97.2264 179.12 97.9059 178.562 98.2635C178.19 98.4423 177.336 98.6211 176.964 97.9059ZM201.718 92.7562C201.347 92.6131 200.492 92.2555 199.786 92.7562C200.306 92.6131 200.678 92.935 200.826 93.2926C200.826 93.6502 201.384 93.7933 201.57 93.4714C201.718 93.2926 201.941 92.935 201.718 92.7562V92.7562ZM200.12 93.9721C199.414 93.6144 198.522 94.4727 198.336 95.188C198.699 94.9029 199.136 94.7175 199.6 94.6515C199.971 94.8304 200.306 94.6515 200.306 94.2939C200.492 94.1509 200.492 93.9721 200.12 93.9721ZM201.049 95.3668C200.492 95.3668 199.786 96.0463 199.786 96.7257C199.934 96.3681 200.306 96.1893 200.678 96.3681C201.049 96.3681 201.57 96.1893 201.57 95.8675C201.57 95.5098 201.384 95.331 201.012 95.331L201.049 95.3668ZM202.61 96.7257C202.239 96.5469 201.718 96.7257 201.718 97.2264C201.718 97.7271 201.718 98.2635 201.57 98.4423C201.941 98.0847 202.276 97.9059 202.61 97.7271C202.796 97.584 202.982 97.0476 202.61 96.7257V96.7257ZM222.756 95.188C222.384 94.8304 221.864 95.0092 221.678 95.331C221.492 95.6886 221.306 96.5469 221.678 97.2264C221.678 96.8688 222.05 96.3681 222.421 96.3681C222.942 96.1893 223.09 95.5098 222.756 95.188ZM223.834 95.8675C223.09 96.2251 223.09 97.4052 223.648 98.0847C223.648 97.7271 223.834 97.2264 224.168 97.0476C224.726 97.0476 224.912 96.3681 224.726 96.0463C224.354 95.6886 223.983 95.8675 223.834 95.8675ZM225.952 96.5469C225.581 96.3681 225.209 96.7257 225.209 97.0476C225.06 97.584 225.432 98.2635 225.952 98.5854C225.952 98.2277 226.138 97.9059 226.324 97.7271C226.845 97.3695 226.696 96.7257 225.952 96.5469ZM227.551 96.3681C227.179 96.3681 226.845 96.8688 227.179 97.4052C227.365 97.7628 227.737 97.9059 228.443 97.7628C228.257 97.7628 227.922 97.2264 228.071 97.0476C228.257 96.69 228.071 96.3681 227.551 96.3681Z" fill="#073163"/>
    <path d="M178.042 128.411L186.962 102.019L195.883 128.411L172.504 112.139H201.421L178.042 128.411Z" fill="#F9D050"/>
    <path d="M179.826 126.015L198.336 112.997H175.551L193.876 126.015L186.962 105.13L179.826 126.015Z" fill="#024919"/>
    <path d="M211.531 128.411L220.452 102.019L229.372 128.411L205.993 112.139H234.91L211.531 128.411Z" fill="#F9D050"/>
    <path d="M213.315 126.015L231.825 112.997H209.041L227.365 126.015L220.451 105.13L213.315 126.015Z" fill="#024919"/>
    <path d="M194.768 147.079L203.688 120.686L212.609 147.079L189.23 130.807H218.147L194.768 147.079Z" fill="#F9D050"/>
    <path d="M196.552 144.683L215.062 131.665H192.277L210.602 144.683L203.688 123.798L196.552 144.683Z" fill="#024919"/>
    <path d="M236.992 74.6248V108.027C236.992 136.994 222.756 146.936 203.688 154.803C184.621 146.936 170.236 136.994 170.236 108.027V74.5891H236.992V74.6248Z" stroke="black" stroke-width="1.2199"/>
  </g>
  <defs>
    <clipPath id="clip0_1_256">
      <rect width="273" height="197" fill="white"/>
    </clipPath>
  </defs>
</svg>
