<svg width="256" height="183" viewBox="0 0 256 183" fill="none" xmlns="http://www.w3.org/2000/svg">
    <path d="M0 0H256V183H0V0Z" fill="#FFB700"/>
    <path d="M10.68 91.5L45.88 10.1794H81.08V172.821H45.88L10.68 91.5Z" fill="#FF5B00"/>
    <path d="M10.68 10.1794H45.88V172.821H10.68V10.1794Z" fill="#005641"/>
    <path d="M91.72 10.1794H246.4V172.821H91.72V10.1794Z" fill="#8D2029"/>
    <path d="M231.72 155.779C231.72 155.779 233.16 158.562 234.76 159.744C237.16 161.421 241.96 161.269 244.08 163.289C246.52 165.615 243.88 168.703 243.88 169.008L244.04 170.609C244.04 170.609 242.36 170.609 241.64 170.724C240.6 170.876 240.2 171.715 238.2 171.601C233.28 171.296 233.48 167.026 233.2 163.404C232.96 162.031 232.4 160.201 232.04 158.829C231.76 157.685 231.72 155.779 231.72 155.779Z" fill="#FFB700" stroke="black" stroke-width="1.1"/>
    <path d="M106.4 155.779C106.4 155.779 104.96 158.562 103.36 159.744C100.96 161.421 96.16 161.269 94.04 163.289C91.6 165.615 94.24 168.703 94.24 169.008L94.08 170.609C94.08 170.609 95.76 170.609 96.48 170.724C97.52 170.876 97.92 171.715 99.92 171.601C104.84 171.296 104.64 167.026 104.92 163.404C105.16 162.031 105.72 160.201 106.08 158.829C106.36 157.685 106.4 155.779 106.4 155.779Z" fill="#FFB700" stroke="black" stroke-width="1.1"/>
    <path d="M231.72 27.2213C231.72 27.2213 233.16 24.4381 234.76 23.2563C237.16 21.5788 241.96 21.7313 244.08 19.7106C246.52 17.385 243.88 14.2969 243.88 13.9919L244.04 12.3906C244.04 12.3906 242.36 12.3906 241.64 12.2763C240.6 12.1238 240.2 11.285 238.2 11.3994C233.28 11.7044 233.48 15.9744 233.2 19.5963C232.96 20.9688 232.4 22.7988 232.04 24.1713C231.76 25.315 231.72 27.2213 231.72 27.2213Z" fill="#FFB700" stroke="black" stroke-width="1.1"/>
    <path d="M106.44 27.2213C106.44 27.2213 105 24.4381 103.4 23.2563C101 21.5788 96.2 21.7313 94.08 19.7106C91.64 17.385 94.28 14.2969 94.28 13.9919L94.12 12.3906C94.12 12.3906 95.8 12.3906 96.52 12.2763C97.56 12.1238 97.96 11.285 99.96 11.3994C104.88 11.7044 104.68 15.9744 104.96 19.5963C105.2 20.9688 105.76 22.7988 106.12 24.1713C106.4 25.315 106.44 27.2213 106.44 27.2213Z" fill="#FFB700" stroke="black" stroke-width="1.1"/>
    <path d="M145.4 129.549L146.32 129.015L146.72 129.549C147.24 130.235 148.72 130.197 149.68 129.549L150.44 128.977L151.08 129.511C151.88 130.235 153.4 130.235 154.4 129.511C155.08 129.053 155.2 129.015 155.6 129.396C155.88 129.625 156.68 129.854 157.36 129.968C158.64 130.121 158.64 130.121 159.36 129.053C160 128.176 160.08 127.833 159.96 126.956C159.848 126.286 159.768 125.612 159.72 124.936C159.64 123.944 159.68 123.944 161.16 123.411C161.895 123.196 162.616 122.941 163.32 122.648C163.92 122.305 165.6 120.437 165.6 120.056C165.6 119.979 164.96 119.827 164.16 119.751C160.96 119.369 160.44 117.768 162.52 114.794C165.84 109.838 167.88 105.073 167.88 102.061C167.88 100.688 168 100.231 168.16 100.536C168.92 101.718 167.56 106.788 165.56 110.448L164.76 111.897L165.52 111.744C165.92 111.63 168.48 110.601 171.12 109.457C178.4 106.331 180.88 105.721 185.6 105.911C189.56 106.064 191.2 106.788 194 109.571C195.48 111.096 196.92 112.126 199.52 113.689C205.04 116.968 205.28 117.273 205.56 121.161C205.84 125.088 205.68 125.317 202.56 125.965C199.88 126.537 198.2 127.719 197.76 129.396C197.52 130.235 198.04 130.273 199.36 129.434L200.36 128.824L200.8 129.434C201.4 130.235 202.6 130.235 203.6 129.434L204.4 128.863L205.2 129.434C206.4 130.388 208 130.159 208.48 128.977C208.56 128.786 208.8 128.824 209.28 129.244C210.2 130.006 212.48 130.311 212.72 129.701C212.8 129.473 212.64 128.939 212.32 128.481C211 126.575 210.56 125.698 210.56 124.669C210.56 123.22 210.96 122.496 212.72 121.352C214.8 119.903 215.44 118.073 213.84 118.073C212.88 118.073 211.88 117.234 211.24 115.9C209.96 113.155 210.24 110.105 212.16 104.996C213.632 101.99 214.371 98.7057 214.32 95.3888C214.32 92.5675 214.24 92.11 213.6 90.5469C213.099 89.4601 212.483 88.4253 211.76 87.4588L210.64 86.0481L212.04 84.9044C216.36 81.5113 215.48 75.945 210.28 73.81C208.68 73.1238 208.28 73.0856 205.48 73.0856C203.88 73.0856 201.28 73.3144 199.88 73.5813C198.001 73.8647 196.102 74.0176 194.2 74.0388C191.48 74.0388 191 73.9625 189.96 73.4288C188.88 72.895 188.68 72.6281 188.48 71.3319C188.461 71.2097 188.411 71.0938 188.334 70.9942C188.257 70.8946 188.156 70.8142 188.04 70.76C187.64 70.6456 185.96 72.0563 185.72 72.6663C185.56 73.0094 185.48 72.9713 185.12 72.5519C184.781 72.1364 184.511 71.6734 184.32 71.1794C183.92 69.9213 184.44 69.0063 186 68.2819L187.2 67.7481L186.48 67.3288C185.04 66.4519 182.56 67.0619 181.68 68.4725C181.4 68.8538 181.12 69.235 181.04 69.235C180.96 69.235 180.48 68.8538 180 68.3581C178.12 66.6044 178.76 64.0119 181.28 63.2494C182.6 62.83 183.8 63.135 184.04 64.0119C184.44 65.27 185.56 63.5925 185.36 62.0294C185.24 61 185.24 60.9619 186 60.9619C187.04 60.9619 189.2 62.2581 189.92 63.2494C190.72 64.4313 190.64 66.2994 189.76 67.6719L189.08 68.7394L190 68.5869C191.28 68.32 192.56 67.5575 193.2 66.6044C193.537 65.9973 193.727 65.3257 193.754 64.6393C193.782 63.9529 193.647 63.2693 193.36 62.6394C192.76 61.61 192.84 61.4575 193.72 61.8006C195.16 62.3725 195.96 63.0206 196.52 64.1263C197.08 65.1175 197.12 65.3463 196.84 66.4138C196.648 67.0637 196.352 67.6812 195.96 68.2438C195.48 68.8538 195.44 68.9681 195.84 68.9681C196.56 68.9681 198 68.32 198.52 67.8244C198.8 67.5194 199.2 66.8713 199.4 66.2994L199.8 65.3463L200.2 66.1088C200.8 67.1381 202 68.0913 203.44 68.7013C205 69.3113 205.64 69.3494 204.84 68.7775C204.28 68.3963 203.24 65.5369 203.6 65.27C205.326 66.1914 206.903 67.3473 208.28 68.7013C210.56 70.6456 212 71.2938 214.08 71.2938C216.76 71.2938 218.32 69.0825 217.12 66.9856C216.44 65.7656 214.88 65.575 213.92 66.6044C213.52 67.1 213.4 67.4813 213.52 68.015C213.68 68.625 213.64 68.7013 213.04 68.7013C212.24 68.7013 210.72 67.7481 208 65.575C204.214 62.4694 199.862 60.0529 195.16 58.4456C191.975 57.7439 188.686 57.5762 185.44 57.95C182.88 58.4075 179.84 59.8181 178.16 61.305C175.24 63.9738 175.2 67.5194 178.04 70.76L178.84 71.675L178.32 72.5138C177.929 73.1145 177.735 73.8131 177.764 74.5196C177.792 75.2261 178.042 75.9084 178.48 76.4788C178.88 77.0125 179.28 77.4319 179.4 77.4319C179.48 77.4319 179.56 77.0888 179.6 76.6694C179.68 75.64 180.16 74.9538 180.96 74.6869C181.68 74.42 182.16 74.5725 185.44 75.8306C188.92 77.1269 194.64 77.2031 200.72 76.0594C203.355 75.4793 206.097 75.5055 208.72 76.1356C211.6 77.2794 212.24 80.215 210.16 82.4263C209.24 83.4175 208.4 83.7988 205.48 84.5613C202.938 85.2003 200.295 85.394 197.68 85.1331C193.36 85.095 191.8 85.1713 190.08 85.5144C188.12 85.8956 186.96 85.9338 181.36 85.8194L174.84 85.6669L175.56 86.2006C175.946 86.527 176.36 86.8204 176.8 87.0775C177.32 87.3444 177.28 87.3825 176.56 87.6494C176.16 87.8019 175.2 87.9163 174.44 87.9163H173.12L172.96 88.9838C172.852 89.4869 172.852 90.0056 172.96 90.5088C173.12 90.89 173.04 90.9663 172.64 90.8138C172.36 90.6994 171.6 90.5088 170.92 90.3944C170.234 90.2542 169.564 90.0498 168.92 89.7844C168.16 89.4031 168.08 89.4031 167.8 89.8988C167.56 90.28 165.32 91.8813 165 91.8813C164.855 90.8922 164.559 89.9287 164.12 89.0219C163.72 88.2213 163.36 87.3063 163.24 87.0394C163.12 86.62 163.04 86.5819 162.84 86.925C162.72 87.1156 162.56 87.6875 162.44 88.145C162.3 88.7625 162.057 89.3546 161.72 89.8988L161.12 90.7375L160.72 90.0131C160.32 89.2506 159.68 88.4119 159.44 88.4119C159.36 88.4119 159.24 88.6406 159.16 88.9838C158.96 89.5938 157.4 91.3856 157 91.3856C156.88 91.3856 156.76 90.89 156.76 90.2419C156.76 89.67 156.64 89.1363 156.48 89.1363C156.32 89.1363 156.2 89.3269 156.2 89.5175C156.2 89.975 154.88 91.4238 154.4 91.4238C154.24 91.4238 153.92 91.5763 153.72 91.805C153.24 92.3006 152.84 92.2244 153.04 91.6525C153.096 91.1642 153.041 90.6702 152.88 90.2038L152.48 88.9838C152.4 88.7931 151.92 88.8694 150.88 89.1744C149.28 89.67 148.72 89.5556 149.56 88.9456C149.88 88.7169 150.36 87.9163 150.6 87.1919C150.88 86.4294 151.28 85.7813 151.48 85.705C151.76 85.6288 151.76 85.705 151.4 86.1625C151.168 86.4525 151.017 86.7934 150.96 87.1538C150.96 87.3444 150.76 87.84 150.56 88.2594C150.32 88.6406 150.16 89.0219 150.2 89.06C150.24 89.0981 150.88 88.8694 151.6 88.5644L152.88 87.9544V88.4881C152.88 88.7931 153.04 89.5556 153.24 90.2038L153.6 91.3475L154.48 90.9663C155.36 90.585 156.2 89.2125 156.2 88.1069C156.2 87.5731 156.52 87.6494 156.68 88.2213C156.68 88.3738 156.92 89.0219 157.08 89.6319L157.48 90.6994L158.08 90.0131C158.44 89.6319 158.84 88.8694 159 88.3738C159.32 87.4588 159.8 87.0394 159.8 87.7256C159.8 88.1831 161.16 89.9369 161.4 89.7844C161.56 89.7081 161.8 89.06 162 88.3356C162.4 86.8106 163 85.8194 163.4 86.0481C163.56 86.1244 163.6 86.2769 163.52 86.4294C163.44 86.5056 163.76 87.4969 164.24 88.5644C164.588 89.3646 164.934 90.1652 165.28 90.9663C165.44 91.3475 165.6 91.3475 166.6 90.4706C167.2 89.9369 167.8 89.365 167.84 89.1744C167.96 88.8694 168.08 88.9075 168.64 89.2506C169.819 89.8444 171.111 90.2074 172.44 90.3181C172.52 90.2419 172.6 89.5556 172.6 88.7931L172.64 87.3825L173.44 87.535C173.84 87.6494 174.76 87.6494 175.44 87.535L176.64 87.3825L175.56 86.62C174.96 86.2388 174.36 85.7431 174.2 85.5144C174.08 85.2856 173.52 85.0569 172.92 85.0188C171.28 84.8663 168.36 83.3413 168.36 82.5788C168.36 82.4263 168.76 82.6931 169.24 83.1125C170.36 84.0656 171.88 84.6375 173.24 84.6375H174.2L173.6 83.875C173.172 83.2838 172.898 82.6044 172.8 81.8925C172.72 80.7488 172.6 80.5963 171.36 79.7956C170.641 79.31 169.971 78.7612 169.36 78.1563L168.68 77.4319L168.32 78.3088C168.12 78.8044 167.92 79.1856 167.8 79.1856C167.72 79.1856 167.32 78.8806 167 78.5375C166.775 78.289 166.504 78.0822 166.2 77.9275C166.08 77.9275 165.8 78.385 165.48 78.9569L164.92 79.9863L164.52 79.4144C164.164 78.9469 163.762 78.5128 163.32 78.1181C162.84 77.7369 162.64 77.4319 162.8 77.4319C162.96 77.4319 163.48 77.8131 164 78.3088L164.88 79.1856L165.28 78.5375C165.511 78.0884 165.581 77.5795 165.48 77.0888C165.32 76.4025 165.36 76.3644 165.6 76.8219C165.945 77.2522 166.348 77.6368 166.8 77.9656L167.68 78.6519L168.28 77.6225C168.88 76.555 168.88 76.555 169.12 77.2031C169.52 78.0038 172.12 80.0625 174.32 81.2444C174.72 81.435 174.56 80.825 173.92 79.3381C173.728 78.8496 173.62 78.3346 173.6 77.8131C173.6 77.1269 173.4 76.8219 172.48 76.1356C171.908 75.7871 171.429 75.3161 171.082 74.7601C170.735 74.2041 170.529 73.5785 170.48 72.9331C170.36 72.285 170.12 71.5988 169.92 71.37C169.68 70.9888 169.6 71.2175 169.68 72.3613C169.76 73.1619 169.64 74.1531 169.44 74.5725L169.12 75.335L168.88 74.6869C168.72 74.3438 168.08 73.7338 167.48 73.3525C166.88 72.9713 166.44 72.59 166.52 72.5138C166.6 72.4375 167.24 72.7806 167.92 73.2763C169 74.0769 169.2 74.1531 169.36 73.81C169.52 73.4288 169.36 71.675 169.04 70.455C168.88 69.845 168.88 69.845 169.68 70.6075C170.24 71.1413 170.56 71.8275 170.84 72.9713C171.16 74.42 171.32 74.6869 172.72 75.8688C173.56 76.5931 174.32 77.1269 174.36 77.0888C174.44 77.0125 174.52 75.1825 174.6 72.9713C174.76 68.7394 174.6 67.71 173.52 66.4138L172.96 65.7275L173.84 64.8506C174.826 63.9519 175.484 62.7764 175.72 61.4956L175.88 60.4663L174.92 61.3431C174.12 62.0675 173.72 62.22 172.8 62.22C171.88 62.22 171.52 62.0675 170.92 61.4575C169.985 60.6 168.846 59.9719 167.6 59.6275C167.12 59.475 166.96 59.5513 166.96 59.8563C166.96 60.085 166.72 60.695 166.4 61.2669L165.84 62.2581L164.64 61.1144C163.88 60.4663 163.04 59.8944 162.36 59.7419C160.72 59.3606 160.64 59.3606 160.64 60.5425C160.64 62.3344 159.84 62.6775 158.4 61.4956C157.28 60.5806 156.4 60.3519 154.28 60.6188L152.68 60.7713L152.96 61.4575C153.2 62.0294 153.16 62.2963 152.64 62.9444C151.8 64.0119 150.72 64.4694 149.04 64.4694C148.24 64.4694 147.28 64.6219 146.88 64.8125C146.48 65.0031 145.44 65.1938 144.6 65.27C143.8 65.3463 142.88 65.4988 142.6 65.575C142.2 65.7275 142.2 65.575 142.32 64.7363C142.52 63.44 141.52 62.4488 140.04 62.4488C138.08 62.4488 137.2 64.1263 137.96 66.3375C138.116 66.8146 138.249 67.298 138.36 67.7863C138.885 68.7396 139.59 69.5926 140.44 70.3025C141.48 71.2938 142.44 72.3231 142.6 72.59C142.922 72.9876 143.332 73.313 143.8 73.5431L144.68 74.0006L144.56 73.0856C144.44 72.0944 144.64 71.9419 145.2 72.6663C145.4 72.895 145.92 73.3144 146.32 73.5431C147 73.9244 147.12 73.9244 147.12 73.6194C147.12 73.3906 147.24 72.895 147.4 72.5138L147.68 71.8275L148.2 72.7806C148.48 73.3144 149.4 74.4963 150.24 75.4494C151.88 77.2413 152.92 79.2619 152.4 79.7194C152.16 79.91 151.6 79.91 150.4 79.6813C149.52 79.5288 148.4 79.4144 147.92 79.4906C147 79.605 146.92 79.4906 147.52 78.8044C148.12 78.0419 148 77.9275 146.8 77.9275C145.4 77.9275 141.92 77.2794 140.56 76.7838C139.28 76.2881 138.96 76.4025 138.56 77.5844L137.88 79.7194L137.48 80.8631L138.92 80.7488C139.662 80.6747 140.398 80.5473 141.12 80.3675C141.403 80.2775 141.702 80.2387 142 80.2531C142.08 80.2913 141.88 80.7488 141.6 81.2825L141.04 82.1975L141.92 82.045C142.4 81.9306 143.12 81.7019 143.52 81.5113C144.24 81.2063 144.32 81.2063 144.88 82.0831C145.56 83.1125 146.08 83.0744 146.2 81.9688C146.32 80.825 146.72 80.9775 147.48 82.5025C148.2 83.9513 148.92 84.485 149.08 83.6463C149.12 83.3413 149.48 82.8838 149.92 82.5788C150.8 82.0069 151.44 82.1975 151.8 83.0744C152.2 84.0275 151.32 84.9806 148.84 86.4294C146.543 87.638 144.567 89.3313 143.063 91.3798C141.558 93.4283 140.565 95.7777 140.16 98.2481C139.4 102.747 141.76 107.398 146.4 110.791C148.64 112.393 152.2 114.07 151.96 113.46C151 110.677 151.04 105.454 152 104.577C152.16 104.424 152.12 104.958 151.88 105.759C151.08 108.771 151.48 111.134 153.48 116.701C155.24 121.733 155 123.906 152.44 125.317C151.64 125.774 151.12 125.851 148.92 125.813C146.52 125.813 146.24 125.813 145.48 126.423C144.561 127.317 143.959 128.464 143.76 129.701C143.76 130.197 144.32 130.121 145.36 129.549H145.4Z" fill="#FFB700" stroke="black" stroke-width="5.6"/>
    <path d="M184.2 129.434L185.2 128.824L185.88 129.434C186.76 130.235 187.84 130.197 188.68 129.396C189.08 129.015 189.4 128.786 189.44 128.824L189.8 129.434C190 129.777 190.44 129.93 191.24 130.006C192.16 130.044 192.44 130.006 192.84 129.472L193.24 128.824L194.24 129.434C196.96 131.112 198.4 129.358 197.16 125.889C196.56 124.135 196.92 123.144 198.88 120.932C199.72 119.979 200.4 118.95 200.4 118.645C200.4 118.226 200.24 118.149 199.12 118.187C198.08 118.187 197.76 118.073 197.2 117.501C196.28 116.548 196.36 115.442 197.36 114.222L198.16 113.269L196.72 112.354C195.571 111.545 194.5 110.639 193.52 109.647C192.647 108.665 191.579 107.857 190.378 107.268C189.177 106.679 187.866 106.322 186.52 106.216L184.64 106.026V107.398C184.64 109.114 185.52 110.791 187.84 113.612C190.48 116.815 190.64 117.311 190.76 121.504L190.88 125.05L190.08 125.736C189.4 126.346 189.12 126.461 186.88 126.575C184.76 126.689 184.28 126.804 183.68 127.337C182.978 127.826 182.493 128.546 182.32 129.358C182.2 129.93 182.24 130.044 182.68 130.044C182.96 130.044 183.64 129.777 184.2 129.434V129.434ZM127.32 120.284C127.562 119.946 127.7 119.55 127.72 119.141C127.72 118.759 127.96 118.607 129 118.454L130.24 118.302L129.44 117.654C128.44 116.891 128.32 116.319 129.2 116.319C130.08 116.319 131.52 115.481 131.76 114.832C131.88 114.527 131.76 114.146 131.6 113.956C131.12 113.422 130.2 113.498 130.04 114.108C129.84 114.718 129.56 114.718 128.84 114.108C127.84 113.155 127.8 111.211 128.84 110.067C129.28 109.533 129.28 109.533 128.68 108.961C128.04 108.351 127.56 107.207 127.88 106.902C127.96 106.826 128.48 106.902 129 107.093C129.8 107.322 130.08 107.322 130.4 107.093C131.32 106.369 130.32 105.454 128.8 105.682C128.16 105.759 127.92 105.682 127.84 105.377C127.76 105.149 127.24 104.844 126.64 104.691C125.56 104.424 125.56 104.424 125.56 105.149C125.56 105.911 125.08 106.064 124.2 105.568C123.48 105.187 122.8 105.492 122.8 106.216C122.8 106.902 123.48 107.207 124.8 107.131C125.76 107.093 125.8 107.779 124.88 108.771L124.2 109.533L124.72 110.257C125.52 111.325 125.44 113.117 124.6 114.032L123.92 114.718L123.48 114.146C122.84 113.384 122 113.422 121.76 114.261C121.64 114.794 121.76 115.023 122.48 115.633C122.96 116.014 123.68 116.319 124.04 116.319C124.96 116.319 124.92 117.044 123.96 117.73L123.16 118.302L124.36 118.454C125 118.569 125.56 118.721 125.56 118.836C125.56 119.331 126.36 120.818 126.6 120.818C126.76 120.818 127.08 120.551 127.32 120.246V120.284Z" fill="#FFB700" stroke="black" stroke-width="5.6"/>
    <path d="M142.6 113.956C143.68 113.574 146 111.668 146 111.249C146 111.096 145.36 110.41 144.56 109.724C142.96 108.351 141.16 105.949 140.68 104.577C140.44 103.814 139.28 102.594 136 99.5444L131.64 95.5413L130.4 95.8463C129.68 95.9988 128.84 96.1513 128.52 96.1513C127.92 96.1513 127.92 96.1513 128.72 96.7613L129.52 97.3713L130.72 96.7613C131.8 96.1513 131.84 96.1513 131.96 96.6469C132.04 96.9138 131.88 97.4094 131.56 97.7525C131.28 98.0956 131.12 98.515 131.16 98.6294C131.28 98.7438 131 99.0106 130.56 99.2394C129.76 99.6206 129.16 100.879 129.8 100.879C130.4 100.879 131.68 99.3538 131.52 98.8581C131.44 98.5913 131.52 98.3244 131.6 98.2481C132.12 97.9813 132.08 99.1631 131.6 99.7731C131.28 100.078 131.12 100.459 131.2 100.612C131.28 100.726 131 100.993 130.56 101.222C129.76 101.603 129.16 102.861 129.8 102.861C130.44 102.861 131.68 101.413 131.56 100.879C131.48 100.612 131.48 100.307 131.6 100.231C131.96 100.078 132.12 100.993 131.84 101.451C131.766 101.579 131.728 101.723 131.728 101.87C131.728 102.017 131.766 102.161 131.84 102.289C132.12 102.785 131.84 103.7 131.32 104.005C131.12 104.119 131.24 104.386 131.8 104.768C132.6 105.301 132.6 105.378 132.6 107.818C132.6 109.876 132.68 110.41 133.08 110.753C133.48 111.134 133.56 111.134 133.56 110.753C133.56 110.372 134.36 109.838 134.96 109.838C135.16 109.838 136.32 110.791 137.56 111.935C138.8 113.079 140.12 114.108 140.48 114.146L141.36 114.299C141.48 114.299 142.04 114.184 142.6 113.918V113.956ZM129.28 104.005C129.28 103.357 127.84 102.633 126.12 102.48C124.72 102.289 124.72 102.328 124.72 102.976C124.72 103.509 124.92 103.738 125.92 104.119C127.44 104.768 129.28 104.691 129.28 104.005Z" fill="#FFB700" stroke="black" stroke-width="5.6"/>
    <path d="M130.84 103.929C131.56 103.319 131.88 102.632 131.44 102.632C130.96 102.632 129.68 103.7 129.68 104.157C129.68 104.767 129.92 104.729 130.88 103.929H130.84ZM129.36 101.984C129.4 101.603 129.16 101.374 128.44 101.031C126.84 100.383 125 100.04 124.56 100.383C123.72 101.031 124.28 101.87 125.6 102.022C126.16 102.061 126.88 102.213 127.24 102.366C128.28 102.747 129.24 102.556 129.36 101.984V101.984ZM129.36 99.9637C129.44 99.4681 129.08 99.2775 126.16 98.2862C123.96 97.5237 123 97.905 123.72 99.1631C123.96 99.5825 124.36 99.7731 125.28 99.9256C125.96 100.002 126.88 100.192 127.32 100.345C128.52 100.726 129.24 100.574 129.32 99.9637H129.36ZM130.8 98.0956C131.24 97.6762 131.6 97.1806 131.6 96.9518C131.6 96.38 129.88 97.4475 129.64 98.21C129.4 99.0868 129.84 99.0487 130.84 98.0956H130.8ZM129.36 97.9812C129.44 97.3712 128.4 96.8375 126.32 96.4181C124.76 96.075 124.08 96.2656 124.2 96.9518C124.28 97.3331 124.8 97.6 126.2 98.0193C128.56 98.7056 129.24 98.7056 129.36 97.9812V97.9812ZM131.36 95.16C134.08 94.0162 134.28 91.1568 131.76 90.3943C130.72 90.0893 130.08 90.28 129.68 90.9281C129.36 91.4618 129.56 92.3768 129.96 92.3768C130.12 92.3768 130.24 92.5675 130.24 92.7581C130.24 93.7875 126.16 94.2068 124.48 93.4062C123.88 93.1393 123.68 92.3768 124.12 92.3768C124.52 92.3768 124.76 91.6143 124.56 91.1187C124.32 90.3562 123.52 90.1275 122.44 90.4325C119.92 91.0425 120 93.8637 122.56 95.0075C125.392 95.9983 128.492 96.052 131.36 95.16V95.16Z" fill="#FFB700" stroke="black" stroke-width="5.6"/>
    <path d="M129.72 92.9487C129.88 92.7962 129.8 92.5675 129.56 92.415C129 91.9956 129.04 91.3475 129.64 90.6231C130.12 90.0893 130.16 89.2506 130.32 81.0537C130.6 66.9093 131.72 56.2725 133.16 53.68C133.76 52.6887 133.68 52.6887 132.16 53.68C130.166 55.0042 128.556 56.7879 127.48 58.865C125 63.2493 124.16 69.1587 124.16 81.8162C124.16 88.9837 124.2 89.9368 124.64 90.585C125.04 91.2712 125.04 91.5 124.8 92.1862C124.6 92.6056 124.52 93.0631 124.6 93.1393C125.16 93.635 129.16 93.5206 129.72 92.9487ZM152.16 79.4525C152.28 79.3381 152.08 78.69 151.76 78.08C151.28 77.0887 151.08 76.9362 150.4 76.9362C147.202 76.6712 144.082 75.8439 141.2 74.4962C139.16 73.6193 138.4 73.4287 138.2 73.6575C137.56 74.2293 138.6 75.5637 140.2 76.2881C142.555 77.0968 145.021 77.5721 147.52 77.6987C148.6 77.6987 148.64 77.6987 148 78.5756L147.6 79.1856H148.8L150.8 79.4143C152 79.6812 152 79.6812 152.16 79.4525V79.4525Z" fill="#FFB700" stroke="black" stroke-width="5.6"/>
    <path d="M164.8 85.8194C164.8 85.4381 163.64 84.485 162.52 83.8369C161.6 83.3412 161.44 83.3031 161.44 83.7225C161.44 84.3325 160.88 85.8956 160.64 85.8956C160.52 85.8956 160.32 85.5906 160.24 85.2475C160.12 84.8663 159.68 84.1037 159.24 83.6081L158.44 82.655L157.88 83.5319C157.32 84.3706 156.32 85.1712 155.88 85.1712C155.8 85.1712 155.76 84.7137 155.88 84.2181C155.92 83.6081 155.88 83.1506 155.68 83.0744C155.52 82.96 155.36 82.9981 155.36 83.1506C155.36 83.4556 154 84.9044 153.76 84.9044C153.6 84.9044 153.44 84.5231 153.36 83.9894L153.04 82.1594C152.96 81.7019 153.16 82.0069 153.44 82.9219L154.08 84.485L154.72 83.5319C155.01 83.138 155.226 82.6995 155.36 82.2356C155.36 82.045 155.48 81.9688 155.64 82.045C155.8 82.1213 156 82.7694 156.08 83.4556L156.28 84.7519L157 83.9894C157.377 83.6069 157.724 83.1992 158.04 82.7694C158.32 82.3119 158.36 82.3119 158.96 82.7694C159.28 83.0744 159.8 83.7225 160.12 84.2563C160.44 84.79 160.72 85.1712 160.76 85.1331L161 83.9131L161.16 82.7694C161.2 82.5788 163.32 83.9131 164.12 84.5612C164.6 84.9806 165.08 85.2856 165.16 85.2094C165.24 85.1331 165.32 84.5231 165.32 83.7987C165.32 82.7312 165.2 82.4263 164.52 81.8544C163.72 81.1681 163.72 81.1681 163.4 81.6638C163 82.3119 162.56 82.3119 162.56 81.6638C162.56 81.2063 161.04 79.4144 160.68 79.4144C160.56 79.4144 160.24 79.7956 159.96 80.2913C159.68 80.7869 159.36 81.1681 159.28 81.1681C158.88 81.1681 156.76 78.8806 156.76 78.4994C156.76 78.1944 156.92 78.2706 157.28 78.8044C157.638 79.3051 158.054 79.7655 158.52 80.1769C159.32 80.8631 159.64 80.7106 159.96 79.3763C160.08 78.995 160.24 78.69 160.36 78.69C160.68 78.69 162.52 80.5581 162.76 81.1681L163.04 81.7781L163.24 81.0919C163.48 80.2531 163.76 80.2531 164.16 81.0156C164.32 81.3206 165.12 82.0069 165.92 82.4644L167.4 83.3794L167.68 82.4644C167.84 81.9687 168.08 81.7019 168.16 81.8544C168.32 82.045 167.92 83.57 167.64 83.875C167.64 83.9131 167.12 83.6463 166.6 83.3031L165.6 82.6169V83.8369C165.6 84.485 165.52 85.2856 165.44 85.5906C165.24 86.2006 164.76 86.3531 164.76 85.8194H164.8ZM157.4 76.1356C155.64 74.7631 155.4 74.4581 155.4 73.7719L155.44 73.0856L155.56 73.7337C155.64 74.115 156.12 74.725 156.68 75.1825L157.72 75.945L158.32 75.2587C158.68 74.8775 158.96 74.42 158.96 74.2675C158.96 73.81 159.04 73.8481 160.24 74.8394C161.28 75.7162 161.32 75.7163 161.44 75.1444C161.56 74.8394 161.52 74.2294 161.44 73.81C161.04 72.6663 161.12 72.5138 161.64 73.2L162.6 74.2675C163 74.6869 163.04 74.6869 163.2 74.1531C163.32 73.81 163.4 73.2381 163.4 72.8569V72.1325L164.32 73.1619C165.24 74.1531 165.32 74.1912 165.56 73.6956C165.76 73.4287 165.88 72.7806 165.88 72.285C165.88 71.5988 165.96 71.4463 166.12 71.675C166.44 72.1325 166.24 73.2762 165.68 74.2675L165.28 75.03L164.76 74.2294C164.08 73.2381 163.84 73.2381 163.44 74.3056C163.04 75.335 162.76 75.4113 162.36 74.6106C162.12 74.115 162.04 74.1912 161.88 75.2587L161.68 76.4025L160.48 75.5256L159.28 74.6487L158.68 75.2206C158.4 75.5637 158.16 75.9831 158.16 76.1356C158.16 76.5169 157.84 76.5169 157.4 76.1356V76.1356ZM173 70.9506C172.4 70.4169 171.96 69.8831 172.04 69.8069C172.16 69.6925 172.24 69.6544 172.28 69.7306C172.667 70.1239 173.067 70.5053 173.48 70.8744C174.84 72.2469 174.56 72.285 173.04 70.9506H173ZM152.2 68.8919C151.64 68.1294 151.68 67.6719 152.4 66.8331C152.88 66.2613 153.12 66.185 154 66.2994C154.6 66.3375 155.84 66.8331 156.76 67.3669C158.09 68.1239 159.611 68.5195 161.16 68.5106L160.48 67.4431C159.6 66.185 159.6 66.0325 160.64 66.795C161.68 67.5956 162.92 67.8244 165.72 67.7481L167.08 67.71L166.28 66.9475C165.2 65.9181 165.52 65.8038 166.76 66.8331C167.88 67.7863 167.84 67.8625 165.4 68.0913C164.383 68.1892 163.355 68.1248 162.36 67.9006C161 67.5194 160.92 67.5575 161.2 67.9769C161.36 68.2438 161.6 68.4344 161.72 68.4344C161.88 68.4344 162 68.5869 162 68.7394C162 69.235 159.04 68.7775 157.6 68.1294C154.4 66.5662 154 66.4138 153.2 66.6425C152.987 66.7206 152.792 66.8384 152.628 66.9889C152.463 67.1395 152.331 67.3198 152.24 67.5194C151.72 68.7775 153.6 69.7688 154.36 68.6631C154.6 68.32 154.56 68.1294 154.16 67.71C153.6 67.1763 153.68 67.1 154.4 67.3288C154.92 67.5194 154.96 68.7012 154.48 69.1587C153.96 69.6544 152.68 69.54 152.2 68.8919Z" fill="black" stroke="black" stroke-width="5.6"/>
    <path d="M164.96 65.8037C164.56 65.4225 164.88 65.3462 166.68 65.3081C168.92 65.27 170.28 64.9269 171.88 63.9356C173.16 63.1731 173.52 63.3256 172.28 64.1262C171.2 64.8887 169.48 65.4225 167.76 65.575L165.72 65.8419C165.4 65.9181 165.04 65.88 164.92 65.8037H164.96Z" fill="black" stroke="black" stroke-width="5.6"/>
    <path d="M145.4 129.549L146.32 129.015L146.72 129.549C147.24 130.235 148.72 130.197 149.68 129.549L150.44 128.977L151.08 129.511C151.88 130.235 153.4 130.235 154.4 129.511C155.08 129.053 155.2 129.015 155.6 129.396C155.88 129.625 156.68 129.854 157.36 129.968C158.64 130.121 158.64 130.121 159.36 129.053C160 128.176 160.08 127.833 159.96 126.956C159.848 126.286 159.768 125.612 159.72 124.936C159.64 123.944 159.68 123.944 161.16 123.411C161.895 123.196 162.616 122.941 163.32 122.648C163.92 122.305 165.6 120.437 165.6 120.056C165.6 119.979 164.96 119.827 164.16 119.751C160.96 119.369 160.44 117.768 162.52 114.794C165.84 109.838 167.88 105.073 167.88 102.061C167.88 100.688 168 100.231 168.16 100.536C168.92 101.718 167.56 106.788 165.56 110.448L164.76 111.897L165.52 111.744C165.92 111.63 168.48 110.601 171.12 109.457C178.4 106.331 180.88 105.721 185.6 105.911C189.56 106.064 191.2 106.788 194 109.571C195.48 111.096 196.92 112.126 199.52 113.689C205.04 116.968 205.28 117.273 205.56 121.161C205.84 125.088 205.68 125.317 202.56 125.965C199.88 126.537 198.2 127.719 197.76 129.396C197.52 130.235 198.04 130.273 199.36 129.434L200.36 128.824L200.8 129.434C201.4 130.235 202.6 130.235 203.6 129.434L204.4 128.863L205.2 129.434C206.4 130.388 208 130.159 208.48 128.977C208.56 128.786 208.8 128.824 209.28 129.244C210.2 130.006 212.48 130.311 212.72 129.701C212.8 129.473 212.64 128.939 212.32 128.481C211 126.575 210.56 125.698 210.56 124.669C210.56 123.22 210.96 122.496 212.72 121.352C214.8 119.903 215.44 118.073 213.84 118.073C212.88 118.073 211.88 117.234 211.24 115.9C209.96 113.155 210.24 110.105 212.16 104.996C213.632 101.99 214.371 98.7057 214.32 95.3888C214.32 92.5675 214.24 92.11 213.6 90.5469C213.099 89.4601 212.483 88.4253 211.76 87.4588L210.64 86.0481L212.04 84.9044C216.36 81.5113 215.48 75.945 210.28 73.81C208.68 73.1238 208.28 73.0856 205.48 73.0856C203.88 73.0856 201.28 73.3144 199.88 73.5813C198.001 73.8647 196.102 74.0176 194.2 74.0388C191.48 74.0388 191 73.9625 189.96 73.4288C188.88 72.895 188.68 72.6281 188.48 71.3319C188.461 71.2097 188.411 71.0938 188.334 70.9942C188.257 70.8946 188.156 70.8142 188.04 70.76C187.64 70.6456 185.96 72.0563 185.72 72.6663C185.56 73.0094 185.48 72.9713 185.12 72.5519C184.781 72.1364 184.511 71.6734 184.32 71.1794C183.92 69.9213 184.44 69.0063 186 68.2819L187.2 67.7481L186.48 67.3288C185.04 66.4519 182.56 67.0619 181.68 68.4725C181.4 68.8538 181.12 69.235 181.04 69.235C180.96 69.235 180.48 68.8538 180 68.3581C178.12 66.6044 178.76 64.0119 181.28 63.2494C182.6 62.83 183.8 63.135 184.04 64.0119C184.44 65.27 185.56 63.5925 185.36 62.0294C185.24 61 185.24 60.9619 186 60.9619C187.04 60.9619 189.2 62.2581 189.92 63.2494C190.72 64.4313 190.64 66.2994 189.76 67.6719L189.08 68.7394L190 68.5869C191.28 68.32 192.56 67.5575 193.2 66.6044C193.537 65.9973 193.727 65.3257 193.754 64.6393C193.782 63.9529 193.647 63.2693 193.36 62.6394C192.76 61.61 192.84 61.4575 193.72 61.8006C195.16 62.3725 195.96 63.0206 196.52 64.1263C197.08 65.1175 197.12 65.3463 196.84 66.4138C196.648 67.0637 196.352 67.6812 195.96 68.2438C195.48 68.8538 195.44 68.9681 195.84 68.9681C196.56 68.9681 198 68.32 198.52 67.8244C198.8 67.5194 199.2 66.8713 199.4 66.2994L199.8 65.3463L200.2 66.1088C200.8 67.1381 202 68.0913 203.44 68.7013C205 69.3113 205.64 69.3494 204.84 68.7775C204.28 68.3963 203.24 65.5369 203.6 65.27C205.326 66.1914 206.903 67.3473 208.28 68.7013C210.56 70.6456 212 71.2938 214.08 71.2938C216.76 71.2938 218.32 69.0825 217.12 66.9856C216.44 65.7656 214.88 65.575 213.92 66.6044C213.52 67.1 213.4 67.4813 213.52 68.015C213.68 68.625 213.64 68.7013 213.04 68.7013C212.24 68.7013 210.72 67.7481 208 65.575C204.214 62.4694 199.862 60.0529 195.16 58.4456C191.975 57.7439 188.686 57.5762 185.44 57.95C182.88 58.4075 179.84 59.8181 178.16 61.305C175.24 63.9738 175.2 67.5194 178.04 70.76L178.84 71.675L178.32 72.5138C177.929 73.1145 177.735 73.8131 177.764 74.5196C177.792 75.2261 178.042 75.9084 178.48 76.4788C178.88 77.0125 179.28 77.4319 179.4 77.4319C179.48 77.4319 179.56 77.0888 179.6 76.6694C179.68 75.64 180.16 74.9538 180.96 74.6869C181.68 74.42 182.16 74.5725 185.44 75.8306C188.92 77.1269 194.64 77.2031 200.72 76.0594C203.355 75.4793 206.097 75.5055 208.72 76.1356C211.6 77.2794 212.24 80.215 210.16 82.4263C209.24 83.4175 208.4 83.7988 205.48 84.5613C202.938 85.2003 200.295 85.394 197.68 85.1331C193.36 85.095 191.8 85.1713 190.08 85.5144C188.12 85.8956 186.96 85.9338 181.36 85.8194L174.84 85.6669L175.56 86.2006C175.946 86.527 176.36 86.8204 176.8 87.0775C177.32 87.3444 177.28 87.3825 176.56 87.6494C176.16 87.8019 175.2 87.9163 174.44 87.9163H173.12L172.96 88.9838C172.852 89.4869 172.852 90.0056 172.96 90.5088C173.12 90.89 173.04 90.9663 172.64 90.8138C172.36 90.6994 171.6 90.5088 170.92 90.3944C170.234 90.2542 169.564 90.0498 168.92 89.7844C168.16 89.4031 168.08 89.4031 167.8 89.8988C167.56 90.28 165.32 91.8813 165 91.8813C164.855 90.8922 164.559 89.9287 164.12 89.0219C163.72 88.2213 163.36 87.3063 163.24 87.0394C163.12 86.62 163.04 86.5819 162.84 86.925C162.72 87.1156 162.56 87.6875 162.44 88.145C162.3 88.7625 162.057 89.3546 161.72 89.8988L161.12 90.7375L160.72 90.0131C160.32 89.2506 159.68 88.4119 159.44 88.4119C159.36 88.4119 159.24 88.6406 159.16 88.9838C158.96 89.5938 157.4 91.3856 157 91.3856C156.88 91.3856 156.76 90.89 156.76 90.2419C156.76 89.67 156.64 89.1363 156.48 89.1363C156.32 89.1363 156.2 89.3269 156.2 89.5175C156.2 89.975 154.88 91.4238 154.4 91.4238C154.24 91.4238 153.92 91.5763 153.72 91.805C153.24 92.3006 152.84 92.2244 153.04 91.6525C153.096 91.1642 153.041 90.6702 152.88 90.2038L152.48 88.9838C152.4 88.7931 151.92 88.8694 150.88 89.1744C149.28 89.67 148.72 89.5556 149.56 88.9456C149.88 88.7169 150.36 87.9163 150.6 87.1919C150.88 86.4294 151.28 85.7813 151.48 85.705C151.76 85.6288 151.76 85.705 151.4 86.1625C151.168 86.4525 151.017 86.7934 150.96 87.1538C150.96 87.3444 150.76 87.84 150.56 88.2594C150.32 88.6406 150.16 89.0219 150.2 89.06C150.24 89.0981 150.88 88.8694 151.6 88.5644L152.88 87.9544V88.4881C152.88 88.7931 153.04 89.5556 153.24 90.2038L153.6 91.3475L154.48 90.9663C155.36 90.585 156.2 89.2125 156.2 88.1069C156.2 87.5731 156.52 87.6494 156.68 88.2213C156.68 88.3738 156.92 89.0219 157.08 89.6319L157.48 90.6994L158.08 90.0131C158.44 89.6319 158.84 88.8694 159 88.3738C159.32 87.4588 159.8 87.0394 159.8 87.7256C159.8 88.1831 161.16 89.9369 161.4 89.7844C161.56 89.7081 161.8 89.06 162 88.3356C162.4 86.8106 163 85.8194 163.4 86.0481C163.56 86.1244 163.6 86.2769 163.52 86.4294C163.44 86.5056 163.76 87.4969 164.24 88.5644C164.588 89.3646 164.934 90.1652 165.28 90.9663C165.44 91.3475 165.6 91.3475 166.6 90.4706C167.2 89.9369 167.8 89.365 167.84 89.1744C167.96 88.8694 168.08 88.9075 168.64 89.2506C169.819 89.8444 171.111 90.2074 172.44 90.3181C172.52 90.2419 172.6 89.5556 172.6 88.7931L172.64 87.3825L173.44 87.535C173.84 87.6494 174.76 87.6494 175.44 87.535L176.64 87.3825L175.56 86.62C174.96 86.2388 174.36 85.7431 174.2 85.5144C174.08 85.2856 173.52 85.0569 172.92 85.0188C171.28 84.8663 168.36 83.3413 168.36 82.5788C168.36 82.4263 168.76 82.6931 169.24 83.1125C170.36 84.0656 171.88 84.6375 173.24 84.6375H174.2L173.6 83.875C173.172 83.2838 172.898 82.6044 172.8 81.8925C172.72 80.7488 172.6 80.5963 171.36 79.7956C170.641 79.31 169.971 78.7612 169.36 78.1563L168.68 77.4319L168.32 78.3088C168.12 78.8044 167.92 79.1856 167.8 79.1856C167.72 79.1856 167.32 78.8806 167 78.5375C166.775 78.289 166.504 78.0822 166.2 77.9275C166.08 77.9275 165.8 78.385 165.48 78.9569L164.92 79.9863L164.52 79.4144C164.164 78.9469 163.762 78.5128 163.32 78.1181C162.84 77.7369 162.64 77.4319 162.8 77.4319C162.96 77.4319 163.48 77.8131 164 78.3088L164.88 79.1856L165.28 78.5375C165.511 78.0884 165.581 77.5795 165.48 77.0888C165.32 76.4025 165.36 76.3644 165.6 76.8219C165.945 77.2522 166.348 77.6368 166.8 77.9656L167.68 78.6519L168.28 77.6225C168.88 76.555 168.88 76.555 169.12 77.2031C169.52 78.0038 172.12 80.0625 174.32 81.2444C174.72 81.435 174.56 80.825 173.92 79.3381C173.728 78.8496 173.62 78.3346 173.6 77.8131C173.6 77.1269 173.4 76.8219 172.48 76.1356C171.908 75.7871 171.429 75.3161 171.082 74.7601C170.735 74.2041 170.529 73.5785 170.48 72.9331C170.36 72.285 170.12 71.5988 169.92 71.37C169.68 70.9888 169.6 71.2175 169.68 72.3613C169.76 73.1619 169.64 74.1531 169.44 74.5725L169.12 75.335L168.88 74.6869C168.72 74.3438 168.08 73.7338 167.48 73.3525C166.88 72.9713 166.44 72.59 166.52 72.5138C166.6 72.4375 167.24 72.7806 167.92 73.2763C169 74.0769 169.2 74.1531 169.36 73.81C169.52 73.4288 169.36 71.675 169.04 70.455C168.88 69.845 168.88 69.845 169.68 70.6075C170.24 71.1413 170.56 71.8275 170.84 72.9713C171.16 74.42 171.32 74.6869 172.72 75.8688C173.56 76.5931 174.32 77.1269 174.36 77.0888C174.44 77.0125 174.52 75.1825 174.6 72.9713C174.76 68.7394 174.6 67.71 173.52 66.4138L172.96 65.7275L173.84 64.8506C174.826 63.9519 175.484 62.7764 175.72 61.4956L175.88 60.4663L174.92 61.3431C174.12 62.0675 173.72 62.22 172.8 62.22C171.88 62.22 171.52 62.0675 170.92 61.4575C169.985 60.6 168.846 59.9719 167.6 59.6275C167.12 59.475 166.96 59.5513 166.96 59.8563C166.96 60.085 166.72 60.695 166.4 61.2669L165.84 62.2581L164.64 61.1144C163.88 60.4663 163.04 59.8944 162.36 59.7419C160.72 59.3606 160.64 59.3606 160.64 60.5425C160.64 62.3344 159.84 62.6775 158.4 61.4956C157.28 60.5806 156.4 60.3519 154.28 60.6188L152.68 60.7713L152.96 61.4575C153.2 62.0294 153.16 62.2963 152.64 62.9444C151.8 64.0119 150.72 64.4694 149.04 64.4694C148.24 64.4694 147.28 64.6219 146.88 64.8125C146.48 65.0031 145.44 65.1938 144.6 65.27C143.8 65.3463 142.88 65.4988 142.6 65.575C142.2 65.7275 142.2 65.575 142.32 64.7363C142.52 63.44 141.52 62.4488 140.04 62.4488C138.08 62.4488 137.2 64.1263 137.96 66.3375C138.116 66.8146 138.249 67.298 138.36 67.7863C138.885 68.7396 139.59 69.5926 140.44 70.3025C141.48 71.2938 142.44 72.3231 142.6 72.59C142.922 72.9876 143.332 73.313 143.8 73.5431L144.68 74.0006L144.56 73.0856C144.44 72.0944 144.64 71.9419 145.2 72.6663C145.4 72.895 145.92 73.3144 146.32 73.5431C147 73.9244 147.12 73.9244 147.12 73.6194C147.12 73.3906 147.24 72.895 147.4 72.5138L147.68 71.8275L148.2 72.7806C148.48 73.3144 149.4 74.4963 150.24 75.4494C151.88 77.2413 152.92 79.2619 152.4 79.7194C152.16 79.91 151.6 79.91 150.4 79.6813C149.52 79.5288 148.4 79.4144 147.92 79.4906C147 79.605 146.92 79.4906 147.52 78.8044C148.12 78.0419 148 77.9275 146.8 77.9275C145.4 77.9275 141.92 77.2794 140.56 76.7838C139.28 76.2881 138.96 76.4025 138.56 77.5844L137.88 79.7194L137.48 80.8631L138.92 80.7488C139.662 80.6747 140.398 80.5473 141.12 80.3675C141.403 80.2775 141.702 80.2387 142 80.2531C142.08 80.2913 141.88 80.7488 141.6 81.2825L141.04 82.1975L141.92 82.045C142.4 81.9306 143.12 81.7019 143.52 81.5113C144.24 81.2063 144.32 81.2063 144.88 82.0831C145.56 83.1125 146.08 83.0744 146.2 81.9688C146.32 80.825 146.72 80.9775 147.48 82.5025C148.2 83.9513 148.92 84.485 149.08 83.6463C149.12 83.3413 149.48 82.8838 149.92 82.5788C150.8 82.0069 151.44 82.1975 151.8 83.0744C152.2 84.0275 151.32 84.9806 148.84 86.4294C146.543 87.638 144.567 89.3313 143.063 91.3798C141.558 93.4283 140.565 95.7777 140.16 98.2481C139.4 102.747 141.76 107.398 146.4 110.791C148.64 112.393 152.2 114.07 151.96 113.46C151 110.677 151.04 105.454 152 104.577C152.16 104.424 152.12 104.958 151.88 105.759C151.08 108.771 151.48 111.134 153.48 116.701C155.24 121.733 155 123.906 152.44 125.317C151.64 125.774 151.12 125.851 148.92 125.813C146.52 125.813 146.24 125.813 145.48 126.423C144.561 127.317 143.959 128.464 143.76 129.701C143.76 130.197 144.32 130.121 145.36 129.549H145.4Z" fill="#FFB700"/>
    <path d="M184.2 129.434L185.2 128.824L185.88 129.434C186.76 130.235 187.84 130.197 188.68 129.396C189.08 129.015 189.4 128.786 189.44 128.824L189.8 129.434C190 129.777 190.44 129.93 191.24 130.006C192.16 130.044 192.44 130.006 192.84 129.472L193.24 128.824L194.24 129.434C196.96 131.112 198.4 129.358 197.16 125.889C196.56 124.135 196.92 123.144 198.88 120.932C199.72 119.979 200.4 118.95 200.4 118.645C200.4 118.226 200.24 118.149 199.12 118.187C198.08 118.187 197.76 118.073 197.2 117.501C196.28 116.548 196.36 115.442 197.36 114.222L198.16 113.269L196.72 112.354C195.571 111.545 194.5 110.639 193.52 109.647C192.647 108.665 191.579 107.857 190.378 107.268C189.177 106.679 187.866 106.322 186.52 106.216L184.64 106.026V107.398C184.64 109.114 185.52 110.791 187.84 113.612C190.48 116.815 190.64 117.311 190.76 121.504L190.88 125.05L190.08 125.736C189.4 126.346 189.12 126.461 186.88 126.575C184.76 126.689 184.28 126.804 183.68 127.337C182.978 127.826 182.493 128.546 182.32 129.358C182.2 129.93 182.24 130.044 182.68 130.044C182.96 130.044 183.64 129.777 184.2 129.434V129.434ZM127.32 120.284C127.562 119.946 127.7 119.55 127.72 119.141C127.72 118.759 127.96 118.607 129 118.454L130.24 118.302L129.44 117.654C128.44 116.891 128.32 116.319 129.2 116.319C130.08 116.319 131.52 115.481 131.76 114.832C131.88 114.527 131.76 114.146 131.6 113.956C131.12 113.422 130.2 113.498 130.04 114.108C129.84 114.718 129.56 114.718 128.84 114.108C127.84 113.155 127.8 111.211 128.84 110.067C129.28 109.533 129.28 109.533 128.68 108.961C128.04 108.351 127.56 107.207 127.88 106.902C127.96 106.826 128.48 106.902 129 107.093C129.8 107.322 130.08 107.322 130.4 107.093C131.32 106.369 130.32 105.454 128.8 105.682C128.16 105.759 127.92 105.682 127.84 105.377C127.76 105.149 127.24 104.844 126.64 104.691C125.56 104.424 125.56 104.424 125.56 105.149C125.56 105.911 125.08 106.064 124.2 105.568C123.48 105.187 122.8 105.492 122.8 106.216C122.8 106.902 123.48 107.207 124.8 107.131C125.76 107.093 125.8 107.779 124.88 108.771L124.2 109.533L124.72 110.257C125.52 111.325 125.44 113.117 124.6 114.032L123.92 114.718L123.48 114.146C122.84 113.384 122 113.422 121.76 114.261C121.64 114.794 121.76 115.023 122.48 115.633C122.96 116.014 123.68 116.319 124.04 116.319C124.96 116.319 124.92 117.044 123.96 117.73L123.16 118.302L124.36 118.454C125 118.569 125.56 118.721 125.56 118.836C125.56 119.331 126.36 120.818 126.6 120.818C126.76 120.818 127.08 120.551 127.32 120.246V120.284Z" fill="#FFB700"/>
    <path d="M142.6 113.956C143.68 113.574 146 111.668 146 111.249C146 111.096 145.36 110.41 144.56 109.724C142.96 108.351 141.16 105.949 140.68 104.577C140.44 103.814 139.28 102.594 136 99.5444L131.64 95.5413L130.4 95.8463C129.68 95.9988 128.84 96.1513 128.52 96.1513C127.92 96.1513 127.92 96.1513 128.72 96.7613L129.52 97.3713L130.72 96.7613C131.8 96.1513 131.84 96.1513 131.96 96.6469C132.04 96.9138 131.88 97.4094 131.56 97.7525C131.28 98.0956 131.12 98.515 131.16 98.6294C131.28 98.7438 131 99.0106 130.56 99.2394C129.76 99.6206 129.16 100.879 129.8 100.879C130.4 100.879 131.68 99.3538 131.52 98.8581C131.44 98.5913 131.52 98.3244 131.6 98.2481C132.12 97.9813 132.08 99.1631 131.6 99.7731C131.28 100.078 131.12 100.459 131.2 100.612C131.28 100.726 131 100.993 130.56 101.222C129.76 101.603 129.16 102.861 129.8 102.861C130.44 102.861 131.68 101.413 131.56 100.879C131.48 100.612 131.48 100.307 131.6 100.231C131.96 100.078 132.12 100.993 131.84 101.451C131.766 101.579 131.728 101.723 131.728 101.87C131.728 102.017 131.766 102.161 131.84 102.289C132.12 102.785 131.84 103.7 131.32 104.005C131.12 104.119 131.24 104.386 131.8 104.768C132.6 105.301 132.6 105.378 132.6 107.818C132.6 109.876 132.68 110.41 133.08 110.753C133.48 111.134 133.56 111.134 133.56 110.753C133.56 110.372 134.36 109.838 134.96 109.838C135.16 109.838 136.32 110.791 137.56 111.935C138.8 113.079 140.12 114.108 140.48 114.146L141.36 114.299C141.48 114.299 142.04 114.184 142.6 113.918V113.956ZM129.28 104.005C129.28 103.357 127.84 102.633 126.12 102.48C124.72 102.289 124.72 102.328 124.72 102.976C124.72 103.509 124.92 103.738 125.92 104.119C127.44 104.768 129.28 104.691 129.28 104.005Z" fill="#FFB700"/>
    <path d="M130.84 103.929C131.56 103.319 131.88 102.632 131.44 102.632C130.96 102.632 129.68 103.7 129.68 104.157C129.68 104.767 129.92 104.729 130.88 103.929H130.84ZM129.36 101.984C129.4 101.603 129.16 101.374 128.44 101.031C126.84 100.383 125 100.04 124.56 100.383C123.72 101.031 124.28 101.87 125.6 102.022C126.16 102.061 126.88 102.213 127.24 102.366C128.28 102.747 129.24 102.556 129.36 101.984V101.984ZM129.36 99.9637C129.44 99.4681 129.08 99.2775 126.16 98.2862C123.96 97.5237 123 97.905 123.72 99.1631C123.96 99.5825 124.36 99.7731 125.28 99.9256C125.96 100.002 126.88 100.192 127.32 100.345C128.52 100.726 129.24 100.574 129.32 99.9637H129.36ZM130.8 98.0956C131.24 97.6762 131.6 97.1806 131.6 96.9518C131.6 96.38 129.88 97.4475 129.64 98.21C129.4 99.0868 129.84 99.0487 130.84 98.0956H130.8ZM129.36 97.9812C129.44 97.3712 128.4 96.8375 126.32 96.4181C124.76 96.075 124.08 96.2656 124.2 96.9518C124.28 97.3331 124.8 97.6 126.2 98.0193C128.56 98.7056 129.24 98.7056 129.36 97.9812V97.9812ZM131.36 95.16C134.08 94.0162 134.28 91.1568 131.76 90.3943C130.72 90.0893 130.08 90.28 129.68 90.9281C129.36 91.4618 129.56 92.3768 129.96 92.3768C130.12 92.3768 130.24 92.5675 130.24 92.7581C130.24 93.7875 126.16 94.2068 124.48 93.4062C123.88 93.1393 123.68 92.3768 124.12 92.3768C124.52 92.3768 124.76 91.6143 124.56 91.1187C124.32 90.3562 123.52 90.1275 122.44 90.4325C119.92 91.0425 120 93.8637 122.56 95.0075C125.392 95.9983 128.492 96.052 131.36 95.16V95.16Z" fill="#FFB700"/>
    <path d="M129.72 92.9487C129.88 92.7962 129.8 92.5675 129.56 92.415C129 91.9956 129.04 91.3475 129.64 90.6231C130.12 90.0893 130.16 89.2506 130.32 81.0537C130.6 66.9093 131.72 56.2725 133.16 53.68C133.76 52.6887 133.68 52.6887 132.16 53.68C130.166 55.0042 128.556 56.7879 127.48 58.865C125 63.2493 124.16 69.1587 124.16 81.8162C124.16 88.9837 124.2 89.9368 124.64 90.585C125.04 91.2712 125.04 91.5 124.8 92.1862C124.6 92.6056 124.52 93.0631 124.6 93.1393C125.16 93.635 129.16 93.5206 129.72 92.9487ZM152.16 79.4525C152.28 79.3381 152.08 78.69 151.76 78.08C151.28 77.0887 151.08 76.9362 150.4 76.9362C147.202 76.6712 144.082 75.8439 141.2 74.4962C139.16 73.6193 138.4 73.4287 138.2 73.6575C137.56 74.2293 138.6 75.5637 140.2 76.2881C142.555 77.0968 145.021 77.5721 147.52 77.6987C148.6 77.6987 148.64 77.6987 148 78.5756L147.6 79.1856H148.8L150.8 79.4143C152 79.6812 152 79.6812 152.16 79.4525V79.4525Z" fill="#FFB700"/>
    <path d="M164.8 85.8194C164.8 85.4381 163.64 84.485 162.52 83.8369C161.6 83.3412 161.44 83.3031 161.44 83.7225C161.44 84.3325 160.88 85.8956 160.64 85.8956C160.52 85.8956 160.32 85.5906 160.24 85.2475C160.12 84.8663 159.68 84.1037 159.24 83.6081L158.44 82.655L157.88 83.5319C157.32 84.3706 156.32 85.1712 155.88 85.1712C155.8 85.1712 155.76 84.7137 155.88 84.2181C155.92 83.6081 155.88 83.1506 155.68 83.0744C155.52 82.96 155.36 82.9981 155.36 83.1506C155.36 83.4556 154 84.9044 153.76 84.9044C153.6 84.9044 153.44 84.5231 153.36 83.9894L153.04 82.1594C152.96 81.7019 153.16 82.0069 153.44 82.9219L154.08 84.485L154.72 83.5319C155.01 83.138 155.226 82.6995 155.36 82.2356C155.36 82.045 155.48 81.9688 155.64 82.045C155.8 82.1213 156 82.7694 156.08 83.4556L156.28 84.7519L157 83.9894C157.377 83.6069 157.724 83.1992 158.04 82.7694C158.32 82.3119 158.36 82.3119 158.96 82.7694C159.28 83.0744 159.8 83.7225 160.12 84.2563C160.44 84.79 160.72 85.1712 160.76 85.1331L161 83.9131L161.16 82.7694C161.2 82.5788 163.32 83.9131 164.12 84.5612C164.6 84.9806 165.08 85.2856 165.16 85.2094C165.24 85.1331 165.32 84.5231 165.32 83.7987C165.32 82.7312 165.2 82.4263 164.52 81.8544C163.72 81.1681 163.72 81.1681 163.4 81.6638C163 82.3119 162.56 82.3119 162.56 81.6638C162.56 81.2063 161.04 79.4144 160.68 79.4144C160.56 79.4144 160.24 79.7956 159.96 80.2913C159.68 80.7869 159.36 81.1681 159.28 81.1681C158.88 81.1681 156.76 78.8806 156.76 78.4994C156.76 78.1944 156.92 78.2706 157.28 78.8044C157.638 79.3051 158.054 79.7655 158.52 80.1769C159.32 80.8631 159.64 80.7106 159.96 79.3763C160.08 78.995 160.24 78.69 160.36 78.69C160.68 78.69 162.52 80.5581 162.76 81.1681L163.04 81.7781L163.24 81.0919C163.48 80.2531 163.76 80.2531 164.16 81.0156C164.32 81.3206 165.12 82.0069 165.92 82.4644L167.4 83.3794L167.68 82.4644C167.84 81.9687 168.08 81.7019 168.16 81.8544C168.32 82.045 167.92 83.57 167.64 83.875C167.64 83.9131 167.12 83.6463 166.6 83.3031L165.6 82.6169V83.8369C165.6 84.485 165.52 85.2856 165.44 85.5906C165.24 86.2006 164.76 86.3531 164.76 85.8194H164.8ZM157.4 76.1356C155.64 74.7631 155.4 74.4581 155.4 73.7719L155.44 73.0856L155.56 73.7337C155.64 74.115 156.12 74.725 156.68 75.1825L157.72 75.945L158.32 75.2587C158.68 74.8775 158.96 74.42 158.96 74.2675C158.96 73.81 159.04 73.8481 160.24 74.8394C161.28 75.7162 161.32 75.7163 161.44 75.1444C161.56 74.8394 161.52 74.2294 161.44 73.81C161.04 72.6663 161.12 72.5138 161.64 73.2L162.6 74.2675C163 74.6869 163.04 74.6869 163.2 74.1531C163.32 73.81 163.4 73.2381 163.4 72.8569V72.1325L164.32 73.1619C165.24 74.1531 165.32 74.1912 165.56 73.6956C165.76 73.4287 165.88 72.7806 165.88 72.285C165.88 71.5988 165.96 71.4463 166.12 71.675C166.44 72.1325 166.24 73.2762 165.68 74.2675L165.28 75.03L164.76 74.2294C164.08 73.2381 163.84 73.2381 163.44 74.3056C163.04 75.335 162.76 75.4113 162.36 74.6106C162.12 74.115 162.04 74.1912 161.88 75.2587L161.68 76.4025L160.48 75.5256L159.28 74.6487L158.68 75.2206C158.4 75.5637 158.16 75.9831 158.16 76.1356C158.16 76.5169 157.84 76.5169 157.4 76.1356V76.1356ZM173 70.9506C172.4 70.4169 171.96 69.8831 172.04 69.8069C172.16 69.6925 172.24 69.6544 172.28 69.7306C172.667 70.1239 173.067 70.5053 173.48 70.8744C174.84 72.2469 174.56 72.285 173.04 70.9506H173ZM152.2 68.8919C151.64 68.1294 151.68 67.6719 152.4 66.8331C152.88 66.2613 153.12 66.185 154 66.2994C154.6 66.3375 155.84 66.8331 156.76 67.3669C158.09 68.1239 159.611 68.5195 161.16 68.5106L160.48 67.4431C159.6 66.185 159.6 66.0325 160.64 66.795C161.68 67.5956 162.92 67.8244 165.72 67.7481L167.08 67.71L166.28 66.9475C165.2 65.9181 165.52 65.8038 166.76 66.8331C167.88 67.7863 167.84 67.8625 165.4 68.0913C164.383 68.1892 163.355 68.1248 162.36 67.9006C161 67.5194 160.92 67.5575 161.2 67.9769C161.36 68.2438 161.6 68.4344 161.72 68.4344C161.88 68.4344 162 68.5869 162 68.7394C162 69.235 159.04 68.7775 157.6 68.1294C154.4 66.5662 154 66.4138 153.2 66.6425C152.987 66.7206 152.792 66.8384 152.628 66.9889C152.463 67.1395 152.331 67.3198 152.24 67.5194C151.72 68.7775 153.6 69.7688 154.36 68.6631C154.6 68.32 154.56 68.1294 154.16 67.71C153.6 67.1763 153.68 67.1 154.4 67.3288C154.92 67.5194 154.96 68.7012 154.48 69.1587C153.96 69.6544 152.68 69.54 152.2 68.8919Z" fill="black"/>
    <path d="M164.96 65.8037C164.56 65.4225 164.88 65.3462 166.68 65.3081C168.92 65.27 170.28 64.9269 171.88 63.9356C173.16 63.1731 173.52 63.3256 172.28 64.1262C171.2 64.8887 169.48 65.4225 167.76 65.575L165.72 65.8419C165.4 65.9181 165.04 65.88 164.92 65.8037H164.96Z" fill="black"/>
</svg>
