<svg width="247" height="164" viewBox="0 0 247 164" fill="none" xmlns="http://www.w3.org/2000/svg">
	<g clip-path="url(#clip0_2_481)">
		<path d="M247 164V0H0V164H247Z" fill="#002868"/>
		<path d="M227.703 59.655V90.405C227.703 110.905 216.125 132.977 187.18 144.935C158.234 132.977 146.656 110.905 146.656 90.405V59.655H227.703Z" fill="#FCD116" stroke="black" stroke-width="8"/>
		<path d="M227.703 59.655V90.405C227.703 110.905 216.125 132.977 187.18 144.935C158.234 132.977 146.656 110.905 146.656 90.405V59.655H227.703Z" stroke="white" stroke-width="7"/>
		<path d="M172.553 93.5142C171.511 95.12 169.697 95.4617 168.307 94.9492C166.879 94.4367 165.567 91.43 164.101 89.8242C162.711 88.2183 162.325 88.9017 161.399 87.9792C160.049 86.8854 158.478 86.0276 156.768 85.4508C155.494 84.9383 154.182 84.46 153.294 82.5125C153.686 81.725 154.404 81.101 155.301 80.77C156.035 80.5308 156.613 79.6083 156.691 78.7883C156.806 78.0367 157.578 77.1825 158.62 76.5333C158.119 76.6017 157.115 76.4308 156.652 76.1575C156.227 75.8158 155.494 75.8842 155.07 76.1575C154.607 76.4308 154.066 76.4992 153.294 76.4308C153.603 76.2258 154.143 75.7475 154.182 75.3375C154.221 74.9275 154.8 74.6883 155.919 74.6883C156.999 74.6883 157.694 73.595 158.582 73.595C157.964 73.595 158.08 72.6383 158.427 72.57C156.884 72.3308 157.077 71.2033 157.694 71.2033C157.655 71.0667 157.463 70.8617 156.729 70.6908C156.073 70.4517 156.382 69.905 156.922 69.5633C156.459 68.7092 156.884 68.06 157.655 67.5133C156.575 67.4792 157.771 66.1467 158.041 65.4292C158.35 64.7458 158.466 64.6433 158.813 65.0875C159.199 65.4633 160.087 66.3517 161.09 66.625C162.055 66.8642 162.634 67.3425 162.827 68.06C163.02 68.8458 163.406 69.2217 164.448 69.5633C165.567 69.8708 167.072 70.6908 166.879 72.5017C167.728 72.57 168.385 72.775 168.886 73.1508" fill="#FCAD56"/>
		<path d="M172.553 93.5142C171.511 95.12 169.697 95.4617 168.307 94.9492C166.879 94.4367 165.567 91.43 164.101 89.8242C162.711 88.2183 162.325 88.9017 161.399 87.9792C160.049 86.8854 158.478 86.0276 156.768 85.4508C155.494 84.9383 154.182 84.46 153.294 82.5125C153.686 81.725 154.404 81.101 155.301 80.77C156.035 80.5308 156.613 79.6083 156.691 78.7883C156.806 78.0367 157.578 77.1825 158.62 76.5333C158.119 76.6017 157.115 76.4308 156.652 76.1575C156.227 75.8158 155.494 75.8842 155.07 76.1575C154.607 76.4308 154.066 76.4992 153.294 76.4308C153.603 76.2258 154.143 75.7475 154.182 75.3375C154.221 74.9275 154.8 74.6883 155.919 74.6883C156.999 74.6883 157.694 73.595 158.582 73.595C157.964 73.595 158.08 72.6383 158.427 72.57C156.884 72.3308 157.077 71.2033 157.694 71.2033C157.655 71.0667 157.463 70.8617 156.729 70.6908C156.073 70.4517 156.382 69.905 156.922 69.5633C156.459 68.7092 156.884 68.06 157.655 67.5133C156.575 67.4792 157.771 66.1467 158.041 65.4292C158.35 64.7458 158.466 64.6433 158.813 65.0875C159.199 65.4633 160.087 66.3517 161.09 66.625C162.055 66.8642 162.634 67.3425 162.827 68.06C163.02 68.8458 163.406 69.2217 164.448 69.5633C165.567 69.8708 167.072 70.6908 166.879 72.5017C167.728 72.57 168.385 72.775 168.886 73.1508" stroke="black" stroke-width="0.275" stroke-linecap="round" stroke-linejoin="round"/>
		<path d="M175.216 70.3833C175.211 70.8048 175.317 71.2215 175.524 71.6008C175.732 71.9802 176.036 72.3119 176.412 72.57C177.145 73.0825 177.763 73.4925 177.608 74.1417C177.493 74.825 177.763 75.235 178.38 75.6792C179.075 76.0892 179.538 76.6017 179.384 77.4558C179.229 78.31 179.307 78.8225 179.693 79.4717C180.078 80.1208 180.773 80.6333 180.464 81.6583C180.156 82.6833 180.31 84.05 180.696 84.7333C181.082 85.3825 180.696 85.895 180.04 87.0225C179.345 88.15 178.959 88.56 177.57 89.0042C176.142 89.38 176.026 90.1658 176.026 91.4642C176.026 92.8308 175.023 93.5142 173.132 93.275C171.202 94.6758 170.005 93.0017 169.504 90.9175C169.002 88.8333 168.963 86.5442 166.108 84.7333C163.29 82.8542 164.409 79.6767 166.764 78.4125C169.118 77.1825 168.848 73.4925 168.539 71.2375C168.307 68.9825 170.005 67.6842 171.318 66.4542C173.054 67.035 175.216 69.3925 175.216 70.3833V70.3833Z" fill="#FFA1A1" stroke="black" stroke-width="0.275" stroke-linecap="round" stroke-linejoin="round"/>
		<path d="M171.125 84.9384C170.584 83.845 170.005 82.7175 171.395 80.3259C172.861 77.9 171.935 76.055 171.511 74.825C171.086 73.6292 170.97 72.5017 171.511 71.9892C172.09 71.545 172.321 71.2375 172.36 70.4175C172.398 69.6659 173.132 69.905 173.247 70.2808C173.363 70.6567 173.44 71.3059 172.668 72.4675C171.897 73.6634 174.83 76.5675 173.479 79.6767C172.553 81.8633 173.788 84.6308 174.251 86.5783C174.714 88.5258 175.023 93.07 171.819 93.7533C174.019 92.8308 171.974 86.7492 171.125 84.9384V84.9384Z" fill="#F1B2DC" stroke="black" stroke-width="0.275" stroke-linecap="round" stroke-linejoin="round"/>
		<path d="M156.806 84.5967C157.308 84.6992 157.578 84.4258 157.733 84.1183C157.887 83.8108 158.003 83.6742 158.505 83.6058C158.968 83.6058 159.74 83.5033 159.933 83.1617C160.087 82.82 160.666 83.0933 161.168 82.2392C161.669 81.3508 161.978 80.3258 163.29 79.95M166.879 72.5017C166.378 72.5017 164.988 72.57 164.409 73.6633M160.396 67.2058C161.553 67.5133 161.09 68.1967 161.669 68.5725C162.711 69.3242 161.746 70.0758 162.634 70.2808C163.522 70.4858 163.445 70.6225 163.252 71.4767C162.943 72.4675 164.023 72.5017 163.638 73.1508M158.62 76.5333C159.315 75.9867 160.975 75.5425 161.36 74.9617M158.582 73.595C159.585 73.5267 160.936 73.8683 161.129 73.5267M158.427 72.6042C158.929 72.6042 159.933 72.2967 160.125 71.7158M157.694 71.2375C158.273 71.2375 159.006 71.2033 159.74 70.725M156.922 69.5633C157.347 69.2558 158.119 69.5975 158.852 69.1875M157.655 67.5133C158.003 67.5133 158.736 67.445 158.736 67.8208" stroke="black" stroke-width="0.275" stroke-linecap="round" stroke-linejoin="round"/>
		<path d="M203.823 75.329C203.823 75.329 200.446 72.8092 197.648 71.1009C194.85 69.3925 191.473 67.2998 191.473 66.8727C192.004 66.5311 194.85 68.154 198.758 70.2467C202.714 72.3821 204.933 74.4748 204.933 74.4748L203.823 75.329ZM203.582 77.0373C203.582 77.0373 200.302 75.2863 197.069 74.0477C193.692 72.8092 188.627 72.8092 188.096 72.3821C188.096 71.955 193.982 71.6988 198.179 73.1936C202.472 74.9446 204.692 76.1832 204.692 76.1832L203.582 77.0373ZM203.534 79.9415C203.534 79.9415 199.964 78.4894 196.49 77.8061C193.113 77.1227 188.289 77.379 187.71 76.9946C187.71 76.5675 193.692 75.7134 198.179 76.9946C202.714 78.2332 204.643 79.0873 204.643 79.0873L203.534 79.9415ZM203.341 82.8884C203.341 82.8884 200.639 81.2654 197.069 80.9238C193.692 80.6248 189.206 82.8884 188.627 82.4613C188.627 82.0342 192.535 79.5144 197.407 79.9415C202.183 80.3686 204.45 82.0342 204.45 82.0342L203.341 82.8884ZM204.45 73.5779C204.45 73.5779 201.025 70.8019 201.025 68.9227C201.025 67.2571 203.1 64.6946 204.016 64.6946C203.534 65.5488 201.942 67.2571 201.942 68.9227C201.942 70.6311 205.56 72.7238 205.56 72.7238L204.45 73.5779Z" fill="#9E540A" stroke="black" stroke-width="0.275" stroke-linecap="round" stroke-linejoin="round"/>
		<path d="M204.45 73.5779C204.45 73.5779 205.126 70.8019 205.126 68.9227C205.126 66.4029 203.1 64.0967 203.293 63.4561C204.016 64.0967 206.042 65.9758 206.042 68.9227C206.042 71.4852 205.56 72.7238 205.56 72.7238L204.45 73.5779Z" fill="#9E540A" stroke="black" stroke-width="0.275" stroke-linecap="round" stroke-linejoin="round"/>
		<path d="M205.271 72.681C205.271 71.8696 204.933 71.1435 204.354 70.5883C203.582 69.7769 202.424 69.5206 201.218 69.6915C199.771 69.905 198.613 70.6737 197.889 71.8696C196.925 73.4498 196.828 75.1581 196.78 76.8237C196.78 82.5894 197.021 84.9383 197.214 90.6185C197.262 92.2842 197.6 95.7008 196.732 98.3915C196.394 99.5446 196.008 100.612 195.429 101.723C195.815 100.313 196.008 99.5873 196.201 98.5196C196.732 95.7435 196.587 93.1383 196.49 90.5758C196.297 85.3227 195.96 82.6321 195.767 76.2685C195.719 74.3467 195.912 72.8946 196.925 71.3571C197.986 69.7769 199.819 68.6237 201.894 68.6237C202.762 68.6237 203.486 68.7519 204.209 69.1362C205.656 69.8196 206.332 71.229 206.332 72.6383L205.271 72.681Z" fill="#9E540A" stroke="#FCD116" stroke-width="1.5" stroke-linecap="round" stroke-linejoin="round"/>
		<path d="M205.271 72.681C205.271 71.8696 204.933 71.1435 204.354 70.5883C203.582 69.7769 202.424 69.5206 201.218 69.6915C199.771 69.905 198.613 70.6737 197.889 71.8696C196.925 73.4498 196.828 75.1581 196.78 76.8237C196.78 82.5894 197.021 84.9383 197.214 90.6185C197.262 92.2842 197.6 95.7008 196.732 98.3915C196.394 99.5446 196.008 100.612 195.429 101.723C195.815 100.313 196.008 99.5873 196.201 98.5196C196.732 95.7435 196.587 93.1383 196.49 90.5758C196.297 85.3227 195.96 82.6321 195.767 76.2685C195.719 74.3467 195.912 72.8946 196.925 71.3571C197.986 69.7769 199.819 68.6237 201.894 68.6237C202.762 68.6237 203.486 68.7519 204.209 69.1362C205.656 69.8196 206.332 71.229 206.332 72.6383L205.271 72.681Z" fill="#9E540A"/>
		<path d="M205.56 93.2665C205.56 93.2665 204.209 95.4019 203.196 96.9394C202.183 98.4769 201.363 98.8185 200.591 98.3488C199.867 97.879 200.495 96.6404 201.073 96.0425C201.652 95.4446 204.885 92.6685 204.885 92.6685L205.56 93.2665Z" fill="#9E540A" stroke="black" stroke-width="0.275" stroke-linecap="round" stroke-linejoin="round"/>
		<path d="M205.898 93.4373C205.898 93.4373 205.367 95.8717 204.933 97.6227C204.547 99.3738 203.871 99.9717 203.051 99.7581C202.183 99.5873 202.328 98.1779 202.665 97.4519C203.003 96.7258 205.029 93.0529 205.029 93.0529L205.898 93.4373Z" fill="#9E540A" stroke="black" stroke-width="0.275" stroke-linecap="round" stroke-linejoin="round"/>
		<path d="M206.477 93.5227V97.7935C206.477 99.5873 205.994 100.313 205.078 100.271C204.209 100.228 204.016 98.8613 204.209 98.0498C204.354 97.281 205.56 93.3092 205.56 93.3092L206.477 93.5227Z" fill="#9E540A" stroke="black" stroke-width="0.275" stroke-linecap="round" stroke-linejoin="round"/>
		<path d="M209.13 75.329C209.13 75.329 212.507 72.8092 215.305 71.1009C218.103 69.3925 221.48 67.2998 221.48 66.8727C220.949 66.5311 218.103 68.154 214.195 70.2467C210.239 72.3821 208.02 74.4748 208.02 74.4748L209.13 75.329ZM209.371 77.0373C209.371 77.0373 212.652 75.2863 215.884 74.0477C219.261 72.8092 224.326 72.8092 224.857 72.3821C224.857 71.955 218.971 71.6988 214.774 73.1936C210.481 74.9446 208.262 76.1832 208.262 76.1832L209.371 77.0373ZM209.419 79.9415C209.419 79.9415 212.989 78.4894 216.463 77.8061C219.84 77.1227 224.664 77.379 225.243 76.9946C225.243 76.5675 219.261 75.7134 214.774 76.9946C210.239 78.2332 208.31 79.0873 208.31 79.0873L209.419 79.9415ZM209.612 82.8884C209.612 82.8884 212.314 81.2654 215.884 80.9238C219.261 80.6248 223.747 82.8884 224.326 82.4613C224.326 82.0342 220.419 79.5144 215.546 79.9415C210.77 80.3686 208.503 82.0342 208.503 82.0342L209.612 82.8884ZM208.503 73.5779C208.503 73.5779 211.928 70.8019 211.928 68.9227C211.928 67.2571 209.854 64.6946 208.937 64.6946C209.419 65.5488 211.011 67.2571 211.011 68.9227C211.011 70.6311 207.393 72.7238 207.393 72.7238L208.503 73.5779Z" fill="#9E540A" stroke="black" stroke-width="0.275" stroke-linecap="round" stroke-linejoin="round"/>
		<path d="M208.503 73.5779C208.503 73.5779 207.827 70.8019 207.827 68.9227C207.827 66.4029 209.854 64.0967 209.661 63.4561C208.937 64.0967 206.911 65.9758 206.911 68.9227C206.911 71.4852 207.393 72.7238 207.393 72.7238L208.503 73.5779Z" fill="#9E540A" stroke="black" stroke-width="0.275" stroke-linecap="round" stroke-linejoin="round"/>
		<path d="M207.683 72.681C207.683 71.8696 208.02 71.1435 208.599 70.5883C209.371 69.7769 210.529 69.5206 211.735 69.6915C213.182 69.905 214.34 70.6737 215.064 71.8696C216.029 73.4498 216.125 75.1581 216.173 76.8237C216.173 82.5894 215.932 84.9383 215.739 90.6185C215.691 92.2842 215.353 95.7008 216.221 98.3915C216.559 99.5446 216.945 100.612 217.524 101.723C217.138 100.313 216.945 99.5873 216.752 98.5196C216.221 95.7435 216.366 93.1383 216.463 90.5758C216.656 85.3227 216.993 82.6321 217.186 76.2685C217.235 74.3467 217.042 72.8946 216.029 71.3571C214.967 69.7769 213.134 68.6237 211.06 68.6237C210.191 68.6237 209.468 68.7519 208.744 69.1362C207.297 69.8196 206.621 71.229 206.621 72.6383L207.683 72.681Z" fill="#9E540A" stroke="#FCD116" stroke-width="1.5" stroke-linecap="round" stroke-linejoin="round"/>
		<path d="M207.683 72.681C207.683 71.8696 208.02 71.1435 208.599 70.5883C209.371 69.7769 210.529 69.5206 211.735 69.6915C213.182 69.905 214.34 70.6737 215.064 71.8696C216.029 73.4498 216.125 75.1581 216.173 76.8237C216.173 82.5894 215.932 84.9383 215.739 90.6185C215.691 92.2842 215.353 95.7008 216.221 98.3915C216.559 99.5446 216.945 100.612 217.524 101.723C217.138 100.313 216.945 99.5873 216.752 98.5196C216.221 95.7435 216.366 93.1383 216.463 90.5758C216.656 85.3227 216.993 82.6321 217.186 76.2685C217.235 74.3467 217.042 72.8946 216.029 71.3571C214.967 69.7769 213.134 68.6237 211.06 68.6237C210.191 68.6237 209.468 68.7519 208.744 69.1362C207.297 69.8196 206.621 71.229 206.621 72.6383L207.683 72.681Z" fill="#9E540A"/>
		<path d="M207.393 93.2665C207.393 93.2665 208.744 95.4019 209.757 96.9394C210.77 98.4769 211.59 98.8185 212.362 98.3488C213.086 97.879 212.459 96.6404 211.88 96.0425C211.301 95.4446 208.069 92.6685 208.069 92.6685L207.393 93.2665Z" fill="#9E540A" stroke="black" stroke-width="0.275" stroke-linecap="round" stroke-linejoin="round"/>
		<path d="M207.055 93.4373C207.055 93.4373 207.586 95.8717 208.02 97.6227C208.406 99.3738 209.082 99.9717 209.902 99.7581C210.77 99.5873 210.625 98.1779 210.288 97.4519C209.95 96.7258 207.924 93.0529 207.924 93.0529L207.055 93.4373Z" fill="#9E540A" stroke="black" stroke-width="0.275" stroke-linecap="round" stroke-linejoin="round"/>
		<path d="M206.477 93.5227V97.7935C206.477 99.5873 206.959 100.313 207.876 100.271C208.744 100.228 208.937 98.8613 208.744 98.0498C208.599 97.281 207.393 93.3092 207.393 93.3092L206.477 93.5227Z" fill="#9E540A" stroke="black" stroke-width="0.275" stroke-linecap="round" stroke-linejoin="round"/>
		<path d="M206.477 93.48C203.92 93.4373 203.679 92.6258 203.679 92.6258C203.679 92.6258 203.341 91.6008 203.293 90.9602C203.244 90.8748 202.569 89.5936 202.762 89.0383C202.521 88.5258 201.942 87.2873 202.472 87.0738C202.231 86.4758 201.845 85.7925 201.797 85.1519C201.604 84.6821 201.122 83.6571 201.508 83.3154C201.508 83.3154 200.591 81.6071 201.025 81.18C201.025 81.18 200.591 79.5144 201.025 79.0873C201.025 79.0873 201.025 77.379 201.508 76.9519C201.508 76.9519 201.508 75.2863 201.942 74.8592C201.942 74.9446 203.293 72.5102 206.477 72.5102L206.428 76.1404H206.477V93.48Z" fill="#9E540A" stroke="black" stroke-width="0.275" stroke-linecap="round" stroke-linejoin="round"/>
		<path d="M206.477 84.1696C202.376 84.1269 201.508 83.3154 201.508 83.3154M206.477 82.0342C202.376 82.0342 201.025 81.18 201.025 81.18M206.477 79.9415C202.376 79.8988 201.025 79.0873 201.025 79.0873M206.477 77.8061C202.376 77.7633 201.508 76.9519 201.508 76.9519M206.428 76.1404C206.477 76.1404 203.341 76.1404 202.858 75.7133L201.942 74.9019M206.477 91.7717C205.271 91.7717 203.92 91.6008 203.293 90.9602M206.477 90.0633C204.209 90.0633 202.858 89.2519 202.858 89.2519C202.858 89.2519 202.81 89.1665 202.762 89.0383M206.477 87.9706C203.486 87.9279 202.665 87.3727 202.472 87.0738M206.477 86.2623C202.376 86.2623 201.942 85.4081 201.942 85.4081L201.797 85.1519" stroke="black" stroke-width="0.275" stroke-linecap="round" stroke-linejoin="round"/>
		<path d="M206.477 93.48C209.033 93.4373 209.275 92.6258 209.275 92.6258C209.275 92.6258 209.612 91.6008 209.661 90.9602C209.709 90.8748 210.384 89.5936 210.191 89.0383C210.432 88.5258 211.011 87.2873 210.481 87.0738C210.722 86.4758 211.108 85.7925 211.156 85.1519C211.349 84.6821 211.831 83.6571 211.446 83.3154C211.446 83.3154 212.362 81.6071 211.928 81.18C211.928 81.18 212.362 79.5144 211.928 79.0873C211.928 79.0873 211.928 77.379 211.446 76.9519C211.446 76.9519 211.446 75.2863 211.011 74.8592C211.011 74.9446 209.661 72.5102 206.477 72.5102L206.525 76.1404H206.477V93.48Z" fill="#9E540A" stroke="black" stroke-width="0.275" stroke-linecap="round" stroke-linejoin="round"/>
		<path d="M206.477 84.1696C210.577 84.1269 211.446 83.3154 211.446 83.3154M206.477 82.0342C210.577 82.0342 211.928 81.18 211.928 81.18M206.477 79.9415C210.577 79.8988 211.928 79.0873 211.928 79.0873M206.477 77.8061C210.577 77.7633 211.446 76.9519 211.446 76.9519M206.525 76.1404C206.477 76.1404 209.612 76.1404 210.095 75.7133L211.011 74.9019M206.477 91.7717C207.683 91.7717 209.033 91.6008 209.661 90.9602M206.477 90.0633C208.744 90.0633 210.095 89.2519 210.095 89.2519C210.095 89.2519 210.143 89.1665 210.191 89.0383M206.477 87.9706C209.468 87.9279 210.288 87.3727 210.481 87.0738M206.477 86.2623C210.577 86.2623 211.011 85.4081 211.011 85.4081L211.156 85.1519" stroke="black" stroke-width="0.275" stroke-linecap="round" stroke-linejoin="round"/>
		<path d="M187.18 132.772C185.105 134.48 181.101 133.37 179.847 132.601C178.544 132.985 175.071 131.789 174.154 130.465C171.646 130.764 170.777 127.604 171.212 126.792C171.887 125.597 170.681 124.828 171.549 124.016C172.755 122.991 170.874 122.009 172.032 121.326C173.189 120.6 171.742 119.404 172.9 118.635C174.106 117.824 172.273 116.713 173.527 116.158C174.781 115.603 173.382 114.151 174.444 113.596C175.505 113.04 173.817 111.631 175.264 110.99C176.663 110.35 175.409 109.239 176.518 108.77C177.724 108.214 176.615 107.061 177.724 106.677C178.979 106.207 178.062 104.969 179.123 104.627C180.04 104.328 179.461 103.559 180.04 102.876H187.18" fill="#009E49"/>
		<path d="M187.18 132.772C185.105 134.48 181.101 133.37 179.847 132.601C178.544 132.985 175.071 131.789 174.154 130.465C171.646 130.764 170.777 127.604 171.212 126.792C171.887 125.597 170.681 124.828 171.549 124.016C172.755 122.991 170.874 122.009 172.032 121.326C173.189 120.6 171.742 119.404 172.9 118.635C174.106 117.824 172.273 116.713 173.527 116.158C174.781 115.603 173.382 114.151 174.444 113.596C175.505 113.04 173.817 111.631 175.264 110.99C176.663 110.35 175.409 109.239 176.518 108.77C177.724 108.214 176.615 107.061 177.724 106.677C178.979 106.207 178.062 104.969 179.123 104.627C180.04 104.328 179.461 103.559 180.04 102.876H187.18" stroke="black" stroke-width="0.275" stroke-linecap="round" stroke-linejoin="round"/>
		<path d="M182.404 103.132C181.439 103.986 182.597 104.627 181.632 105.652C180.619 106.72 181.535 107.275 180.715 108.214C179.895 109.154 181.101 109.624 180.185 110.691C179.268 111.716 180.378 112.357 179.364 113.211C178.4 114.108 179.557 114.877 178.544 115.816C177.58 116.799 178.737 117.439 177.772 118.294C176.759 119.19 177.917 120.13 176.952 120.984C175.988 121.881 177.145 122.991 176.036 124.016C174.974 125.041 176.229 125.853 175.36 126.622C174.444 127.433 175.264 128.245 174.637 128.8C174.01 129.355 173.913 130.124 174.154 130.465M184.285 103.431C183.417 104.499 184.768 104.969 183.947 105.823C183.127 106.72 184.285 107.019 183.658 108.044C183.031 109.069 184.14 109.325 183.32 110.35C182.5 111.375 183.755 112.186 182.886 113.211C181.97 114.236 183.32 114.791 182.5 115.816C181.728 116.884 182.886 117.439 182.163 118.208C181.439 119.02 182.693 119.788 181.777 120.771C180.908 121.71 182.163 122.436 181.439 123.29C180.715 124.187 181.728 125.127 181.101 125.853C180.474 126.536 181.535 127.604 180.619 128.544C179.75 129.483 180.812 130.124 180.281 130.764C179.75 131.405 179.316 132.345 179.847 132.601" stroke="black" stroke-width="0.275" stroke-linecap="round" stroke-linejoin="round"/>
		<path d="M187.18 132.772C189.254 134.48 193.258 133.37 194.513 132.601C195.815 132.985 199.288 131.789 200.205 130.465C202.714 130.764 203.582 127.604 203.148 126.792C202.472 125.597 203.679 124.828 202.81 124.016C201.604 122.991 203.486 122.009 202.328 121.326C201.17 120.6 202.617 119.404 201.459 118.635C200.253 117.824 202.087 116.713 200.832 116.158C199.578 115.603 200.977 114.151 199.916 113.596C198.854 113.04 200.543 111.631 199.096 110.99C197.696 110.35 198.951 109.239 197.841 108.77C196.635 108.214 197.745 107.061 196.635 106.677C195.381 106.207 196.297 104.969 195.236 104.627C194.32 104.328 194.898 103.559 194.32 102.876H187.18" fill="#009E49"/>
		<path d="M187.18 132.772C189.254 134.48 193.258 133.37 194.513 132.601C195.815 132.985 199.288 131.789 200.205 130.465C202.714 130.764 203.582 127.604 203.148 126.792C202.472 125.597 203.679 124.828 202.81 124.016C201.604 122.991 203.486 122.009 202.328 121.326C201.17 120.6 202.617 119.404 201.459 118.635C200.253 117.824 202.087 116.713 200.832 116.158C199.578 115.603 200.977 114.151 199.916 113.596C198.854 113.04 200.543 111.631 199.096 110.99C197.696 110.35 198.951 109.239 197.841 108.77C196.635 108.214 197.745 107.061 196.635 106.677C195.381 106.207 196.297 104.969 195.236 104.627C194.32 104.328 194.898 103.559 194.32 102.876H187.18" stroke="black" stroke-width="0.275" stroke-linecap="round" stroke-linejoin="round"/>
		<path d="M191.956 103.132C192.921 103.986 191.763 104.627 192.728 105.652C193.741 106.72 192.824 107.275 193.644 108.214C194.464 109.154 193.258 109.624 194.175 110.691C195.091 111.716 193.982 112.357 194.995 113.211C195.96 114.108 194.802 114.877 195.815 115.816C196.78 116.799 195.622 117.439 196.587 118.294C197.6 119.19 196.442 120.13 197.407 120.984C198.372 121.881 197.214 122.991 198.324 124.016C199.385 125.041 198.131 125.853 198.999 126.622C199.916 127.433 199.096 128.245 199.723 128.8C200.35 129.355 200.446 130.124 200.205 130.465M190.074 103.431C190.943 104.499 189.592 104.969 190.412 105.823C191.232 106.72 190.074 107.019 190.701 108.044C191.329 109.069 190.219 109.325 191.039 110.35C191.859 111.375 190.605 112.186 191.473 113.211C192.39 114.236 191.039 114.791 191.859 115.816C192.631 116.884 191.473 117.439 192.197 118.208C192.921 119.02 191.666 119.788 192.583 120.771C193.451 121.71 192.197 122.436 192.921 123.29C193.644 124.187 192.631 125.127 193.258 125.853C193.885 126.536 192.824 127.604 193.741 128.544C194.609 129.483 193.548 130.124 194.078 130.764C194.609 131.405 195.043 132.345 194.512 132.601" stroke="black" stroke-width="0.275" stroke-linecap="round" stroke-linejoin="round"/>
		<path d="M187.18 132.772V102.876" stroke="#009E49" stroke-width="0.275" stroke-linecap="round" stroke-linejoin="round"/>
		<path d="M187.18 104.413C186.746 106.079 187.807 107.531 187.18 108.94C186.553 110.307 187.614 110.862 187.276 111.973C186.89 113.083 187.71 113.895 187.18 115.09C186.649 116.286 187.903 117.226 187.18 118.806C186.456 120.344 187.662 120.728 187.18 122.308C186.649 124.102 188.096 125.041 187.18 126.323C186.263 127.604 188 127.903 187.276 129.355C186.553 130.764 187.71 131.32 187.18 132.772" stroke="black" stroke-width="0.275" stroke-linecap="round" stroke-linejoin="round"/>
		<path d="M187.903 109.795C187.662 110.264 188.627 111.375 188.096 112.229C187.517 113.04 188.386 114.322 187.807 115.347C187.228 116.372 188.723 117.653 188.145 118.849C187.517 120.045 188.434 121.539 188.145 122.65C187.903 123.76 188.772 125.896 188.145 126.664C187.517 127.476 188.772 127.689 188.048 129.654C187.324 131.619 186.842 129.953 187.276 129.355C188.193 128.031 186.263 127.604 187.18 126.323C188.096 125.041 186.649 124.102 187.18 122.308C187.662 120.728 186.456 120.344 187.18 118.806C187.903 117.226 186.649 116.286 187.18 115.09C187.71 113.895 186.89 113.083 187.276 111.973C187.614 110.862 186.553 110.307 187.18 108.94C187.662 107.574 188.145 109.325 187.903 109.795ZM183.851 111.161C183.513 111.674 184.43 112.656 183.61 113.638C183.031 114.322 183.996 115.133 183.176 116.115C182.645 116.799 183.706 117.653 182.983 118.635C182.5 119.19 183.32 120.258 182.741 121.07C182.163 121.924 183.031 122.607 182.018 123.718C181.439 124.315 182.452 125.81 181.825 126.28C181.198 126.75 181.777 128.586 181.342 128.843C180.956 129.141 181.342 130.465 180.281 130.764C180.812 130.124 179.75 129.483 180.619 128.544C181.535 127.604 180.474 126.536 181.101 125.853C181.728 125.127 180.715 124.187 181.439 123.29C182.163 122.436 180.908 121.71 181.777 120.771C182.693 119.788 181.439 119.02 182.163 118.208C182.886 117.439 181.728 116.884 182.5 115.816C183.32 114.791 181.97 114.236 182.886 113.211C183.754 112.186 182.5 111.375 183.32 110.35C184.14 109.325 183.031 109.069 183.658 108.044C184.816 108.428 184.237 110.649 183.851 111.161ZM181.439 108.385C180.956 109.069 181.632 109.88 180.908 110.734C180.185 111.631 180.908 112.741 180.185 113.468C179.461 114.151 180.378 115.518 179.461 116.073C178.544 116.628 179.123 118.294 178.4 118.849C177.676 119.404 178.4 120.984 177.579 121.796C176.759 122.607 177.145 124.273 176.663 124.657C176.229 125.041 177.29 125.853 176.518 126.408C175.698 126.963 175.698 128.074 174.637 128.8C175.264 128.245 174.444 127.433 175.36 126.622C176.229 125.853 174.974 125.041 176.036 124.016C177.145 122.991 175.988 121.881 176.952 120.984C177.917 120.13 176.759 119.19 177.772 118.294C178.737 117.439 177.579 116.799 178.544 115.816C179.557 114.877 178.4 114.108 179.364 113.211C180.378 112.357 179.268 111.716 180.185 110.691C181.101 109.624 179.895 109.154 180.715 108.214C181.101 107.787 181.101 107.403 181.101 107.061C181.68 105.737 181.68 108.044 181.439 108.385Z" fill="#FCD116" stroke="black" stroke-width="0.275" stroke-linecap="round" stroke-linejoin="round"/>
		<path d="M180.474 103.858C180.474 94.8894 181.873 91.7717 187.18 91.7717C192.486 91.7717 193.885 94.8894 193.885 103.858H180.474Z" fill="#CE1126" stroke="black" stroke-width="0.275" stroke-linecap="round" stroke-linejoin="round"/>
		<path d="M180.474 103.858C180.474 94.8894 181.873 91.7717 187.18 91.7717C184.768 91.7717 183.272 93.4373 182.886 94.5477C182.452 95.6581 182.693 95.5727 183.224 95.1456C183.754 94.7185 183.513 95.6581 183.031 96.1706C182.597 96.6831 182.163 98.1779 182.79 97.7081C183.417 97.1956 183.899 97.7508 183.224 98.605C182.548 99.4165 181.97 101.381 182.645 100.698C183.32 100.014 183.465 101.125 183.031 101.68C182.645 102.235 182.693 102.748 183.031 102.491C183.417 102.235 183.369 103.388 183.031 103.858H180.474ZM189.688 103.687C189.688 102.363 189.737 99.2456 188.916 98.2206C188.338 97.4092 188.338 96.555 189.013 97.4946C189.688 98.4342 190.026 97.9644 189.544 97.0248C188.965 95.829 188.193 94.505 188.386 94.2488C188.627 93.9498 188.772 94.0779 189.254 94.7185C189.737 95.3592 189.833 94.4196 189.302 93.779C188.772 93.181 188.82 93.0529 189.929 93.48C191.907 94.206 192.872 96.2988 192.872 103.346L189.688 103.687Z" fill="black" stroke="black" stroke-width="0.275" stroke-linecap="round" stroke-linejoin="round"/>
		<path d="M187.18 105.139C185.057 105.139 182.741 104.84 181.198 104.285C179.364 103.645 179.268 103.089 179.895 102.406C180.378 101.894 181.342 102.193 182.307 102.577C183.224 102.919 185.829 103.175 187.18 103.175C188.53 103.175 191.136 102.919 192.052 102.534C193.017 102.193 193.982 101.894 194.464 102.406C195.091 103.089 194.995 103.645 193.162 104.285C191.618 104.84 189.302 105.139 187.18 105.139Z" fill="#CE1126" stroke="black" stroke-width="0.275" stroke-linecap="round" stroke-linejoin="round"/>
		<path d="M0 0H123.5V82H0V0Z" fill="#012169"/>
		<path d="M14.4727 0L61.557 30.9208L108.448 0H123.5V10.5917L77.1875 41.1708L123.5 71.5792V82H108.063L61.75 51.4208L15.6305 82H0V71.75L46.1195 41.3417L0 10.9333V0H14.4727Z" fill="white"/>
		<path d="M81.8188 48.0042L123.5 75.1667V82L71.2055 48.0042H81.8188ZM46.3125 51.4208L47.4703 57.4L10.4203 82H0L46.3125 51.4208ZM123.5 0V0.5125L75.4508 32.6292L75.8367 25.1125L113.852 0H123.5ZM0 0L46.1195 30.0667H34.5414L0 7.175V0Z" fill="#C8102E"/>
		<path d="M46.5055 0V82H77.3805V0H46.5055ZM0 27.3333V54.6667H123.5V27.3333H0Z" fill="white"/>
		<path d="M0 32.9708V49.3708H123.5V32.9708H0ZM52.6805 0V82H71.2055V0H52.6805Z" fill="#C8102E"/>
	</g>
	<defs>
		<clipPath id="clip0_2_481">
			<rect width="247" height="164" fill="white"/>
		</clipPath>
	</defs>
</svg>
