<svg id="Layer_1" data-name="Layer 1" xmlns="http://www.w3.org/2000/svg" viewBox="0 0 1500 1000"><defs><style>.cls-1{fill:#da2032;}.cls-2{fill:#0066b3;}.cls-3{fill:#ffd900;}</style></defs><path class="cls-1" d="M0,2.87H1500V1000H0Z"/><path class="cls-2" d="M500,2.87h500V1000H500Z"/><ellipse class="cls-3" cx="250" cy="382.34" rx="68.75" ry="68.95"/><ellipse class="cls-1" cx="250" cy="351" rx="75" ry="75.22"/><ellipse class="cls-3" cx="250" cy="363.54" rx="50" ry="50.14"/><path class="cls-3" d="M255.25,200.57c-6.21,2.83-8.53,7.92-9,13-.31,4.27,1.57,9.09,1.76,13.27,0,7.19-7.43,9.56-7.43,19.83,0,3.53,3.25,7.42,3.25,16.58-.56,4.81-3.23,5.89-6.25,6.27A6.25,6.25,0,0,1,233,258.94a5.35,5.35,0,0,1,.63-.63c1.43-1.44,3.38-2,3.37-5.8,0-2-1.26-3.74-2.47-7.2A14.52,14.52,0,0,1,237,233c-4.38,1.69-7.07,5.89-8.45,9.67-1.45,4.64-.19,7.31-2.17,11.16-1.22,2.5-2.66,3.53-4,5.61-1.62,2.27-3.52,7.58-3.52,10a31.25,31.25,0,1,0,62.5,0c0-2.46-1.87-7.77-3.49-10-1.37-2.08-2.84-3.11-4.05-5.61-2-3.85-.7-6.52-2.15-11.16-1.38-3.78-4.08-8-8.45-9.67a14.48,14.48,0,0,1,2.39,12.29c-1.21,3.46-2.48,5.24-2.48,7.2,0,3.8,1.94,4.36,3.37,5.8a5.35,5.35,0,0,1,.63.63,6.26,6.26,0,0,1-4.52,10.58c-3.45-.44-5.93-2.06-6.25-6.27,0-12.07,5.15-12.84,5.15-21.77,0-12.75-11.4-18.78-11.4-28.11a17.54,17.54,0,0,1,5.2-12.82ZM112.5,463.83H175V764.69H112.5Zm212.5,0h62.5V764.69H325Zm-137.5,0h125L250,501.43Zm0,50.14h125V539h-125Zm0,175.5h125v25.08h-125Zm0,37.61h125L250,764.69Z"/><ellipse class="cls-3" cx="250" cy="614.26" rx="62.5" ry="62.68"/><ellipse class="cls-1" cx="250" cy="581.04" rx="12.5" ry="12.54"/><ellipse class="cls-1" cx="250" cy="647.48" rx="12.5" ry="12.54"/><path class="cls-1" d="M250,544.06a37,37,0,0,1,0,74,29.46,29.46,0,0,0,0,58.92v7.52a37,37,0,0,1,0-74,29.46,29.46,0,0,0,0-58.92Z"/></svg>